<?xml version="1.0" encoding="UTF-8"?>
<!DOCTYPE svg PUBLIC "-//W3C//DTD SVG 1.1//EN" "http://www.w3.org/Graphics/SVG/1.1/DTD/svg11.dtd">
<!-- Creator: CorelDRAW X5 -->
<svg xmlns="http://www.w3.org/2000/svg" xml:space="preserve" width="40mm" height="40mm" style="shape-rendering:geometricPrecision; text-rendering:geometricPrecision; image-rendering:optimizeQuality; fill-rule:evenodd; clip-rule:evenodd"
viewBox="0 0 4000 4000"
 xmlns:xlink="http://www.w3.org/1999/xlink">
 <defs>
  <style type="text/css">
   <![CDATA[
    .fil2 {fill:#FEFEFE}
    .fil0 {fill:#963D3A}
    .fil1 {fill:#FEFEFE;fill-rule:nonzero}
   ]]>
  </style>
 </defs>
 <g id="图层_x0020_1">
  <metadata id="CorelCorpID_0Corel-Layer"/>
  <path class="fil0" d="M1182 880l1947 0c94,0 170,76 170,168l0 1777c0,93 -77,168 -170,168l-1947 0c-94,0 -170,-76 -170,-168l0 -1777c0,-93 77,-168 170,-168z"/>
  <g>
   <path class="fil1" d="M3061 972l-1812 0 0 -37 1812 0 0 0 0 37zm177 138l-37 0 0 0 0 -7 -1 -7 -1 -7 -1 -7 -2 -7 -2 -7 -2 -6 -3 -6 -3 -6 -3 -6 -3 -6 -4 -6 -4 -5 -4 -5 -4 -5 -5 -5 -5 -5 -5 -4 -5 -4 -6 -4 -6 -4 -6 -3 -6 -3 -6 -3 -6 -2 -6 -2 -7 -2 -7 -2 -7 -1 -7 -1 -7 -1 -7 0 0 -37 9 0 9 1 9 1 9 2 9 2 8 2 8 3 8 3 8 4 8 4 7 4 7 5 7 5 7 5 6 6 6 6 6 6 6 6 5 7 5 7 5 7 4 7 4 8 4 8 3 8 3 8 2 8 2 8 2 9 1 9 1 9 0 9 0 0zm-37 1653l0 -1653 37 0 0 1653 0 0 -37 0zm-140 175l0 -37 0 0 7 0 7 -1 7 -1 7 -1 7 -2 7 -2 6 -2 6 -2 6 -3 6 -3 6 -3 6 -4 5 -4 5 -4 5 -4 5 -5 5 -5 4 -5 4 -5 4 -5 4 -6 3 -6 3 -6 3 -6 3 -6 2 -6 2 -7 2 -7 1 -7 1 -7 1 -7 0 -7 37 0 0 9 -1 9 -1 9 -2 9 -2 8 -2 8 -3 8 -3 8 -4 8 -4 8 -4 7 -5 7 -5 7 -5 7 -6 6 -6 6 -6 6 -6 5 -7 5 -7 5 -7 5 -7 4 -8 4 -8 4 -8 3 -8 3 -8 2 -9 2 -9 2 -9 1 -9 1 -9 0 0 0zm-1812 -37l1812 0 0 37 -1812 0 0 0 0 -37zm-177 -138l37 0 0 0 0 7 1 7 1 7 1 7 2 7 2 7 2 6 3 6 3 6 3 6 3 6 4 6 4 5 4 5 4 5 5 5 5 5 5 4 5 4 5 4 6 4 6 3 6 3 6 3 6 2 6 2 7 2 7 2 7 1 7 1 7 1 7 0 0 37 -9 0 -9 -1 -9 -1 -9 -2 -9 -2 -8 -2 -8 -3 -8 -3 -8 -4 -8 -4 -7 -4 -7 -5 -7 -5 -7 -5 -6 -6 -6 -6 -6 -6 -6 -6 -5 -7 -5 -7 -5 -7 -4 -7 -4 -8 -4 -8 -3 -8 -3 -8 -2 -8 -2 -8 -2 -9 -1 -9 -1 -9 0 -9 0 0zm37 -1653l0 1653 -37 0 0 -1653 0 0 37 0zm140 -175l0 37 0 0 -7 0 -7 1 -7 1 -7 1 -7 2 -7 2 -6 2 -6 2 -6 3 -6 3 -6 3 -6 4 -5 4 -5 4 -5 4 -5 5 -5 5 -4 5 -4 5 -4 5 -4 6 -3 6 -3 6 -3 6 -3 6 -2 6 -2 7 -2 7 -1 7 -1 7 -1 7 0 7 -37 0 0 -9 1 -9 1 -9 2 -9 2 -8 2 -8 3 -8 3 -8 4 -8 4 -8 4 -7 5 -7 5 -7 5 -7 6 -6 6 -6 6 -6 6 -6 7 -5 7 -5 7 -5 7 -4 8 -4 8 -4 8 -3 8 -3 8 -2 9 -2 9 -2 9 -1 9 -1 9 0 0 0z"/>
  </g>
  <path class="fil2" d="M2465 1792l-42 91 -159 89 159 282 28 -100 91 -178 -77 -185zm-292 229l-28 -44 236 -185 19 -112c1,-24 18,-49 49,-76 32,-27 63,-40 93,-40 29,0 52,16 68,47l128 243c16,31 23,60 23,89 0,35 -14,68 -42,98l173 523 -67 56 -215 -434 -68 79 -38 131 125 215 -63 0 -79 -133 -40 142 -100 -37 63 -245 -196 -339 -39 23zm149 -561c0,-29 11,-53 32,-72 21,-19 46,-28 73,-28 28,3 51,12 71,29 19,17 30,40 30,72 0,33 -11,59 -31,77 -21,18 -44,28 -69,28 -28,0 -52,-9 -72,-28 -20,-18 -31,-44 -33,-77zm-718 -110c0,-33 12,-59 35,-79 23,-20 50,-30 80,-30 30,0 55,11 77,33 22,22 33,51 33,86 -2,26 -14,49 -34,69 -20,21 -44,31 -71,31 -32,0 -59,-9 -81,-27 -23,-18 -35,-46 -38,-83zm157 430l-28 82 -210 77 196 302c11,-65 27,-127 47,-186 20,-59 43,-100 67,-125l-72 -149zm-61 542l-226 -364 -42 14 -14 -51 248 -159 19 -147c5,-50 22,-88 50,-114 28,-26 59,-40 93,-40 35,0 60,13 75,39l156 292c14,23 21,52 21,87 0,47 -15,87 -45,119l211 574 -77 56 -248 -498 -91 149 -23 106 137 224 -63 0 -89 -147 -35 171 -115 -42 58 -269zm316 -909l134 252c7,16 11,27 11,33 0,12 -12,23 -35,35 -17,9 -30,14 -40,14 -13,0 -27,-13 -42,-38l-114 -222c-14,-26 -21,-44 -21,-54 0,-11 10,-22 30,-31 21,-9 37,-14 47,-14 11,0 21,8 30,23zm699 124l96 187c14,23 21,39 21,47 0,7 -12,17 -35,30 -16,9 -27,14 -33,14 -9,0 -18,-9 -26,-28l-109 -208c-8,-15 -12,-25 -12,-31 0,-9 10,-19 30,-30 16,-9 28,-14 35,-14 8,0 19,11 32,33z"/>
 </g>
</svg>
