<?xml version="1.0" encoding="UTF-8"?>
<!DOCTYPE svg PUBLIC "-//W3C//DTD SVG 1.1//EN" "http://www.w3.org/Graphics/SVG/1.1/DTD/svg11.dtd">
<!-- Creator: CorelDRAW X5 -->
<svg xmlns="http://www.w3.org/2000/svg" xml:space="preserve" width="40mm" height="40mm" style="shape-rendering:geometricPrecision; text-rendering:geometricPrecision; image-rendering:optimizeQuality; fill-rule:evenodd; clip-rule:evenodd"
viewBox="0 0 4000 4000"
 xmlns:xlink="http://www.w3.org/1999/xlink">
 <defs>
  <style type="text/css">
   <![CDATA[
    .str0 {stroke:#FEFEFE;stroke-width:7.62}
    .fil2 {fill:#FEFEFE}
    .fil0 {fill:#963D3A}
    .fil1 {fill:#FEFEFE;fill-rule:nonzero}
   ]]>
  </style>
 </defs>
 <g id="图层_x0020_1">
  <metadata id="CorelCorpID_0Corel-Layer"/>
  <path class="fil0" d="M950 699l1947 0c94,0 170,76 170,168l0 1777c0,93 -77,168 -170,168l-1947 0c-94,0 -170,-76 -170,-168l0 -1777c0,-93 77,-168 170,-168z"/>
  <g>
   <path class="fil1" d="M2829 791l-1812 0 0 -37 1812 0 0 0 0 37zm177 138l-37 0 0 0 0 -7 -1 -7 -1 -7 -1 -7 -2 -7 -2 -7 -2 -6 -3 -6 -3 -6 -3 -6 -3 -6 -4 -6 -4 -5 -4 -5 -4 -5 -5 -5 -5 -5 -5 -4 -5 -4 -6 -4 -6 -4 -6 -3 -6 -3 -6 -3 -6 -2 -6 -2 -7 -2 -7 -2 -7 -1 -7 -1 -7 -1 -7 0 0 -37 9 0 9 1 9 1 9 2 9 2 8 2 8 3 8 3 8 4 8 4 7 4 7 5 7 5 7 5 6 6 6 6 6 6 6 6 5 7 5 7 5 7 4 7 4 8 4 8 3 8 3 8 2 8 2 8 2 9 1 9 1 9 0 9 0 0zm-37 1653l0 -1653 37 0 0 1653 0 0 -37 0zm-140 175l0 -37 0 0 7 0 7 -1 7 -1 7 -1 7 -2 7 -2 6 -2 6 -2 6 -3 6 -3 6 -3 6 -4 5 -4 5 -4 5 -4 5 -5 5 -5 4 -5 4 -5 4 -5 4 -6 3 -6 3 -6 3 -6 3 -6 2 -6 2 -7 2 -7 1 -7 1 -7 1 -7 0 -7 37 0 0 9 -1 9 -1 9 -2 9 -2 8 -2 8 -3 8 -3 8 -4 8 -4 8 -4 7 -5 7 -5 7 -5 7 -6 6 -6 6 -6 6 -6 5 -7 5 -7 5 -7 5 -7 4 -8 4 -8 4 -8 3 -8 3 -8 2 -9 2 -9 2 -9 1 -9 1 -9 0 0 0zm-1812 -37l1812 0 0 37 -1812 0 0 0 0 -37zm-177 -138l37 0 0 0 0 7 1 7 1 7 1 7 2 7 2 7 2 6 3 6 3 6 3 6 3 6 4 6 4 5 4 5 4 5 5 5 5 5 5 4 5 4 5 4 6 4 6 3 6 3 6 3 6 2 6 2 7 2 7 2 7 1 7 1 7 1 7 0 0 37 -9 0 -9 -1 -9 -1 -9 -2 -9 -2 -8 -2 -8 -3 -8 -3 -8 -4 -8 -4 -7 -4 -7 -5 -7 -5 -7 -5 -6 -6 -6 -6 -6 -6 -6 -6 -5 -7 -5 -7 -5 -7 -4 -7 -4 -8 -4 -8 -3 -8 -3 -8 -2 -8 -2 -8 -2 -9 -1 -9 -1 -9 0 -9 0 0zm37 -1653l0 1653 -37 0 0 -1653 0 0 37 0zm140 -175l0 37 0 0 -7 0 -7 1 -7 1 -7 1 -7 2 -7 2 -6 2 -6 2 -6 3 -6 3 -6 3 -6 4 -5 4 -5 4 -5 4 -5 5 -5 5 -4 5 -4 5 -4 5 -4 6 -3 6 -3 6 -3 6 -3 6 -2 6 -2 7 -2 7 -1 7 -1 7 -1 7 0 7 -37 0 0 -9 1 -9 1 -9 2 -9 2 -8 2 -8 3 -8 3 -8 4 -8 4 -8 4 -7 5 -7 5 -7 5 -7 6 -6 6 -6 6 -6 6 -6 7 -5 7 -5 7 -5 7 -4 8 -4 8 -4 8 -3 8 -3 8 -2 9 -2 9 -2 9 -1 9 -1 9 0 0 0z"/>
  </g>
  <path class="fil2" d="M1813 2221c-35,-7 -68,-14 -101,-19 0,-3 0,-5 0,-8 -89,-27 -147,-41 -226,-47 0,3 0,5 0,10 -135,29 -135,29 -180,43 -71,0 -137,-5 -200,-15 0,-4 0,-7 0,-10 -42,-7 -42,-7 -139,-36 0,-16 0,-32 0,-47 80,4 148,38 239,62 135,0 279,-53 423,-37 74,19 148,44 233,55 49,-8 173,-45 262,-63 136,5 262,56 402,36 67,-23 121,-44 198,-52 0,12 0,25 0,37 -104,26 -115,34 -129,37 0,4 0,8 0,14 -65,10 -114,18 -172,19 -110,-12 -210,-66 -305,-43 0,-4 0,-7 0,-10 -60,14 -100,16 -147,47 0,3 0,5 0,8 -55,7 -111,18 -158,19zm24 -151c-101,-18 -194,-52 -277,-71 -115,0 -194,25 -296,49 -105,0 -210,-32 -297,-66 -1,-12 -1,-25 -1,-37 53,-26 193,40 265,58 126,-7 254,-58 394,-41 71,18 162,55 254,55 86,-25 178,-47 265,-64 107,15 223,47 345,47 80,-22 151,-51 240,-62 0,10 0,21 0,32 -29,7 -58,15 -87,23 0,3 0,5 0,10 -6,0 -10,0 -14,0 0,3 0,5 0,8 -46,11 -90,22 -135,34 -169,0 -305,-67 -462,-34 0,3 0,5 0,10 -6,0 -10,0 -14,0 0,3 0,5 0,10 -12,-3 -12,-3 -46,4 0,3 0,5 0,10 -93,19 -103,25 -135,27zm-10 -143c-19,-19 -115,-14 -129,-34 -99,-30 -150,-41 -240,-37 -139,37 -139,37 -219,51 -96,-11 -187,-44 -265,-64 -14,-21 -8,-33 -7,-47 68,0 130,32 211,56 137,15 275,-37 419,-37 72,18 144,36 216,55 126,0 237,-59 370,-59 118,19 211,52 341,37 60,-21 128,-55 201,-55 0,16 0,16 -8,36 -79,21 -157,59 -233,74 -123,0 -243,-38 -348,-51 -108,16 -208,59 -309,75zm-36 -137c-61,-14 -248,-74 -319,-55 0,-3 0,-5 0,-8 -62,10 -161,48 -210,41 -7,-37 -6,-40 15,-69 171,-7 341,-12 513,-18l319 -358c18,-28 85,-40 125,0 91,51 186,156 273,191 35,112 -57,72 -57,66l-275 -177c-21,18 -94,124 -94,140 -10,0 -10,0 -10,5 3,0 6,0 10,0 0,17 196,156 240,186 0,4 0,8 0,14 -74,-12 -164,-30 -226,-34 -65,19 -130,38 -194,58 0,3 0,5 0,10 -37,3 -75,5 -111,8z"/>
  <ellipse class="fil2 str0" cx="1715" cy="1450" rx="109" ry="107"/>
 </g>
</svg>
