<?xml version="1.0" encoding="UTF-8"?>
<!DOCTYPE svg PUBLIC "-//W3C//DTD SVG 1.1//EN" "http://www.w3.org/Graphics/SVG/1.1/DTD/svg11.dtd">
<!-- Creator: CorelDRAW X5 -->
<svg xmlns="http://www.w3.org/2000/svg" xml:space="preserve" width="40mm" height="40mm" style="shape-rendering:geometricPrecision; text-rendering:geometricPrecision; image-rendering:optimizeQuality; fill-rule:evenodd; clip-rule:evenodd"
viewBox="0 0 4000 4000"
 xmlns:xlink="http://www.w3.org/1999/xlink">
 <defs>
  <style type="text/css">
   <![CDATA[
    .fil2 {fill:#FEFEFE}
    .fil0 {fill:#963D3A}
    .fil1 {fill:#FEFEFE;fill-rule:nonzero}
   ]]>
  </style>
 </defs>
 <g id="图层_x0020_1">
  <metadata id="CorelCorpID_0Corel-Layer"/>
  <path class="fil0" d="M1023 1072l1947 0c94,0 170,76 170,168l0 1777c0,93 -77,168 -170,168l-1947 0c-94,0 -170,-76 -170,-168l0 -1777c0,-93 77,-168 170,-168z"/>
  <g>
   <path class="fil1" d="M2903 1164l-1812 0 0 -37 1812 0 0 0 0 37zm177 138l-37 0 0 0 0 -7 -1 -7 -1 -7 -1 -7 -2 -7 -2 -7 -2 -6 -3 -6 -3 -6 -3 -6 -3 -6 -4 -6 -4 -5 -4 -5 -4 -5 -5 -5 -5 -5 -5 -4 -5 -4 -5 -4 -6 -4 -6 -3 -6 -3 -6 -3 -6 -2 -6 -2 -7 -2 -7 -2 -7 -1 -7 -1 -7 -1 -7 0 0 -37 9 0 9 1 9 1 9 2 9 2 8 2 8 3 8 3 8 4 8 4 7 4 7 5 7 5 7 5 6 6 6 6 6 6 6 6 5 7 5 7 5 7 4 7 4 8 4 8 3 8 3 8 2 8 2 8 2 9 1 9 1 9 0 9 0 0zm-37 1653l0 -1653 37 0 0 1653 0 0 -37 0zm-140 175l0 -37 0 0 7 0 7 -1 7 -1 7 -1 7 -2 7 -2 6 -2 6 -2 6 -3 6 -3 6 -3 6 -4 5 -4 5 -4 5 -4 5 -5 5 -5 4 -5 4 -5 4 -5 4 -6 3 -6 3 -6 3 -6 3 -6 2 -6 2 -7 2 -7 1 -7 1 -7 1 -7 0 -7 37 0 0 9 -1 9 -1 9 -2 9 -2 8 -2 8 -3 8 -3 8 -4 8 -4 8 -4 7 -5 7 -5 7 -5 7 -6 6 -6 6 -6 6 -6 6 -7 5 -7 5 -7 5 -7 4 -8 4 -8 4 -8 3 -8 3 -8 2 -9 2 -9 2 -9 1 -9 1 -9 0 0 0zm-1812 -37l1812 0 0 37 -1812 0 0 0 0 -37zm-177 -138l37 0 0 0 0 7 1 7 1 7 1 7 2 7 2 7 2 6 3 6 3 6 3 6 3 6 4 6 4 5 4 5 4 5 5 5 5 5 5 4 5 4 6 4 6 4 6 3 6 3 6 3 6 2 6 2 7 2 7 2 7 1 7 1 7 1 7 0 0 37 -9 0 -9 -1 -9 -1 -9 -2 -9 -2 -8 -2 -8 -3 -8 -3 -8 -4 -8 -4 -7 -4 -7 -5 -7 -5 -7 -5 -6 -6 -6 -6 -6 -6 -6 -6 -5 -7 -5 -7 -5 -7 -4 -7 -4 -8 -4 -8 -3 -8 -3 -8 -2 -8 -2 -8 -2 -9 -1 -9 -1 -9 0 -9 0 0zm37 -1653l0 1653 -37 0 0 -1653 0 0 37 0zm140 -175l0 37 0 0 -7 0 -7 1 -7 1 -7 1 -7 2 -7 2 -6 2 -6 2 -6 3 -6 3 -6 3 -6 4 -6 4 -5 4 -5 4 -5 5 -5 5 -4 5 -4 5 -4 5 -4 6 -3 6 -3 6 -3 6 -3 6 -2 6 -2 7 -2 7 -1 7 -1 7 -1 7 0 7 -37 0 0 -9 1 -9 1 -9 2 -9 2 -8 2 -8 3 -8 3 -8 4 -8 4 -8 4 -7 5 -7 5 -7 5 -7 6 -6 6 -6 6 -6 6 -6 7 -5 7 -5 7 -5 7 -4 8 -4 8 -4 8 -3 8 -3 8 -2 9 -2 9 -2 9 -1 9 -1 9 0 0 0z"/>
  </g>
  <path class="fil2" d="M1499 2521c-50,-43 -75,-120 -115,-149 -54,-4 -107,-6 -160,-9 -65,-74 -84,-117 -77,-204 57,-102 153,-29 245,11 0,10 0,20 0,32 -38,0 -77,0 -114,1 0,24 -1,47 13,82 69,24 120,25 170,83 1,-5 3,-9 5,-13 366,-54 736,-124 1113,-166 -1,8 -3,16 -4,25 -84,14 -217,15 -286,44 -124,10 -241,42 -355,50 -115,30 -227,24 -338,58 -51,0 -82,9 -126,21 19,29 102,108 28,132zm481 -20c-18,-3 -34,-4 -51,-5 0,-39 71,-134 92,-169 4,-1 9,-3 14,-3 6,11 96,148 89,169 -26,5 -26,5 -144,8zm-769 -81c-3,-19 -3,-19 3,-30 45,-10 110,-5 168,-5 0,3 1,6 3,10 -60,11 -121,16 -174,25zm1360 -50c-15,-71 22,-132 40,-193 40,-34 80,-68 121,-102 -4,-25 -6,-49 -9,-73 -29,-9 -96,16 -115,21 -4,-6 -8,-11 -10,-16 28,-43 87,-79 126,-113 66,-20 91,-10 117,55 4,74 4,74 0,77 0,33 -15,72 -34,107 -50,15 -100,32 -148,48 -22,44 -38,121 -45,185 -15,1 -29,3 -43,4zm111 -177c0,-4 1,-8 3,-10 52,-21 100,-32 163,-32 -1,5 -3,10 -3,15 -55,24 -116,23 -163,26zm-1471 -108c-108,-61 6,-178 69,-95 3,15 5,30 9,45 -4,1 -6,3 -9,4 -1,5 -1,10 -1,15 -18,0 -42,26 -68,30zm1497 -227c-129,-38 -6,-187 63,-84 0,43 -14,73 -63,84z"/>
 </g>
</svg>
