<?xml version="1.0" encoding="UTF-8"?>
<!DOCTYPE svg PUBLIC "-//W3C//DTD SVG 1.1//EN" "http://www.w3.org/Graphics/SVG/1.1/DTD/svg11.dtd">
<!-- Creator: CorelDRAW X5 -->
<svg xmlns="http://www.w3.org/2000/svg" xml:space="preserve" width="40mm" height="40mm" style="shape-rendering:geometricPrecision; text-rendering:geometricPrecision; image-rendering:optimizeQuality; fill-rule:evenodd; clip-rule:evenodd"
viewBox="0 0 4000 4000"
 xmlns:xlink="http://www.w3.org/1999/xlink">
 <defs>
  <style type="text/css">
   <![CDATA[
    .fil2 {fill:#FEFEFE}
    .fil0 {fill:#963D3A}
    .fil1 {fill:#FEFEFE;fill-rule:nonzero}
   ]]>
  </style>
 </defs>
 <g id="图层_x0020_1">
  <metadata id="CorelCorpID_0Corel-Layer"/>
  <path class="fil0" d="M1058 842l1947 0c94,0 170,76 170,168l0 1777c0,93 -77,168 -170,168l-1947 0c-94,0 -170,-76 -170,-168l0 -1777c0,-93 77,-168 170,-168z"/>
  <g>
   <path class="fil1" d="M2938 934l-1812 0 0 -37 1812 0 0 0 0 37zm177 138l-37 0 0 0 0 -7 -1 -7 -1 -7 -1 -7 -2 -7 -2 -7 -2 -6 -3 -6 -3 -6 -3 -6 -3 -6 -4 -6 -4 -5 -4 -5 -4 -5 -5 -5 -5 -5 -5 -4 -5 -4 -5 -4 -6 -4 -6 -3 -6 -3 -6 -3 -6 -2 -6 -2 -7 -2 -7 -2 -7 -1 -7 -1 -7 -1 -7 0 0 -37 9 0 9 1 9 1 9 2 9 2 8 2 8 3 8 3 8 4 8 4 7 4 7 5 7 5 7 5 6 6 6 6 6 6 6 6 5 7 5 7 5 7 4 7 4 8 4 8 3 8 3 8 2 8 2 8 2 9 1 9 1 9 0 9 0 0zm-37 1653l0 -1653 37 0 0 1653 0 0 -37 0zm-140 175l0 -37 0 0 7 0 7 -1 7 -1 7 -1 7 -2 7 -2 6 -2 6 -2 6 -3 6 -3 6 -3 6 -4 5 -4 5 -4 5 -4 5 -5 5 -5 4 -5 4 -5 4 -5 4 -6 3 -6 3 -6 3 -6 3 -6 2 -6 2 -7 2 -7 1 -7 1 -7 1 -7 0 -7 37 0 0 9 -1 9 -1 9 -2 9 -2 8 -2 8 -3 8 -3 8 -4 8 -4 8 -4 7 -5 7 -5 7 -5 7 -6 6 -6 6 -6 6 -6 6 -7 5 -7 5 -7 5 -7 4 -8 4 -8 4 -8 3 -8 3 -8 2 -9 2 -9 2 -9 1 -9 1 -9 0 0 0zm-1812 -37l1812 0 0 37 -1812 0 0 0 0 -37zm-177 -138l37 0 0 0 0 7 1 7 1 7 1 7 2 7 2 7 2 6 3 6 3 6 3 6 3 6 4 6 4 5 4 5 4 5 5 5 5 5 5 4 5 4 5 4 6 4 6 3 6 3 6 3 6 2 6 2 7 2 7 2 7 1 7 1 7 1 7 0 0 37 -9 0 -9 -1 -9 -1 -9 -2 -9 -2 -8 -2 -8 -3 -8 -3 -8 -4 -8 -4 -7 -4 -7 -5 -7 -5 -7 -5 -6 -5 -6 -6 -6 -6 -6 -6 -5 -7 -5 -7 -5 -7 -4 -7 -4 -8 -4 -8 -3 -8 -3 -8 -2 -8 -2 -8 -2 -9 -1 -9 -1 -9 0 -9 0 0zm37 -1653l0 1653 -37 0 0 -1653 0 0 37 0zm140 -175l0 37 0 0 -7 0 -7 1 -7 1 -7 1 -7 2 -7 2 -6 2 -6 2 -6 3 -6 3 -6 3 -6 4 -6 4 -5 4 -5 4 -5 5 -5 5 -4 5 -4 5 -4 5 -4 6 -3 6 -3 6 -3 6 -3 6 -2 6 -2 7 -2 7 -1 7 -1 7 -1 7 0 7 -37 0 0 -9 1 -9 1 -9 2 -9 2 -8 2 -8 3 -8 3 -8 4 -8 4 -8 4 -7 5 -7 5 -7 5 -7 6 -6 6 -6 6 -6 6 -6 7 -5 7 -5 7 -5 7 -4 8 -4 8 -4 8 -3 8 -3 8 -2 9 -2 9 -2 9 -1 9 -1 9 0 0 0z"/>
  </g>
  <path class="fil2" d="M2856 2129c-86,-61 -191,-143 -275,-187 -17,1 -86,-9 -174,-11 -72,-7 -142,-14 -213,-20 -43,-28 -16,-63 -1,-87 119,-17 249,-18 381,-23 65,67 131,135 197,203 16,37 93,57 85,125zm-1078 -47c-103,-54 -207,-107 -309,-159 0,-26 7,-28 19,-47 101,10 200,70 315,80 49,-23 264,-163 316,-112 -3,102 -4,75 -85,128 -40,9 -40,9 -68,21 -1,4 -1,9 -1,14 -72,14 -129,48 -187,75zm-388 -185c-62,-30 -122,-60 -183,-88 0,-6 1,-10 3,-14 138,-45 83,-40 210,58 0,10 1,20 3,30 -11,4 -23,9 -33,14zm1322 -43c-70,-18 -56,-30 -60,-85 22,-53 43,-53 103,-43 0,3 0,6 0,10 3,0 6,0 10,0 12,45 36,68 -23,112 -10,1 -20,3 -30,6zm-513 -75c-10,-9 -20,-16 -30,-23 0,-54 -4,-58 39,-75 50,0 298,-30 344,4 1,7 3,14 6,23 -20,17 -17,23 -22,47 -116,0 -227,6 -329,16 -3,3 -6,6 -7,9z"/>
 </g>
</svg>
