<?xml version="1.0" encoding="UTF-8"?>
<!DOCTYPE svg PUBLIC "-//W3C//DTD SVG 1.1//EN" "http://www.w3.org/Graphics/SVG/1.1/DTD/svg11.dtd">
<!-- Creator: CorelDRAW X5 -->
<svg xmlns="http://www.w3.org/2000/svg" xml:space="preserve" width="40mm" height="40mm" style="shape-rendering:geometricPrecision; text-rendering:geometricPrecision; image-rendering:optimizeQuality; fill-rule:evenodd; clip-rule:evenodd"
viewBox="0 0 4000 4000"
 xmlns:xlink="http://www.w3.org/1999/xlink">
 <defs>
  <style type="text/css">
   <![CDATA[
    .str0 {stroke:#FEFEFE;stroke-width:7.62}
    .fil2 {fill:#FEFEFE}
    .fil0 {fill:#963D3A}
    .fil1 {fill:#FEFEFE;fill-rule:nonzero}
   ]]>
  </style>
 </defs>
 <g id="图层_x0020_1">
  <metadata id="CorelCorpID_0Corel-Layer"/>
  <path class="fil0" d="M971 863l1947 0c94,0 170,76 170,168l0 1777c0,93 -77,168 -170,168l-1947 0c-94,0 -170,-76 -170,-168l0 -1777c0,-93 77,-168 170,-168z"/>
  <g>
   <path class="fil1" d="M2851 955l-1812 0 0 -37 1812 0 0 0 0 37zm177 138l-37 0 0 0 0 -7 -1 -7 -1 -7 -1 -7 -2 -7 -2 -7 -2 -6 -3 -6 -3 -6 -3 -6 -3 -6 -4 -6 -4 -5 -4 -5 -4 -5 -5 -5 -5 -5 -5 -4 -5 -4 -5 -4 -6 -4 -6 -3 -6 -3 -6 -3 -6 -2 -6 -2 -7 -2 -7 -2 -7 -1 -7 -1 -7 -1 -7 0 0 -37 9 0 9 1 9 1 9 2 9 2 8 2 8 3 8 3 8 4 8 4 7 4 7 5 7 5 7 5 6 6 6 6 6 6 6 6 5 7 5 7 5 7 4 7 4 8 4 8 3 8 3 8 2 8 2 8 2 9 1 9 1 9 0 9 0 0zm-37 1653l0 -1653 37 0 0 1653 0 0 -37 0zm-140 175l0 -37 0 0 7 0 7 -1 7 -1 7 -1 7 -2 7 -2 6 -2 6 -2 6 -3 6 -3 6 -3 6 -4 5 -4 5 -4 5 -4 5 -5 5 -5 4 -5 4 -5 4 -5 4 -6 3 -6 3 -6 3 -6 3 -6 2 -6 2 -7 2 -7 1 -7 1 -7 1 -7 0 -7 37 0 0 9 -1 9 -1 9 -2 9 -2 8 -2 8 -3 8 -3 8 -4 8 -4 8 -4 7 -5 7 -5 7 -5 7 -6 6 -6 6 -6 6 -6 6 -7 5 -7 5 -7 5 -7 4 -8 4 -8 4 -8 3 -8 3 -8 2 -9 2 -9 2 -9 1 -9 1 -9 0 0 0zm-1812 -37l1812 0 0 37 -1812 0 0 0 0 -37zm-177 -138l37 0 0 0 0 7 1 7 1 7 1 7 2 7 2 7 2 6 3 6 3 6 3 6 3 6 4 6 4 5 4 5 4 5 5 5 5 5 5 4 5 4 5 4 6 4 6 3 6 3 6 3 6 2 6 2 7 2 7 2 7 1 7 1 7 1 7 0 0 37 -9 0 -9 -1 -9 -1 -9 -2 -9 -2 -8 -2 -8 -3 -8 -3 -8 -4 -8 -4 -7 -4 -7 -5 -7 -5 -7 -5 -6 -5 -6 -6 -6 -6 -6 -6 -5 -7 -5 -7 -5 -7 -4 -7 -4 -8 -4 -8 -3 -8 -3 -8 -2 -8 -2 -8 -2 -9 -1 -9 -1 -9 0 -9 0 0zm37 -1653l0 1653 -37 0 0 -1653 0 0 37 0zm140 -175l0 37 0 0 -7 0 -7 1 -7 1 -7 1 -7 2 -7 2 -6 2 -6 2 -6 3 -6 3 -6 3 -6 4 -6 4 -5 4 -5 4 -5 5 -5 5 -4 5 -4 5 -4 5 -4 6 -3 6 -3 6 -3 6 -3 6 -2 6 -2 7 -2 7 -1 7 -1 7 -1 7 0 7 -37 0 0 -9 1 -9 1 -9 2 -9 2 -8 2 -8 3 -8 3 -8 4 -8 4 -8 4 -7 5 -7 5 -7 5 -7 6 -6 6 -6 6 -6 6 -6 7 -5 7 -5 7 -5 7 -4 8 -4 8 -4 8 -3 8 -3 8 -2 9 -2 9 -2 9 -1 9 -1 9 0 0 0z"/>
  </g>
  <path class="fil2 str0" d="M1494 2070l393 0 0 -169 43 0 0 169 393 0 0 501 -830 0 0 -501zm70 81l695 0 0 162 -695 0 0 -162z"/>
  <path class="fil2 str0" d="M1075 1997c730,-16 1272,-323 1607,-949l-48 0c-318,542 -810,873 -1559,897l0 52z"/>
  <g>
   <path class="fil1" d="M1898 1658l-21 -30 4 -2 5 -2 5 -1 5 -1 5 -1 5 -1 5 0 5 0 5 0 5 1 5 1 5 1 4 2 4 2 4 2 4 3 4 3 4 3 3 3 3 4 3 4 3 4 3 4 3 4 3 4 2 5 2 5 2 5 2 5 2 5 2 5 2 6 2 6 -36 10 -1 -5 -1 -5 -2 -5 -2 -4 -2 -4 -2 -4 -2 -4 -2 -3 -2 -3 -2 -3 -2 -3 -2 -3 -2 -2 -2 -2 -2 -2 -2 -2 -2 -1 -2 -1 -2 -1 -2 -1 -2 -1 -2 -1 -2 0 -2 0 -2 0 -2 0 -3 0 -3 0 -3 1 -3 1 -3 1 -3 1 4 -2zm-21 -30l2 -1 2 -1 -4 2zm29 122l-12 34 -4 -2 -6 -4 -6 -4 -6 -4 -5 -4 -5 -4 -5 -5 -4 -5 -4 -5 -4 -5 -3 -5 -3 -5 -3 -5 -2 -5 -2 -5 -1 -5 -1 -5 0 -6 0 -6 1 -6 1 -5 2 -5 2 -5 3 -5 3 -5 3 -5 4 -5 4 -5 4 -4 5 -4 5 -4 5 -4 6 -4 21 30 -5 3 -4 3 -4 3 -4 3 -3 3 -3 3 -2 3 -2 3 -2 3 -1 3 -1 2 -1 2 -1 2 0 2 0 2 0 2 0 2 1 2 1 2 1 3 1 3 2 3 2 3 3 3 3 3 3 3 4 3 4 4 4 4 5 4 5 4 6 4 -4 -2zm-12 34l-2 -1 -2 -1 4 2zm83 106l-22 -29 -6 7 2 -4 1 -4 1 -3 1 -3 1 -3 1 -3 0 -3 0 -3 0 -3 0 -3 0 -3 -1 -2 -1 -2 -1 -2 -1 -2 -1 -2 -1 -2 -2 -2 -2 -2 -2 -2 -2 -2 -3 -2 -3 -2 -3 -2 -4 -2 -4 -2 -4 -2 -5 -2 -5 -2 -5 -2 -6 -2 -6 -2 12 -34 7 3 7 3 6 3 6 3 6 3 5 3 5 3 5 3 5 3 4 4 4 4 4 4 4 4 3 4 3 4 3 4 2 5 2 5 2 5 1 5 1 5 1 5 0 5 0 5 0 5 -1 5 -1 5 -1 5 -1 5 -2 5 -2 5 -2 5 -6 7zm6 -7l-2 4 -4 3 6 -7zm-157 -37l36 -10 2 5 2 5 2 4 2 4 2 4 2 3 2 3 2 3 2 3 2 2 2 2 2 2 2 2 2 1 2 1 2 1 3 1 3 1 3 0 3 0 3 0 3 0 4 -1 4 -1 4 -1 4 -1 4 -2 5 -2 5 -3 5 -3 5 -3 5 -4 22 29 -6 4 -6 4 -6 4 -6 3 -6 3 -6 3 -6 2 -6 2 -6 1 -6 1 -6 1 -6 0 -6 0 -6 -1 -6 -1 -5 -2 -5 -2 -5 -2 -5 -3 -5 -3 -4 -3 -4 -4 -4 -4 -4 -4 -3 -5 -3 -5 -3 -5 -3 -5 -3 -6 -2 -6 -2 -6 -2 -6z"/>
  </g>
 </g>
</svg>
