<?xml version="1.0" encoding="UTF-8"?>
<!DOCTYPE svg PUBLIC "-//W3C//DTD SVG 1.1//EN" "http://www.w3.org/Graphics/SVG/1.1/DTD/svg11.dtd">
<!-- Creator: CorelDRAW X5 -->
<svg xmlns="http://www.w3.org/2000/svg" xml:space="preserve" width="40mm" height="40mm" style="shape-rendering:geometricPrecision; text-rendering:geometricPrecision; image-rendering:optimizeQuality; fill-rule:evenodd; clip-rule:evenodd"
viewBox="0 0 4000 4000"
 xmlns:xlink="http://www.w3.org/1999/xlink">
 <defs>
  <style type="text/css">
   <![CDATA[
    .fil2 {fill:#FEFEFE}
    .fil0 {fill:#963D3A}
    .fil1 {fill:#FEFEFE;fill-rule:nonzero}
   ]]>
  </style>
 </defs>
 <g id="图层_x0020_1">
  <metadata id="CorelCorpID_0Corel-Layer"/>
  <path class="fil0" d="M1026 819l1947 0c94,0 170,76 170,168l0 1777c0,93 -77,168 -170,168l-1947 0c-94,0 -170,-76 -170,-168l0 -1777c0,-93 77,-168 170,-168z"/>
  <g>
   <path class="fil1" d="M2905 911l-1812 0 0 -37 1812 0 0 0 0 37zm177 138l-37 0 0 0 0 -7 -1 -7 -1 -7 -1 -7 -2 -7 -2 -7 -2 -6 -3 -6 -3 -6 -3 -6 -3 -6 -4 -6 -4 -5 -4 -5 -4 -5 -5 -5 -5 -5 -5 -4 -5 -4 -6 -4 -6 -4 -6 -3 -6 -3 -6 -3 -6 -2 -6 -2 -7 -2 -7 -2 -7 -1 -7 -1 -7 -1 -7 0 0 -37 9 0 9 1 9 1 9 2 9 2 8 2 8 3 8 3 8 4 8 4 7 4 7 5 7 5 7 5 6 6 6 6 6 6 6 6 5 7 5 7 5 7 4 7 4 8 4 8 3 8 3 8 2 8 2 8 2 9 1 9 1 9 0 9 0 0zm-37 1653l0 -1653 37 0 0 1653 0 0 -37 0zm-140 175l0 -37 0 0 7 0 7 -1 7 -1 7 -1 7 -2 7 -2 6 -2 6 -2 6 -3 6 -3 6 -3 6 -4 6 -4 5 -4 5 -4 5 -5 5 -5 4 -5 4 -5 4 -5 4 -6 3 -6 3 -6 3 -6 3 -6 2 -6 2 -7 2 -7 1 -7 1 -7 1 -7 0 -7 37 0 0 9 -1 9 -1 9 -2 9 -2 8 -2 8 -3 8 -3 8 -4 8 -4 8 -4 7 -5 7 -5 7 -5 7 -6 6 -6 6 -6 6 -6 6 -7 5 -7 5 -7 5 -7 4 -8 4 -8 4 -8 3 -8 3 -8 2 -9 2 -9 2 -9 1 -9 1 -9 0 0 0zm-1812 -37l1812 0 0 37 -1812 0 0 0 0 -37zm-177 -138l37 0 0 0 0 7 1 7 1 7 1 7 2 7 2 7 2 6 3 6 3 6 3 6 3 6 4 6 4 5 4 5 4 5 5 5 5 5 5 4 5 4 5 4 6 4 6 3 6 3 6 3 6 2 6 2 7 2 7 2 7 1 7 1 7 1 7 0 0 37 -9 0 -9 -1 -9 -1 -9 -2 -9 -2 -8 -2 -8 -3 -8 -3 -8 -4 -8 -4 -7 -4 -7 -5 -7 -5 -7 -5 -6 -6 -6 -6 -6 -6 -6 -6 -5 -7 -5 -7 -5 -7 -4 -7 -4 -8 -4 -8 -3 -8 -3 -8 -2 -8 -2 -8 -2 -9 -1 -9 -1 -9 0 -9 0 0zm37 -1653l0 1653 -37 0 0 -1653 0 0 37 0zm140 -175l0 37 0 0 -7 0 -7 1 -7 1 -7 1 -7 2 -7 2 -6 2 -6 2 -6 3 -6 3 -6 3 -6 4 -5 4 -5 4 -5 4 -5 5 -5 5 -4 5 -4 5 -4 5 -4 6 -3 6 -3 6 -3 6 -3 6 -2 6 -2 7 -2 7 -1 7 -1 7 -1 7 0 7 -37 0 0 -9 1 -9 1 -9 2 -9 2 -8 2 -8 3 -8 3 -8 4 -8 4 -8 4 -7 5 -7 5 -7 5 -7 6 -6 6 -6 6 -6 6 -6 7 -5 7 -5 7 -5 7 -4 8 -4 8 -4 8 -3 8 -3 8 -2 9 -2 9 -2 9 -1 9 -1 9 0 0 0z"/>
  </g>
  <path class="fil2" d="M1446 2568c-36,-42 -45,-89 -20,-126 11,0 23,0 35,0 33,44 8,61 8,123 -8,0 -16,1 -23,3zm88 -21c-16,-79 -16,-79 -15,-103 80,-22 142,-37 234,-37 60,20 120,40 182,61 0,3 0,5 0,8 -139,8 -276,61 -401,71zm995 -32c0,-16 0,-32 0,-48 -4,-1 -8,-3 -11,-4 0,-57 7,-73 64,-67 1,24 3,48 4,71 -4,0 -7,0 -9,0 -5,11 -9,22 -13,34 -5,0 -9,0 -13,0 0,3 0,5 0,9 -8,1 -15,3 -21,4zm-116 -21c-12,-8 -37,-12 -40,-16 -128,-22 -258,-37 -376,-71 -27,-1 -54,-3 -79,-3 -112,-26 -207,-53 -308,-57 -27,-11 -52,-21 -78,-30 -12,-173 50,-119 175,-77 66,-4 128,22 199,48 288,36 288,36 361,49 64,17 142,40 221,52 -12,37 -28,49 -23,93 -4,0 -8,0 -12,0 -1,4 -1,8 -1,13 -29,-4 -29,-4 -40,0zm-58 -155c-84,-36 -174,-42 -253,-61 0,-3 0,-5 0,-8 296,-75 296,-75 320,-77 1,20 11,52 15,120 -60,19 -74,19 -82,25zm-375 -123c-131,-184 -157,-336 -142,-551 20,-111 75,-189 143,-270 13,-89 -1,-141 -33,-210 202,37 223,194 217,383 -5,22 -11,34 -7,66 -4,0 -8,0 -12,0 -8,36 -8,36 -5,53 -5,0 -9,1 -13,3 0,20 -47,91 -60,114 -20,50 -40,100 -59,151 -5,41 -9,83 -13,126 -4,3 -4,3 -7,136 -3,0 -5,0 -8,0zm-147 -9c-177,-46 -262,-168 -262,-332 36,-114 37,-182 21,-294 28,0 71,86 86,118 25,167 20,349 165,492 0,4 0,8 0,13 -4,0 -7,1 -9,3zm276 -26c-5,-1 -9,-3 -13,-4 43,-82 43,-82 167,-292 41,-111 75,-213 86,-324 -8,-40 -16,-78 -23,-116 36,0 98,44 122,89 23,95 12,196 12,300 -12,30 -51,89 -43,123 -4,-1 -8,-3 -11,-3 -9,16 -9,16 -11,38 -4,-1 -8,-3 -12,-3 -58,103 -163,169 -274,192z"/>
 </g>
</svg>
