<?xml version="1.0" encoding="UTF-8"?>
<!DOCTYPE svg PUBLIC "-//W3C//DTD SVG 1.1//EN" "http://www.w3.org/Graphics/SVG/1.1/DTD/svg11.dtd">
<!-- Creator: CorelDRAW X5 -->
<svg xmlns="http://www.w3.org/2000/svg" xml:space="preserve" width="40mm" height="40mm" style="shape-rendering:geometricPrecision; text-rendering:geometricPrecision; image-rendering:optimizeQuality; fill-rule:evenodd; clip-rule:evenodd"
viewBox="0 0 4000 4000"
 xmlns:xlink="http://www.w3.org/1999/xlink">
 <defs>
  <style type="text/css">
   <![CDATA[
    .fil2 {fill:#FEFEFE}
    .fil0 {fill:#963D3A}
    .fil1 {fill:#FEFEFE;fill-rule:nonzero}
   ]]>
  </style>
 </defs>
 <g id="图层_x0020_1">
  <metadata id="CorelCorpID_0Corel-Layer"/>
  <path class="fil0" d="M1179 968l1947 0c94,0 170,76 170,168l0 1777c0,93 -77,168 -170,168l-1947 0c-94,0 -170,-76 -170,-168l0 -1777c0,-93 77,-168 170,-168z"/>
  <g>
   <path class="fil1" d="M3058 1060l-1812 0 0 -37 1812 0 0 0 0 37zm177 138l-37 0 0 0 0 -7 -1 -7 -1 -7 -1 -7 -2 -7 -2 -7 -2 -6 -3 -6 -3 -6 -3 -6 -3 -6 -4 -6 -4 -5 -4 -5 -4 -5 -5 -5 -5 -5 -5 -4 -5 -4 -5 -4 -6 -4 -6 -3 -6 -3 -6 -3 -6 -2 -6 -2 -7 -2 -7 -2 -7 -1 -7 -1 -7 -1 -7 0 0 -37 9 0 9 1 9 1 9 2 9 2 8 2 8 3 8 3 8 4 8 4 7 4 7 5 7 5 7 5 6 6 6 6 6 6 6 6 5 7 5 7 5 7 4 7 4 8 4 8 3 8 3 8 2 8 2 8 2 9 1 9 1 9 0 9 0 0zm-37 1653l0 -1653 37 0 0 1653 0 0 -37 0zm-140 175l0 -37 0 0 7 0 7 -1 7 -1 7 -1 7 -2 7 -2 6 -2 6 -2 6 -3 6 -3 6 -3 6 -4 5 -4 5 -4 5 -4 5 -5 5 -5 4 -5 4 -5 4 -5 4 -6 3 -6 3 -6 3 -6 3 -6 2 -6 2 -7 2 -7 1 -7 1 -7 1 -7 0 -7 37 0 0 9 -1 9 -1 9 -2 9 -2 8 -2 8 -3 8 -3 8 -4 8 -4 8 -4 7 -5 7 -5 7 -5 7 -6 6 -6 6 -6 6 -6 6 -7 5 -7 5 -7 5 -7 4 -8 4 -8 4 -8 3 -8 3 -8 2 -9 2 -9 2 -9 1 -9 1 -9 0 0 0zm-1812 -37l1812 0 0 37 -1812 0 0 0 0 -37zm-177 -138l37 0 0 0 0 7 1 7 1 7 1 7 2 7 2 7 2 6 3 6 3 6 3 6 3 6 4 6 4 5 4 5 4 5 5 5 5 5 5 4 5 4 6 4 6 4 6 3 6 3 6 3 6 2 6 2 7 2 7 2 7 1 7 1 7 1 7 0 0 37 -9 0 -9 -1 -9 -1 -9 -2 -9 -2 -8 -2 -8 -3 -8 -3 -8 -4 -8 -4 -7 -4 -7 -5 -7 -5 -7 -5 -6 -6 -6 -6 -6 -6 -6 -6 -5 -7 -5 -7 -5 -7 -4 -7 -4 -8 -4 -8 -3 -8 -3 -8 -2 -8 -2 -8 -2 -9 -1 -9 -1 -9 0 -9 0 0zm37 -1653l0 1653 -37 0 0 -1653 0 0 37 0zm140 -175l0 37 0 0 -7 0 -7 1 -7 1 -7 1 -7 2 -7 2 -6 2 -6 2 -6 3 -6 3 -6 3 -6 4 -6 4 -5 4 -5 4 -5 5 -5 5 -4 5 -4 5 -4 5 -4 6 -3 6 -3 6 -3 6 -3 6 -2 6 -2 7 -2 7 -1 7 -1 7 -1 7 0 7 -37 0 0 -9 1 -9 1 -9 2 -9 2 -8 2 -8 3 -8 3 -8 4 -8 4 -8 4 -7 5 -7 5 -7 5 -7 6 -6 6 -6 6 -6 6 -6 7 -5 7 -5 7 -5 7 -4 8 -4 8 -4 8 -3 8 -3 8 -2 9 -2 9 -2 9 -1 9 -1 9 0 0 0z"/>
  </g>
  <path class="fil2" d="M1476 2689l168 0 547 -1243 640 1241 90 3 0 54 -1444 0 0 -54zm952 -34l-486 0 241 -566 246 566z"/>
 </g>
</svg>
