<?xml version="1.0" encoding="UTF-8"?>
<!DOCTYPE svg PUBLIC "-//W3C//DTD SVG 1.1//EN" "http://www.w3.org/Graphics/SVG/1.1/DTD/svg11.dtd">
<!-- Creator: CorelDRAW X5 -->
<svg xmlns="http://www.w3.org/2000/svg" xml:space="preserve" width="40mm" height="40mm" style="shape-rendering:geometricPrecision; text-rendering:geometricPrecision; image-rendering:optimizeQuality; fill-rule:evenodd; clip-rule:evenodd"
viewBox="0 0 4000 4000"
 xmlns:xlink="http://www.w3.org/1999/xlink">
 <defs>
  <style type="text/css">
   <![CDATA[
    .fil2 {fill:#FEFEFE}
    .fil0 {fill:#963D3A}
    .fil1 {fill:#FEFEFE;fill-rule:nonzero}
   ]]>
  </style>
 </defs>
 <g id="图层_x0020_1">
  <metadata id="CorelCorpID_0Corel-Layer"/>
  <path class="fil0" d="M1009 954l1947 0c94,0 170,76 170,168l0 1777c0,93 -77,168 -170,168l-1947 0c-94,0 -170,-76 -170,-168l0 -1777c0,-93 77,-168 170,-168z"/>
  <g>
   <path class="fil1" d="M2889 1046l-1812 0 0 -37 1812 0 0 0 0 37zm177 138l-37 0 0 0 0 -7 -1 -7 -1 -7 -1 -7 -2 -7 -2 -7 -2 -6 -3 -6 -3 -6 -3 -6 -3 -6 -4 -6 -4 -5 -4 -5 -4 -5 -5 -5 -5 -5 -5 -4 -5 -4 -5 -4 -6 -4 -6 -3 -6 -3 -6 -3 -6 -2 -6 -2 -7 -2 -7 -2 -7 -1 -7 -1 -7 -1 -7 0 0 -37 9 0 9 1 9 1 9 2 9 2 8 2 8 3 8 3 8 4 8 4 7 4 7 5 7 5 7 5 6 6 6 6 6 6 6 6 5 7 5 7 5 7 4 7 4 8 4 8 3 8 3 8 2 8 2 8 2 9 1 9 1 9 0 9 0 0zm-37 1653l0 -1653 37 0 0 1653 0 0 -37 0zm-140 175l0 -37 0 0 7 0 7 -1 7 -1 7 -1 7 -2 7 -2 6 -2 6 -2 6 -3 6 -3 6 -3 6 -4 5 -4 5 -4 5 -4 5 -5 5 -5 4 -5 4 -5 4 -5 4 -6 3 -6 3 -6 3 -6 3 -6 2 -6 2 -7 2 -7 1 -7 1 -7 1 -7 0 -7 37 0 0 9 -1 9 -1 9 -2 9 -2 8 -2 8 -3 8 -3 8 -4 8 -4 8 -4 7 -5 7 -5 7 -5 7 -6 6 -6 6 -6 6 -6 6 -7 5 -7 5 -7 5 -7 4 -8 4 -8 4 -8 3 -8 3 -8 2 -9 2 -9 2 -9 1 -9 1 -9 0 0 0zm-1812 -37l1812 0 0 37 -1812 0 0 0 0 -37zm-177 -138l37 0 0 0 0 7 1 7 1 7 1 7 2 7 2 7 2 6 3 6 3 6 3 6 3 6 4 6 4 5 4 5 4 5 5 5 5 5 5 4 5 4 6 4 6 4 6 3 6 3 6 3 6 2 6 2 7 2 7 2 7 1 7 1 7 1 7 0 0 37 -9 0 -9 -1 -9 -1 -9 -2 -9 -2 -8 -2 -8 -3 -8 -3 -8 -4 -8 -4 -7 -4 -7 -5 -7 -5 -7 -5 -6 -6 -6 -6 -6 -6 -6 -6 -5 -7 -5 -7 -5 -7 -4 -7 -4 -8 -4 -8 -3 -8 -3 -8 -2 -8 -2 -8 -2 -9 -1 -9 -1 -9 0 -9 0 0zm37 -1653l0 1653 -37 0 0 -1653 0 0 37 0zm140 -175l0 37 0 0 -7 0 -7 1 -7 1 -7 1 -7 2 -7 2 -6 2 -6 2 -6 3 -6 3 -6 3 -6 4 -6 4 -5 4 -5 4 -5 5 -5 5 -4 5 -4 5 -4 5 -4 6 -3 6 -3 6 -3 6 -3 6 -2 6 -2 7 -2 7 -1 7 -1 7 -1 7 0 7 -37 0 0 -9 1 -9 1 -9 2 -9 2 -8 2 -8 3 -8 3 -8 4 -8 4 -8 4 -7 5 -7 5 -7 5 -7 6 -6 6 -6 6 -6 6 -6 7 -5 7 -5 7 -5 7 -4 8 -4 8 -4 8 -3 8 -3 8 -2 9 -2 9 -2 9 -1 9 -1 9 0 0 0z"/>
  </g>
  <path class="fil2" d="M2105 2606c-38,-19 -19,-43 -11,-64 15,-28 118,-196 108,-222 -33,-40 -65,-79 -86,-111 -21,-48 -21,-48 -28,-55 -88,4 -104,9 -158,9 -90,-9 -93,-12 -162,-15 -16,46 -16,46 -20,69 23,109 61,229 70,353 -6,9 -13,17 -18,26 -14,1 -28,2 -40,4 -5,-5 -9,-9 -13,-12 -35,-140 -70,-280 -105,-419 -33,0 -31,5 -54,16 -1,4 -3,7 -3,12 -48,6 -84,40 -123,62 0,136 0,136 -5,203 -9,33 -16,33 -50,33 -24,-24 -16,-248 -16,-296 182,-104 182,-104 201,-120 -23,-77 -21,-125 -21,-196 -53,-90 -61,-97 -78,-121 -24,0 -70,26 -85,36 -1,4 -1,7 -1,11 -31,4 -34,7 -49,22 -9,-1 -16,-2 -24,-4 -35,-52 -10,-57 25,-103 8,-79 11,-74 58,-128 0,-25 0,-25 6,-58 4,0 8,0 13,0 8,9 16,17 25,27 147,22 208,47 288,191 24,-12 105,-46 117,-69 -46,-30 -10,-76 -6,-111 -3,-5 -35,-21 -58,-37 -4,-17 -8,-35 -11,-51 -4,-1 -8,-1 -11,-1 1,-6 3,-12 5,-19 11,-4 18,-16 21,-25 93,-66 168,-12 104,97 6,25 15,31 53,40 30,66 125,141 148,216 0,24 0,47 0,71 90,-30 188,-45 262,47 110,-19 152,-53 241,43 16,35 63,224 16,255 0,2 1,6 3,10 -35,9 -58,5 -78,-15 -9,-69 -18,-137 -26,-206 -43,-42 -76,-52 -125,-38 1,43 -3,84 9,133 94,171 94,171 110,193 1,82 16,204 1,297 -25,5 -25,5 -49,1 -49,-48 24,-234 -46,-303 -75,-22 -119,-69 -169,-94 0,50 33,97 33,156 -26,72 -94,147 -122,225 -19,24 -40,30 -64,35zm-276 -751c-14,-16 -28,-31 -41,-46 5,-20 60,-48 85,-55 0,-4 0,-7 1,-11 5,-1 10,-2 16,-4 33,36 33,36 40,53 -55,38 -55,38 -102,62z"/>
 </g>
</svg>
