<?xml version="1.0" encoding="UTF-8"?>
<!DOCTYPE svg PUBLIC "-//W3C//DTD SVG 1.1//EN" "http://www.w3.org/Graphics/SVG/1.1/DTD/svg11.dtd">
<!-- Creator: CorelDRAW X5 -->
<svg xmlns="http://www.w3.org/2000/svg" xml:space="preserve" width="100mm" height="50mm" style="shape-rendering:geometricPrecision; text-rendering:geometricPrecision; image-rendering:optimizeQuality; fill-rule:evenodd; clip-rule:evenodd"
viewBox="0 0 10000 5000"
 xmlns:xlink="http://www.w3.org/1999/xlink">
 <defs>
  <style type="text/css">
   <![CDATA[
    .str0 {stroke:#2B378E;stroke-width:10}
    .str1 {stroke:#FEFEFE;stroke-width:40.79}
    .fil1 {fill:none}
    .fil2 {fill:#FEFEFE}
    .fil0 {fill:#2B378E}
    .fil3 {fill:#FEFEFE;fill-rule:nonzero}
   ]]>
  </style>
 </defs>
 <g id="图层_x0020_1">
  <metadata id="CorelCorpID_0Corel-Layer"/>
  <polygon class="fil0 str0" points="688,1395 4676,1395 4676,3332 688,3332 "/>
  <polygon class="fil0 str0" points="5583,1395 9571,1395 9571,3332 5583,3332 "/>
  <path class="fil1 str1" d="M816 1469l3732 0c32,0 59,40 59,89l0 1610c0,49 -27,89 -59,89l-3732 0c-32,0 -59,-40 -59,-89l0 -1610c0,-49 27,-89 59,-89z"/>
  <path class="fil1 str1" d="M5711 1469l3732 0c32,0 59,40 59,89l0 1610c0,49 -27,89 -59,89l-3732 0c-32,0 -59,-40 -59,-89l0 -1610c0,-49 27,-89 59,-89z"/>
  <path class="fil2" d="M2467 1920l26 -11c-1,-27 -1,-43 0,-50 -4,1 -7,3 -11,5 -8,3 -15,6 -22,8l0 -103c10,0 21,0 33,1l0 -48 -33 1c0,-45 1,-75 2,-92l-53 0 1 92 -40 -1 0 48c10,0 24,-1 40,-1l0 120c-14,5 -29,9 -44,11 8,21 14,40 18,57l10 -5c3,-3 26,-14 71,-32zm149 -88l0 13c-14,0 -32,-1 -54,-2l0 43c16,-1 35,-1 54,-1l0 14c-28,0 -50,0 -67,-1l0 134 50 0 0 -11 107 0 0 11 50 0c-1,-54 -1,-99 0,-134 -19,1 -49,1 -90,1l0 -14c35,0 62,0 81,1 -1,-18 -1,-36 -1,-55 8,0 17,0 25,1l0 -43c-9,0 -17,0 -25,1 0,-19 0,-38 1,-56l-81 1 0 -14 105 1 0 -48 -117 1c8,-5 13,-8 14,-9 -9,-15 -19,-30 -32,-48 -10,8 -24,15 -43,22 9,12 16,24 20,35l-114 -2c2,113 1,185 -3,215 -5,34 -19,62 -41,83 -9,9 -20,17 -35,26 14,8 26,20 37,36 37,-29 62,-59 74,-87 10,-28 17,-67 19,-116l63 0zm-62 -42l0 -70 62 0 0 14 -54 -1 0 44c16,-1 34,-1 54,-1l0 13 -62 0zm45 189l0 -38 107 0 0 38 -107 0zm68 -134l0 -13 33 0 0 13 -33 0zm0 -55l0 -13 33 0 0 13 -33 0zm254 -13l116 -1 -3 61 -81 -1 0 195 52 0c0,-3 0,-7 0,-10l125 0c0,3 0,7 0,10l52 0c-2,-68 -2,-133 0,-195l-95 1 3 -61 127 1 0 -51 -126 2c0,-3 2,-35 6,-96 -26,-2 -45,-3 -58,-5 1,23 1,57 -1,101l-117 -2 0 51zm209 195l-125 0 0 -89 125 0 0 89zm-316 -198c26,16 48,34 66,53l20 -31c3,-4 7,-9 10,-14l-32 -24c-11,-9 -23,-17 -35,-25 -11,17 -21,31 -29,40zm121 92c-19,-11 -34,-21 -46,-31 -18,66 -43,117 -75,154 18,15 32,30 43,44 18,-33 35,-66 50,-100l28 -68zm-13 -150c1,-3 3,-5 5,-7l23 -32c-22,-17 -44,-35 -67,-51 -7,12 -18,25 -31,40 24,16 47,34 67,54 1,-1 2,-2 3,-3z"/>
  <path class="fil2" d="M971 2468l-50 -2 2 55c0,107 -1,169 -2,184 -4,40 -15,66 -32,80 13,16 24,32 32,50 34,-42 51,-90 51,-144l1 -177c188,0 295,1 319,2l0 -49 -161 2c4,-4 8,-7 12,-10 -3,-4 -16,-17 -38,-39 -13,8 -29,16 -48,24 7,5 16,13 26,24l-112 0zm13 170l106 -1 0 15 -91 -1 0 43 91 -1c0,3 -1,7 -1,11l54 0 -1 -11 112 1 -1 -57 39 1 0 -46 -39 1 1 -57 -112 1 1 -18 -54 0c0,6 0,12 1,18l-90 -1 0 43 90 -1 0 15c-46,0 -82,0 -106,-1l0 45zm218 14l-60 0 0 -15 60 0 0 15zm0 -58l-60 0 0 -15 60 0 0 15zm-204 116l0 123 51 0 0 -5 157 0 0 6 51 0c-1,-52 -1,-94 0,-125l-260 0zm51 76l0 -32 157 0 0 32 -157 0zm516 -349l-59 0 2 315 -92 0c0,-147 1,-233 2,-257l-59 0c2,106 2,209 0,308 25,-1 125,-1 301,-2l0 21 55 0c-3,-109 -3,-218 0,-327l-56 0 1 257 -97 0 1 -315z"/>
  <path class="fil2" d="M6064 2772l-76 0c-12,0 -23,-1 -35,-1l0 48 39 -1 57 0c-2,21 -8,42 -19,63 -13,26 -30,47 -50,64 -12,9 -26,17 -41,24 18,13 31,27 40,42 9,-6 20,-14 32,-25 20,-19 37,-39 51,-61 14,-23 24,-45 30,-68 6,-22 9,-49 10,-83l-39 1zm-42 -77l0 49 37 -1 67 0 0 205c0,7 0,11 -1,12 -1,3 -5,5 -13,6 -6,0 -12,0 -18,0 -3,0 -8,0 -16,-1 9,18 14,35 16,51l41 -2c12,-2 23,-5 30,-9 6,-4 9,-11 10,-21l0 -141c22,43 48,78 76,106 12,12 24,22 35,30 3,3 9,6 16,11l22 13c9,-17 20,-34 34,-49 -16,-5 -31,-14 -46,-24 -29,-21 -54,-46 -75,-74 31,-36 63,-76 97,-120l-29 -18c-7,-5 -13,-9 -17,-13 -7,13 -16,27 -26,41 -8,12 -16,24 -24,34 -7,9 -16,20 -27,31 -8,-13 -16,-29 -23,-49 -8,-22 -13,-44 -14,-65l-96 1 -57 -2zm61 -96c-10,14 -21,28 -36,42 5,2 11,4 19,7l79 29 62 26c6,-17 13,-35 21,-52l-112 -40 -33 -12zm657 205c-33,32 -68,52 -104,60 12,15 24,31 34,47 53,-27 99,-63 138,-107l93 0c25,46 62,84 112,113 1,0 5,2 11,6 11,-21 22,-38 31,-51 -40,-9 -73,-31 -100,-68 32,0 60,1 83,2l0 -47 -206 1c3,-8 7,-14 10,-19l151 1 0 -43 -137 1c3,-7 5,-14 7,-21l164 1 0 -46 -153 1c3,-8 5,-16 7,-24l-57 -7c0,11 -2,22 -5,31l-157 -1 0 46 148 -1c-1,6 -3,13 -7,21l-106 -1 0 43 90 -1c-3,6 -6,13 -10,19l-125 -1 0 47c21,-1 51,-1 90,-2zm-64 152c9,14 16,30 21,48 16,-9 53,-26 110,-53 -1,-21 -1,-35 -1,-44 -29,15 -72,32 -130,49zm67 -79c20,14 35,26 45,36l28 -34c-11,-10 -25,-21 -43,-34 -9,12 -19,23 -30,32zm78 -60c0,95 0,143 -1,145 0,1 -1,2 -1,2 -3,3 -13,3 -31,1 4,15 8,32 10,52 37,-2 59,-8 67,-18 3,-5 5,-14 6,-25l0 -89c7,6 16,16 28,31 12,-9 28,-23 47,-41 -10,-9 -20,-19 -32,-31 -11,13 -26,26 -43,39l1 -66 -51 0zm185 144c-10,-5 -45,-19 -105,-43 -4,11 -12,25 -21,42 38,14 75,31 111,51 4,-10 7,-17 9,-20l12 -27c-2,-1 -4,-2 -6,-3z"/>
  <path class="fil2" d="M6765 2020c3,-1 6,-2 10,-3l60 -25 -2 129 54 0 0 -8 181 0 0 8 55 0c-3,-75 -3,-137 0,-186l-179 1c50,-21 107,-65 172,-132 0,-1 0,-1 1,-2l-19 -31 -160 0c10,-12 21,-25 32,-39 -24,-7 -43,-14 -57,-22 -3,6 -6,12 -10,18 0,7 -19,29 -57,65 -24,22 -48,38 -72,49 21,18 35,32 43,40 24,-18 50,-40 78,-66l130 0c-24,23 -51,45 -83,67l-33 -48c-15,12 -29,21 -42,27 11,13 22,29 33,47 -57,31 -112,51 -165,61 11,16 19,33 25,51 1,-1 3,-1 4,-2zm122 47l0 -85 181 0 0 85 -181 0zm525 -343l-59 0 2 315 -92 0c0,-147 1,-233 2,-257l-59 0c2,106 2,209 0,308 25,-1 125,-1 301,-2l0 21 55 0c-3,-109 -3,-218 0,-327l-56 0 1 257 -97 0 1 -315zm421 -13c-22,12 -38,20 -48,24 2,3 4,5 7,8 2,2 4,4 6,7l13 15 -173 -2 0 88 54 0c0,-9 -1,-23 -1,-41l277 0 -1 43 54 0c-1,-31 -1,-61 0,-90l-163 2c4,-3 8,-6 13,-9 -4,-6 -17,-21 -39,-45zm-194 402c127,-3 254,-3 382,0l0 -50 -164 2 0 -29c58,0 98,1 119,2l0 -49 -119 2c0,-9 0,-19 1,-28l-55 0c0,9 0,18 1,28l-120 -2 0 49c23,-1 63,-1 120,-2l0 29 -165 -2 0 50zm125 -235c-25,21 -51,36 -76,43 9,18 16,33 20,45 57,-5 132,-8 226,-9 4,4 10,10 16,18 8,-10 19,-23 34,-38 -3,-3 -26,-22 -68,-59l43 1 0 -46 -259 0 0 46 64 -1zm21 38l50 -38 55 0c-5,4 -14,10 -25,16 9,7 17,14 24,21l-105 0z"/>
  <path class="fil2" d="M3627 1988l-290 0c3,-29 13,-55 30,-81 17,-25 48,-55 95,-89 28,-21 46,-37 54,-48 8,-11 12,-21 12,-31 0,-11 -4,-20 -12,-27 -8,-7 -18,-11 -30,-11 -12,0 -22,4 -30,12 -8,8 -13,21 -16,41l-97 -8c4,-27 11,-48 21,-64 10,-15 24,-27 43,-35 18,-8 44,-12 76,-12 34,0 60,4 79,12 19,8 34,20 45,36 11,16 16,34 16,54 0,21 -6,41 -19,61 -12,19 -35,40 -68,63 -20,13 -32,23 -39,28 -7,5 -14,12 -23,21l151 0 0 79zm41 -175c0,-66 12,-112 36,-139 24,-26 60,-40 109,-40 23,0 43,3 58,9 15,6 27,13 37,22 9,9 17,19 22,29 6,10 10,22 13,36 6,26 10,53 10,81 0,63 -11,109 -32,138 -21,29 -58,44 -110,44 -29,0 -53,-5 -71,-14 -18,-9 -33,-23 -44,-41 -8,-13 -15,-30 -20,-52 -5,-22 -7,-47 -7,-74zm96 0c0,44 4,74 12,91 8,16 19,24 34,24 10,0 18,-3 26,-10 7,-7 12,-18 16,-33 3,-15 5,-38 5,-69 0,-46 -4,-77 -12,-93 -8,-16 -20,-24 -35,-24 -16,0 -28,8 -35,24 -7,16 -11,46 -11,90z"/>
  <path class="fil2" d="M1871 2439l216 0 0 77 -146 0 -8 52c10,-5 20,-9 30,-11 10,-3 20,-4 29,-4 33,0 59,11 80,32 20,21 31,47 31,79 0,22 -5,44 -16,65 -11,21 -25,36 -45,47 -19,11 -44,16 -74,16 -22,0 -40,-2 -55,-6 -15,-4 -28,-11 -39,-19 -11,-9 -19,-18 -26,-29 -7,-11 -12,-25 -17,-41l92 -11c2,16 7,27 16,36 8,8 18,12 29,12 13,0 23,-5 31,-15 8,-10 12,-25 12,-46 0,-21 -4,-36 -12,-46 -8,-10 -19,-14 -33,-14 -9,0 -17,2 -25,7 -6,3 -13,9 -20,18l-77 -12 29 -187zm268 172c0,-66 11,-112 34,-139 22,-26 56,-40 102,-40 22,0 40,3 54,9 14,6 26,13 35,22 9,9 16,19 21,29 5,10 9,22 12,36 6,26 9,53 9,81 0,63 -10,109 -30,138 -20,29 -55,44 -104,44 -27,0 -50,-5 -67,-14 -17,-9 -31,-23 -42,-41 -8,-13 -14,-30 -18,-52 -4,-22 -7,-47 -7,-74zm90 0c0,44 4,74 11,91 7,16 18,24 32,24 9,0 17,-3 24,-10 7,-7 12,-18 15,-33 3,-15 5,-38 5,-69 0,-46 -4,-77 -11,-93 -7,-16 -18,-24 -33,-24 -15,0 -26,8 -32,24 -7,16 -10,46 -10,90z"/>
  <path class="fil2" d="M7594 2637l0 353 -93 0 0 -231c-15,12 -30,22 -44,29 -14,7 -32,15 -53,21l0 -79c32,-11 56,-23 73,-38 17,-15 31,-33 41,-55l76 0zm101 178c0,-66 11,-112 34,-139 23,-26 57,-40 104,-40 22,0 41,3 55,9 14,6 26,13 35,22 9,9 16,19 21,29 5,10 9,22 13,36 6,26 9,53 9,81 0,63 -10,109 -31,138 -20,29 -56,44 -105,44 -28,0 -51,-5 -68,-14 -17,-9 -31,-23 -42,-41 -8,-13 -14,-30 -19,-52 -4,-22 -7,-47 -7,-74zm92 0c0,44 4,74 11,91 7,16 18,24 33,24 9,0 18,-3 24,-10 7,-7 12,-18 15,-33 3,-15 5,-38 5,-69 0,-46 -4,-77 -11,-93 -7,-16 -19,-24 -34,-24 -15,0 -26,8 -33,24 -7,16 -10,46 -10,90z"/>
  <path class="fil2" d="M8386 1743l0 353 -93 0 0 -231c-15,12 -30,22 -44,29 -14,7 -32,15 -53,21l0 -79c32,-11 56,-23 73,-38 17,-15 31,-33 41,-55l76 0zm156 167c-15,-8 -25,-17 -32,-27 -9,-14 -14,-29 -14,-47 0,-29 13,-53 39,-71 20,-14 47,-21 81,-21 44,0 77,9 99,27 21,18 32,40 32,67 0,16 -4,30 -13,44 -6,10 -16,20 -30,29 18,9 31,21 40,36 9,15 13,31 13,49 0,17 -4,34 -11,49 -8,15 -17,27 -28,35 -11,8 -25,14 -42,18 -17,4 -34,6 -53,6 -35,0 -62,-4 -81,-13 -19,-9 -33,-22 -42,-38 -10,-17 -15,-36 -15,-57 0,-20 5,-38 14,-52 9,-14 23,-25 42,-33zm42 -68c0,12 4,22 11,29 7,7 17,11 29,11 11,0 19,-4 26,-11 7,-7 10,-17 10,-28 0,-12 -4,-22 -11,-29 -7,-8 -16,-11 -27,-11 -11,0 -20,4 -27,11 -7,7 -11,17 -11,29zm-5 149c0,15 4,28 13,38 9,10 19,15 31,15 11,0 21,-5 30,-15 9,-10 13,-22 13,-38 0,-15 -4,-28 -13,-38 -9,-10 -19,-15 -31,-15 -11,0 -22,5 -30,14 -9,9 -13,22 -13,38z"/>
  <path class="fil2" d="M4010 1791l50 0 0 73 52 -73 66 0 -59 73 61 121 -61 0 -34 -80 -26 32 0 47 -50 0 0 -194zm185 53l42 0 0 20c6,-9 12,-15 18,-18 6,-4 14,-5 22,-5 9,0 17,2 22,6 5,4 10,10 13,18 7,-9 13,-15 19,-19 6,-3 13,-5 21,-5 13,0 22,4 29,13 7,9 11,23 11,42l0 88 -45 0 0 -80c0,-6 -1,-11 -3,-14 -3,-5 -7,-7 -11,-7 -5,0 -10,2 -13,7 -3,5 -5,12 -5,22l0 72 -45 0 0 -77c0,-6 0,-10 -1,-13 -1,-4 -3,-6 -5,-9 -2,-2 -5,-3 -8,-3 -5,0 -9,2 -13,7 -3,5 -5,12 -5,23l0 72 -45 0 0 -140z"/>
  <path class="fil2" d="M2447 2610l50 0 0 73 52 -73 66 0 -59 73 61 121 -61 0 -34 -80 -26 32 0 47 -50 0 0 -194zm185 53l42 0 0 20c6,-9 12,-15 18,-18 6,-4 14,-5 22,-5 9,0 17,2 22,6 5,4 10,10 13,18 7,-9 13,-15 19,-19 6,-3 13,-5 21,-5 13,0 22,4 29,13 7,9 11,23 11,42l0 88 -45 0 0 -80c0,-6 -1,-11 -3,-14 -3,-5 -7,-7 -11,-7 -5,0 -10,2 -13,7 -3,5 -5,12 -5,22l0 72 -45 0 0 -77c0,-6 0,-10 -1,-13 -1,-4 -3,-6 -5,-9 -2,-2 -5,-3 -8,-3 -5,0 -9,2 -13,7 -3,5 -5,12 -5,23l0 72 -45 0 0 -140z"/>
  <path class="fil2" d="M8043 2792l50 0 0 73 52 -73 66 0 -59 73 61 121 -61 0 -34 -80 -26 32 0 47 -50 0 0 -194zm185 53l42 0 0 20c6,-9 12,-15 18,-18 6,-4 14,-5 22,-5 9,0 17,2 22,6 5,4 10,10 13,18 7,-9 13,-15 19,-19 6,-3 13,-5 21,-5 13,0 22,4 29,13 7,9 11,23 11,42l0 88 -45 0 0 -80c0,-6 -1,-11 -3,-14 -3,-5 -7,-7 -11,-7 -5,0 -10,2 -13,7 -3,5 -5,12 -5,22l0 72 -45 0 0 -77c0,-6 0,-10 -1,-13 -1,-4 -3,-6 -5,-9 -2,-2 -5,-3 -8,-3 -5,0 -9,2 -13,7 -3,5 -5,12 -5,23l0 72 -45 0 0 -140z"/>
  <g>
   <polygon class="fil3" points="9488,2343 9488,2384 5665,2384 5665,2343 "/>
  </g>
  <polygon class="fil2" points="6355,1994 6185,1990 6340,2133 6142,2133 5920,1931 6139,1715 6316,1715 6182,1853 6356,1853 "/>
  <path class="fil2" d="M4320 2138l-73 -60 -73 60 0 606c-326,-250 -696,-389 -1117,-406l-77 76 51 74c483,22 861,181 1143,465l0 145 145 0 0 -959z"/>
  <path class="fil2" d="M8836 1899l50 0 0 73 52 -73 66 0 -59 73 61 121 -61 0 -34 -80 -26 32 0 47 -50 0 0 -194zm185 53l42 0 0 20c6,-9 12,-15 18,-18 6,-4 14,-5 22,-5 9,0 17,2 22,6 5,4 10,10 13,18 7,-9 13,-15 19,-19 6,-3 13,-5 21,-5 13,0 22,4 29,13 7,9 11,23 11,42l0 88 -45 0 0 -80c0,-6 -1,-11 -3,-14 -3,-5 -7,-7 -11,-7 -5,0 -10,2 -13,7 -3,5 -5,12 -5,22l0 72 -45 0 0 -77c0,-6 0,-10 -1,-13 -1,-4 -3,-6 -5,-9 -2,-2 -5,-3 -8,-3 -5,0 -9,2 -13,7 -3,5 -5,12 -5,23l0 72 -45 0 0 -140z"/>
  <polygon class="fil2" points="8767,2887 8938,2883 8783,3027 8980,3026 9203,2825 8983,2608 8807,2608 8940,2746 8767,2747 "/>
 </g>
</svg>
