<?xml version="1.0" encoding="UTF-8"?>
<!DOCTYPE svg PUBLIC "-//W3C//DTD SVG 1.1//EN" "http://www.w3.org/Graphics/SVG/1.1/DTD/svg11.dtd">
<!-- Creator: CorelDRAW X5 -->
<svg xmlns="http://www.w3.org/2000/svg" xml:space="preserve" width="50mm" height="50mm" style="shape-rendering:geometricPrecision; text-rendering:geometricPrecision; image-rendering:optimizeQuality; fill-rule:evenodd; clip-rule:evenodd"
viewBox="0 0 5000 5000"
 xmlns:xlink="http://www.w3.org/1999/xlink">
 <defs>
  <style type="text/css">
   <![CDATA[
    .str0 {stroke:#2B378E;stroke-width:10}
    .str1 {stroke:#FEFEFE;stroke-width:40.88}
    .fil1 {fill:none}
    .fil2 {fill:#FEFEFE}
    .fil0 {fill:#2B378E}
   ]]>
  </style>
 </defs>
 <g id="图层_x0020_1">
  <metadata id="CorelCorpID_0Corel-Layer"/>
  <polygon class="fil0 str0" points="367,1392 4490,1392 4490,3792 367,3792 "/>
  <path class="fil1 str1" d="M505 1483l3846 0c33,0 61,50 61,111l0 1996c0,61 -27,111 -61,111l-3846 0c-33,0 -61,-50 -61,-111l0 -1996c0,-61 27,-111 61,-111z"/>
  <path class="fil2" d="M2355 2263l79 -74 95 74 0 139c236,-54 385,25 446,262 -30,254 -197,319 -408,343l0 -171 135 0c100,-40 123,-103 100,-220 -85,-108 -210,-103 -273,-16l4 575c375,-241 731,-344 1075,-352l70 82 -73 96c-123,-46 -815,85 -1076,397l0 58 -174 0 0 -1191z"/>
  <polygon class="fil2" points="1279,2977 1204,2899 1279,2821 2301,2821 2301,2977 "/>
  <path class="fil2" d="M899 2678l-1 58 62 0 -2 -364c0,-18 1,-35 2,-53l-62 0 1 109 -111 -1 0 57 111 -1 0 104c-40,18 -80,29 -120,34 9,19 16,40 20,61 43,-14 76,-27 99,-39l0 35zm173 -358l-63 0 2 360c0,18 6,30 19,38 22,13 60,17 116,12 16,-2 29,-9 39,-19 13,-17 23,-48 30,-94 0,0 0,-1 0,-1 -22,-4 -42,-9 -58,-14 -4,39 -10,62 -19,69 -7,6 -22,8 -48,6 -7,-1 -12,-3 -14,-6 -3,-4 -4,-11 -4,-22l0 -98c57,-32 102,-69 135,-110 -15,-11 -30,-25 -47,-42 -22,32 -52,61 -89,87l1 -164zm429 274l123 2c-2,-57 -2,-108 0,-151 -120,2 -223,2 -309,0l0 151c25,-1 68,-2 128,-2l0 89c0,7 -5,11 -16,12 -6,0 -15,-1 -28,-2 6,18 10,38 12,60 37,0 62,-4 75,-13 9,-7 14,-17 14,-31l0 -114zm-124 -50l0 -48 188 0 0 48 -188 0zm-117 156c16,19 28,36 36,49 47,-33 90,-70 129,-114 -16,-11 -33,-24 -50,-38 -31,44 -69,78 -115,103zm262 -63c37,34 74,71 111,112l41 -46c-24,-25 -59,-59 -107,-102 -15,13 -30,25 -45,35zm-200 -265l-58 -1 0 55c35,-2 155,-3 360,-2 17,0 35,1 53,2l0 -55 -187 1 23 -13c-7,-14 -19,-32 -36,-53 -19,7 -37,14 -56,19 12,17 22,33 28,47l-128 0z"/>
  <path class="fil2" d="M2129 1831c-20,20 -43,37 -70,52 -24,11 -49,21 -75,28 12,16 23,32 32,49 11,-5 19,-8 25,-11 9,-5 19,-10 30,-15l1 34 0 113 -1 34 55 0 0 -9 169 0 0 9 53 0 -1 -41 0 -139c20,10 40,18 59,25 2,-5 4,-9 7,-13 4,-9 8,-18 12,-28 3,-5 5,-10 8,-15 -30,-6 -56,-14 -78,-24 -23,-11 -46,-27 -68,-48l101 0c9,0 19,0 28,1l0 -52c-11,0 -22,0 -33,1l-146 0 0 -31c21,-1 40,-2 58,-4 19,-2 42,-5 70,-9 -4,-6 -8,-12 -13,-18 -5,-8 -12,-20 -23,-36 -6,1 -12,3 -17,5 -16,4 -36,8 -58,11 -34,4 -77,6 -128,6l-49 -1c-13,0 -28,-2 -46,-4 6,18 11,36 16,55l78 0c15,-1 34,-1 58,-1l0 27 -144 0c-13,0 -26,-1 -39,-1l0 52 48 -1 82 0zm-27 83c29,-19 56,-40 80,-63l0 63 -80 0zm23 72l0 -26 169 0 0 26 -169 0zm111 -72l0 -60 36 34c11,8 24,17 37,27l-74 0zm-111 144l0 -27 169 0 0 27 -169 0zm773 -346l-289 -1 0 52c25,-1 91,-2 199,-2l0 278c0,9 -3,15 -9,18 -12,3 -32,3 -60,-1 9,18 15,39 20,64 52,-2 84,-11 94,-28 4,-7 6,-18 6,-34l0 -296c12,0 25,0 38,1l0 -51zm-282 281c58,-3 110,-3 158,0 -2,-65 -2,-127 0,-186 -61,1 -114,1 -158,0 1,58 1,120 0,186zm52 -50l0 -87 54 0 0 87 -54 0zm-125 -61c11,-17 20,-29 26,-38 -5,-4 -30,-20 -75,-50 -11,19 -22,34 -33,45 27,14 52,32 75,54 2,-4 5,-7 7,-11zm48 67c2,-7 5,-13 8,-17 -21,-13 -37,-24 -49,-34 -8,29 -21,61 -40,98 -17,31 -33,55 -48,71 18,13 35,26 50,41 23,-39 50,-92 79,-158zm-93 -225c34,21 60,39 76,55 1,-2 3,-6 7,-10 15,-25 23,-38 23,-39 -25,-17 -50,-34 -74,-49 -11,18 -22,32 -32,43z"/>
  <path class="fil2" d="M3559 2519l59 2 0 -56 -183 2 4 -78 156 1 0 -56c-120,3 -244,3 -371,0l0 56 156 -1c0,10 -1,36 -4,78l-172 -2 0 56c34,-1 90,-2 168,-2 -7,44 -26,80 -54,106 -14,12 -32,25 -52,37 -19,10 -42,19 -71,26 11,14 23,33 35,57 62,-29 107,-57 137,-84 22,-22 39,-48 50,-76 39,75 101,128 185,160 7,-24 17,-44 28,-59 -48,-8 -92,-34 -132,-78 -15,-18 -27,-35 -34,-49 -6,-9 -12,-23 -18,-40l113 0zm216 -46l128 -1 0 27 -95 -1 0 52 95 -1 0 23 -109 -1 0 50 109 -1 0 29 -127 -2 0 53c25,-1 67,-2 127,-2l-1 50 55 0 -1 -50c74,0 124,1 151,2l0 -53 -151 2 0 -29 124 1 0 -50 -124 1 0 -23 115 1 -1 -78c12,0 25,0 38,1l0 -50c-12,0 -25,0 -38,0l1 -78 -115 1 1 -37 -55 0 1 37 -96 -1 0 50 96 -1 0 29 -128 -2 0 52zm242 25l-62 0 0 -27 62 0 0 27zm0 -75l-62 0 0 -29 62 0 0 29zm-280 100c4,-7 13,-20 29,-41 0,-1 1,-2 2,-3 -20,-19 -38,-35 -56,-46 -3,-2 -6,-4 -9,-6 -8,14 -20,28 -34,41 24,17 47,36 67,57 0,-1 1,-2 2,-3zm51 47c-22,-13 -38,-24 -48,-34 -17,67 -41,121 -71,162 18,13 33,28 46,45 20,-40 44,-97 73,-173zm-87 -218c28,18 51,37 69,56 13,-22 23,-38 30,-47 -22,-17 -44,-33 -67,-50 -12,17 -22,31 -33,41z"/>
 </g>
</svg>
