<?xml version="1.0" encoding="UTF-8"?>
<!DOCTYPE svg PUBLIC "-//W3C//DTD SVG 1.1//EN" "http://www.w3.org/Graphics/SVG/1.1/DTD/svg11.dtd">
<!-- Creator: CorelDRAW X5 -->
<svg xmlns="http://www.w3.org/2000/svg" xml:space="preserve" width="50mm" height="50mm" style="shape-rendering:geometricPrecision; text-rendering:geometricPrecision; image-rendering:optimizeQuality; fill-rule:evenodd; clip-rule:evenodd"
viewBox="0 0 5000 5000"
 xmlns:xlink="http://www.w3.org/1999/xlink">
 <defs>
  <style type="text/css">
   <![CDATA[
    .str0 {stroke:#2B378E;stroke-width:100}
    .str1 {stroke:#FEFEFE;stroke-width:40.74}
    .fil1 {fill:none}
    .fil2 {fill:#FEFEFE}
    .fil0 {fill:#2B378E}
   ]]>
  </style>
 </defs>
 <g id="图层_x0020_1">
  <metadata id="CorelCorpID_0Corel-Layer"/>
  <polygon class="fil0 str0" points="970,1090 3718,1090 3718,3233 970,3233 "/>
  <path class="fil1 str1" d="M1084 1171l2520 0c22,0 40,45 40,99l0 1783c0,54 -18,99 -40,99l-2520 0c-22,0 -40,-45 -40,-99l0 -1783c0,-54 18,-99 40,-99z"/>
  <path class="fil2" d="M2114 1364c-14,14 -30,26 -49,36 -16,8 -34,14 -52,20 8,11 16,22 22,34 7,-3 13,-6 18,-8 6,-3 13,-7 21,-10l1 23 0 79 -1 23 38 0 0 -6 118 0 0 6 37 0 -1 -29 0 -97c14,7 28,13 41,18 1,-3 3,-6 5,-9 3,-6 5,-13 8,-19 2,-3 4,-7 6,-11 -21,-4 -39,-9 -54,-17 -16,-8 -32,-19 -47,-33l70 0c6,0 13,0 19,1l0 -36c-8,0 -15,0 -23,1l-101 0 0 -21c14,-1 28,-2 40,-3 13,-1 29,-3 49,-6 -3,-4 -6,-8 -9,-13 -3,-5 -9,-14 -16,-25 -4,1 -8,2 -12,3 -11,3 -25,5 -40,7 -24,3 -54,4 -89,4l-34 -1c-9,0 -20,-1 -32,-3 4,12 8,25 11,38l54 0c10,-1 24,-1 40,-1l0 19 -100 0c-9,0 -18,0 -27,-1l0 36 33 -1 57 0zm-18 58c20,-13 39,-28 56,-44l0 44 -56 0zm16 50l0 -18 118 0 0 18 -118 0zm77 -50l0 -42 25 23c8,6 16,12 26,19l-51 0zm-77 100l0 -19 118 0 0 19 -118 0zm537 -240l-201 -1 0 36c17,-1 63,-1 139,-1l0 193c0,6 -2,11 -6,12 -8,2 -22,2 -42,-1 6,12 11,27 14,44 36,-1 58,-8 66,-19 3,-5 4,-12 4,-23l0 -206c9,0 18,0 27,1l0 -35zm-196 196c40,-2 77,-2 110,0 -1,-45 -1,-89 0,-129 -43,1 -79,1 -110,0 1,40 1,83 0,129zm36 -35l0 -60 38 0 0 60 -38 0zm-87 -42c8,-12 14,-20 18,-26 -3,-3 -21,-14 -52,-35 -8,13 -15,24 -23,31 19,10 36,22 52,37 2,-3 3,-5 5,-8zm33 46c1,-5 3,-9 5,-12 -14,-9 -26,-17 -34,-23 -5,20 -15,42 -28,68 -12,22 -23,38 -33,49 12,9 24,18 35,28 16,-27 35,-64 55,-110zm-64 -156c24,14 42,27 53,38 1,-1 2,-4 5,-7 10,-17 16,-27 16,-27 -18,-12 -35,-23 -52,-34 -8,12 -15,22 -22,30z"/>
  <path class="fil2" d="M1655 2785l-34 -2 0 38c75,-2 172,-2 292,0l0 -38 -53 2 -35 0c7,-12 14,-24 20,-38 -12,-4 -23,-10 -34,-17 -6,13 -14,29 -25,45l17 9 -77 0c6,-4 13,-9 21,-14 -12,-19 -21,-32 -28,-41 -9,6 -20,12 -32,17 6,8 13,21 22,38l-54 0zm-11 50l0 201 40 0c-1,-15 -1,-38 -1,-69l62 0c0,18 -1,28 -2,30 -3,2 -12,3 -28,1 4,14 7,28 9,42 22,-2 38,-5 47,-9 6,-3 9,-7 10,-12 1,-3 1,-54 1,-153l1 -31 -139 0zm38 52l0 -19 62 0 0 19 -62 0zm0 49l0 -19 62 0 0 19 -62 0zm155 42c-1,-46 -1,-88 0,-127l-39 0c1,44 1,86 0,127l39 0zm19 -142c1,101 1,153 -1,156 -1,1 -1,2 -2,3 -3,3 -14,3 -35,2 6,14 10,28 12,42 20,-2 37,-5 50,-10 6,-2 10,-6 12,-12 1,-3 1,-47 2,-131l2 -51 -40 0zm312 57l-1 46c-1,26 -5,42 -11,46 -8,6 -26,9 -53,9 7,12 12,27 16,43 16,-1 32,-4 49,-9 22,-8 35,-23 39,-45 2,-19 3,-49 4,-93l1 -34 -113 1 2 -37c80,0 129,0 147,1l0 -40 -128 1c4,-3 8,-6 13,-8 -9,-17 -20,-32 -32,-47 -11,8 -23,15 -35,20 11,11 20,23 25,35l-134 -1 0 40c16,-1 49,-1 101,-1 -1,28 -2,51 -5,68 -7,39 -26,69 -58,89 -12,8 -26,14 -42,19 10,10 19,22 29,38 55,-28 90,-63 104,-105 3,-10 6,-22 9,-36l75 0z"/>
  <path class="fil2" d="M2394 2772l164 0 0 55 -111 0 -6 37c8,-4 15,-6 23,-8 8,-2 15,-3 22,-3 25,0 45,7 60,22 15,15 23,34 23,56 0,16 -4,31 -12,46 -8,15 -19,26 -34,34 -15,8 -33,12 -56,12 -16,0 -30,-2 -42,-5 -12,-3 -22,-8 -30,-14 -8,-6 -15,-13 -20,-21 -5,-8 -9,-17 -13,-29l70 -8c2,11 6,19 12,25 6,6 14,9 22,9 10,0 18,-4 24,-11 6,-7 9,-18 9,-32 0,-15 -3,-25 -9,-32 -6,-7 -15,-10 -25,-10 -7,0 -13,2 -19,5 -5,2 -10,7 -15,13l-59 -8 22 -132zm203 122c0,-47 8,-79 25,-98 17,-19 43,-28 78,-28 17,0 30,2 41,6 11,4 19,9 26,16 7,7 12,13 16,21 4,7 7,16 9,25 5,18 7,38 7,57 0,45 -8,77 -23,98 -15,21 -41,31 -79,31 -21,0 -38,-3 -51,-10 -13,-7 -23,-16 -32,-29 -6,-9 -11,-21 -14,-37 -3,-16 -5,-33 -5,-52zm68 0c0,31 3,53 8,64 6,12 14,17 24,17 7,0 13,-2 18,-7 5,-5 9,-13 11,-23 2,-11 4,-27 4,-49 0,-33 -3,-55 -8,-66 -6,-11 -14,-17 -25,-17 -11,0 -20,6 -25,17 -5,11 -8,33 -8,64zm163 0c0,-47 8,-79 25,-98 17,-19 43,-28 78,-28 17,0 30,2 41,6 11,4 19,9 26,16 7,7 12,13 16,21 4,7 7,16 9,25 5,18 7,38 7,57 0,45 -8,77 -23,98 -15,21 -41,31 -79,31 -21,0 -38,-3 -51,-10 -13,-7 -23,-16 -32,-29 -6,-9 -11,-21 -14,-37 -3,-16 -5,-33 -5,-52zm68 0c0,31 3,53 8,64 6,12 14,17 24,17 7,0 13,-2 18,-7 5,-5 9,-13 11,-23 2,-11 4,-27 4,-49 0,-33 -3,-55 -8,-66 -6,-11 -14,-17 -25,-17 -11,0 -20,6 -25,17 -5,11 -8,33 -8,64z"/>
  <path class="fil2" d="M3074 3012l0 -113 24 0 0 16c7,-7 14,-12 22,-15 7,-3 16,-4 25,-4 12,0 22,2 29,7 4,3 8,6 12,11 8,-7 14,-11 19,-13 8,-3 17,-5 28,-5 12,0 22,2 30,7 12,7 18,17 18,31l0 78 -26 0 0 -73c0,-8 -2,-15 -6,-19 -5,-5 -12,-7 -23,-7 -11,0 -19,3 -26,9 -7,6 -10,13 -10,21l0 69 -26 0 0 -78c0,-6 -2,-11 -5,-14 -4,-5 -11,-7 -19,-7 -10,0 -18,2 -25,7 -10,7 -15,17 -15,31l0 62 -26 0z"/>
  <path class="fil2" d="M1204 2006l-1 31 40 0 0 -12 216 1 0 -36 -110 1 0 -13 90 1 0 -32 -90 1 0 -14 90 1 0 -33 -90 1 0 -14 104 1 0 -35 -104 1 12 -11 -5 -4c-1,-1 -1,-2 -2,-2 -5,-4 -12,-11 -20,-20l101 1c-1,-23 -1,-46 0,-70l-40 0 1 36 -64 0c0,-18 0,-34 1,-47l-41 0 1 47 -64 0c0,-17 0,-29 1,-38l-40 0 0 71 53 -1c-27,38 -55,62 -87,74 8,13 15,25 19,37 8,-5 18,-12 28,-21l0 98zm39 -119l67 0 0 14 -67 0 0 -14zm0 59l0 -14 67 0 0 14 -67 0zm0 45l0 -13 67 0 0 13 -67 0zm82 -173c-6,6 -15,12 -25,17 9,7 16,14 21,20l-58 0c6,-6 13,-13 19,-20 -15,-9 -24,-14 -28,-17l71 0zm172 -8l0 35 134 -1 0 13 -92 -1 0 124 52 -1c-27,12 -54,20 -82,23 11,16 18,28 21,35 43,-12 78,-24 105,-37 -7,-6 -12,-13 -17,-20l64 0c-3,7 -6,13 -9,18 27,8 60,22 100,42 6,-17 11,-29 15,-35 -23,-10 -44,-18 -64,-26l36 1c-1,-47 -1,-88 0,-124l-91 1 0 -13 130 1 0 -35 -83 1 0 -21 74 1 0 -36 -74 1c0,-8 0,-17 1,-25l-40 0c0,8 0,16 1,25l-61 0c0,-8 0,-16 1,-23l-40 0 1 23 -76 -1 0 36 76 -1 0 21 -81 -1zm119 1l0 -21 61 0 0 21 -61 0zm-38 93l0 -14 53 0 0 14 -53 0zm0 45l0 -15 53 0 0 15 -53 0zm91 -45l0 -14 52 0 0 14 -52 0zm0 45l0 -15 52 0 0 15 -52 0zm189 55l42 0 0 -8 152 0 0 8 41 0 -1 -195c0,-10 0,-20 1,-30 -73,2 -151,2 -234,0 2,71 2,146 0,226zm42 -44l0 -143 152 0 0 143 -152 0z"/>
  <path class="fil2" d="M2916 1754l0 43 39 -1 85 0 0 192 -1 48 47 0 -1 -48 0 -192 90 0 42 1 0 -43 -42 1 -220 0 -39 -1zm254 189c7,-7 15,-15 23,-22l5 -4 -13 -15 -17 -18c-16,-16 -32,-31 -48,-46 -8,10 -18,20 -30,30 13,12 25,24 34,34 13,16 26,31 39,47 2,-3 5,-5 7,-7zm252 -201c-16,-2 -33,-5 -49,-10 -18,52 -60,92 -126,120 -1,0 -1,0 -2,1 11,10 20,22 28,35 38,-21 72,-49 103,-82l22 -26c32,56 76,91 134,106 3,-10 10,-24 19,-44 -54,-8 -96,-35 -125,-80 -3,-5 -5,-9 -7,-13l2 -5zm-108 120c0,96 1,147 3,154 1,3 2,5 4,8 7,9 46,13 117,13 21,0 35,0 40,-1 16,-1 28,-3 36,-7 12,-8 23,-29 33,-61 -14,-3 -28,-9 -41,-17 -3,15 -7,28 -14,38 -4,4 -10,7 -18,9 -10,1 -27,2 -52,2l-39 -1c-10,0 -17,-1 -21,-3 -4,-1 -6,-6 -6,-13l0 -83 82 0c0,25 -3,40 -8,44 -5,3 -17,4 -36,3 -1,0 -2,0 -3,0 7,11 11,25 14,42 32,-4 53,-12 64,-24 6,-7 9,-27 9,-58 0,-12 0,-27 1,-44l-163 0z"/>
  <path class="fil2" d="M2281 1733l59 -55 59 55 0 639 154 -114 270 0c-143,58 -284,162 -424,297l0 69 -118 0 0 -891z"/>
  <polygon class="fil2" points="1478,2267 1422,2209 1478,2151 2240,2151 2240,2267 "/>
  <polygon class="fil2" points="3195,2267 3251,2209 3195,2151 2433,2151 2433,2267 "/>
 </g>
</svg>
