<?xml version="1.0" encoding="UTF-8"?>
<!DOCTYPE svg PUBLIC "-//W3C//DTD SVG 1.1//EN" "http://www.w3.org/Graphics/SVG/1.1/DTD/svg11.dtd">
<!-- Creator: CorelDRAW X5 -->
<svg xmlns="http://www.w3.org/2000/svg" xml:space="preserve" width="100mm" height="50mm" style="shape-rendering:geometricPrecision; text-rendering:geometricPrecision; image-rendering:optimizeQuality; fill-rule:evenodd; clip-rule:evenodd"
viewBox="0 0 10000 5000"
 xmlns:xlink="http://www.w3.org/1999/xlink">
 <defs>
  <style type="text/css">
   <![CDATA[
    .str0 {stroke:#2B378E;stroke-width:10}
    .str1 {stroke:#FEFEFE;stroke-width:81.48}
    .fil1 {fill:none}
    .fil2 {fill:#FEFEFE}
    .fil0 {fill:#2B378E}
   ]]>
  </style>
 </defs>
 <g id="图层_x0020_1">
  <metadata id="CorelCorpID_0Corel-Layer"/>
  <polygon class="fil0 str0" points="2295,1266 7681,1266 7681,3647 2295,3647 "/>
  <path class="fil1 str1" d="M2498 1381l4979 0c43,0 79,48 79,107l0 1935c0,59 -35,107 -79,107l-4979 0c-43,0 -79,-48 -79,-107l0 -1935c0,-59 35,-107 79,-107z"/>
  <polygon class="fil2" points="4135,3180 3347,2388 3310,2876 2982,2541 2994,1765 3776,1789 4107,2117 3607,2133 4392,2927 "/>
  <path class="fil2" d="M5501 2847c-2,32 -4,65 -4,100l141 0 -4 -96 0 -224c36,58 72,107 108,145 50,49 93,86 129,110 21,-38 48,-80 84,-127 -75,-29 -143,-87 -204,-173 -34,-49 -62,-98 -84,-146l141 0 113 3 0 -126 -113 3 -174 0 0 -131 124 0 107 4 0 -126 -108 6 -123 0 0 -90c1,-30 2,-60 4,-91l-141 0c1,28 2,56 4,84l0 96 -69 0c11,-22 21,-46 31,-71 -23,-7 -46,-15 -68,-25 -11,-4 -31,-14 -59,-28 -10,47 -22,88 -38,122 -29,58 -65,107 -106,146 37,22 73,51 109,85 14,-18 25,-33 32,-44 11,-16 25,-40 42,-71l126 0 0 130 -127 0 -123 -3 0 127 125 -3 94 0c-41,68 -94,135 -158,201 -73,74 -144,122 -212,142 23,22 42,43 58,61 11,13 25,32 41,56 34,-23 64,-45 90,-66 23,-18 45,-37 66,-56 21,-19 42,-40 64,-65 25,-27 53,-58 83,-94l0 233zm-507 -236c-21,7 -43,15 -65,21 -18,5 -45,12 -82,19 11,25 21,47 31,67l25 66c11,-3 49,-18 112,-46l86 -33c70,-22 115,-38 134,-46l6 -140c-45,21 -86,38 -123,50l0 -184 46 0 67 3 0 -123 -113 2 0 -178c48,0 92,2 131,5l0 -126c-27,1 -54,2 -82,6l-221 0c-27,-2 -54,-4 -81,-6l0 126c27,-2 54,-4 82,-5l46 0 0 178 -129 -2 0 123 62 -3 67 0 0 224zm1275 -203l0 123 104 -2c-11,87 -28,172 -51,255 50,-2 222,-4 517,-4 -7,18 -20,30 -40,37 -28,7 -82,8 -161,2 27,49 44,95 50,137 86,-3 148,-12 186,-27 46,-19 81,-68 104,-149 30,0 61,1 93,2l0 -119 -87 3c1,-47 4,-93 9,-137l103 2 0 -123 -101 2c4,-67 7,-115 8,-144l6 -97 -589 2c14,-22 28,-44 42,-65l606 3 0 -124 -540 4c14,-22 27,-48 41,-76 -34,-5 -79,-20 -135,-44 -44,137 -112,240 -204,308 36,27 70,60 100,100 23,-23 49,-52 76,-86 0,67 -7,140 -21,219l-116 -2zm209 258l24 -137 148 0c-33,18 -57,30 -74,37 44,43 74,77 91,100l-188 0zm39 -256l14 -122 128 0c-19,16 -44,31 -75,47l75 75 -142 0zm209 256l40 -25c8,-3 17,-8 27,-15 -27,-31 -57,-64 -90,-98l166 0c-2,48 -6,94 -10,137l-133 0zm17 -256c14,-11 29,-22 44,-31 -27,-29 -56,-59 -87,-91l178 0 -4 122 -131 0zm-502 -80c5,-7 10,-14 16,-22 -30,-25 -86,-68 -167,-127 -25,43 -51,78 -77,104 61,38 117,83 168,135 9,-20 29,-50 60,-90zm46 222c-5,-2 -44,-30 -115,-83 -7,43 -30,112 -70,205 -34,72 -63,122 -85,149 46,32 83,68 113,107 41,-82 93,-207 157,-378zm-8 -499c11,-20 22,-34 31,-42 -58,-49 -113,-94 -167,-133 -21,36 -48,69 -83,101 68,47 125,95 171,144 3,-4 9,-13 18,-26 9,-14 19,-29 30,-44z"/>
 </g>
</svg>
