<?xml version="1.0" encoding="UTF-8"?>
<!DOCTYPE svg PUBLIC "-//W3C//DTD SVG 1.1//EN" "http://www.w3.org/Graphics/SVG/1.1/DTD/svg11.dtd">
<!-- Creator: CorelDRAW X5 -->
<svg xmlns="http://www.w3.org/2000/svg" xml:space="preserve" width="50mm" height="50mm" style="shape-rendering:geometricPrecision; text-rendering:geometricPrecision; image-rendering:optimizeQuality; fill-rule:evenodd; clip-rule:evenodd"
viewBox="0 0 5000 5000"
 xmlns:xlink="http://www.w3.org/1999/xlink">
 <defs>
  <style type="text/css">
   <![CDATA[
    .str0 {stroke:#E62129;stroke-width:100}
    .fil0 {fill:#E62129}
    .fil2 {fill:#FEFEFE}
    .fil1 {fill:#FEFEFE;fill-rule:nonzero}
   ]]>
  </style>
 </defs>
 <g id="图层_x0020_1">
  <metadata id="CorelCorpID_0Corel-Layer"/>
  <polygon class="fil0 str0" points="820,1668 4172,1668 4172,3481 820,3481 "/>
  <g>
   <path class="fil1" d="M3923 1822l-2848 0 0 -74 2848 0 0 0 0 74zm181 201l-73 0 0 0 0 -11 -1 -11 -1 -11 -1 -11 -1 -10 -2 -10 -2 -10 -2 -10 -3 -9 -3 -9 -3 -9 -3 -8 -3 -8 -4 -8 -4 -7 -4 -7 -4 -7 -4 -6 -4 -6 -4 -5 -5 -5 -5 -4 -5 -4 -5 -3 -5 -3 -4 -3 -4 -2 -4 -2 -4 -1 -4 -1 -4 -1 -4 0 0 -74 10 0 10 1 10 2 10 3 10 4 9 4 9 5 9 6 8 6 8 7 8 7 7 8 7 8 7 8 6 9 6 9 6 10 5 10 5 10 5 11 4 11 4 11 4 11 3 12 3 12 3 12 2 12 2 13 1 13 1 13 1 13 0 13 0 0zm-73 1110l0 -1110 73 0 0 1110 0 0 -73 0zm-108 275l0 -74 0 0 4 0 4 -1 4 -1 4 -1 4 -2 4 -2 4 -3 5 -3 5 -3 5 -4 5 -4 5 -5 4 -5 4 -6 4 -6 4 -7 4 -7 4 -7 4 -8 3 -8 3 -8 3 -9 3 -9 3 -9 2 -10 2 -10 2 -10 1 -10 1 -11 1 -11 1 -11 0 -11 73 0 0 13 -1 13 -1 13 -1 13 -2 13 -2 12 -3 12 -3 12 -3 12 -4 11 -4 11 -4 11 -5 11 -5 10 -5 10 -6 10 -6 9 -6 9 -7 8 -7 8 -7 8 -8 7 -8 7 -8 6 -9 6 -9 5 -9 4 -10 4 -10 3 -10 2 -10 1 -10 0 0 0zm-2848 -74l2848 0 0 74 -2848 0 0 0 0 -74zm-181 -201l73 0 0 0 0 11 1 11 1 11 1 11 1 10 2 10 2 10 2 10 3 9 3 9 3 9 3 8 3 8 4 8 4 7 4 7 4 7 4 6 4 6 4 5 5 5 5 4 5 4 5 3 5 3 4 3 4 2 4 2 4 1 4 1 4 1 4 0 0 74 -10 0 -10 -1 -10 -2 -10 -3 -10 -4 -9 -4 -9 -5 -9 -6 -8 -6 -8 -7 -8 -7 -7 -8 -7 -8 -7 -8 -6 -9 -6 -9 -6 -10 -5 -10 -5 -10 -5 -11 -4 -11 -4 -11 -4 -11 -3 -12 -3 -12 -3 -12 -2 -12 -2 -13 -1 -13 -1 -13 -1 -13 0 -13 0 0zm73 -1110l0 1110 -73 0 0 -1110 0 0 73 0zm108 -275l0 74 0 0 -4 0 -4 1 -4 1 -4 1 -4 2 -4 2 -4 3 -5 3 -5 3 -5 4 -5 4 -5 5 -4 5 -4 6 -4 6 -4 7 -4 7 -4 7 -4 8 -3 8 -3 8 -3 9 -3 9 -3 9 -2 10 -2 10 -2 10 -1 10 -1 11 -1 11 -1 11 0 11 -73 0 0 -13 1 -13 1 -13 1 -13 2 -13 2 -12 3 -12 3 -12 3 -12 4 -11 4 -11 4 -11 5 -11 5 -10 5 -10 6 -10 6 -9 6 -9 7 -8 7 -8 7 -8 8 -7 8 -7 8 -6 9 -6 9 -5 9 -4 10 -4 10 -3 10 -2 10 -1 10 0 0 0z"/>
  </g>
  <path class="fil2" d="M1689 2664l0 -185 271 0 0 378c-52,55 -98,93 -138,113 -40,20 -87,30 -142,30 -67,0 -122,-18 -165,-54 -43,-36 -76,-89 -99,-160 -23,-71 -35,-153 -35,-244 0,-97 13,-181 38,-253 26,-72 63,-126 112,-163 39,-29 90,-43 155,-43 63,0 110,9 141,27 31,18 57,45 78,83 21,37 36,85 46,142l-169 47c-7,-33 -19,-59 -36,-77 -17,-18 -38,-27 -64,-27 -39,0 -69,21 -92,63 -23,42 -34,108 -34,198 0,96 12,165 35,206 23,41 55,62 97,62 20,0 38,-5 56,-13 18,-9 38,-24 61,-45l0 -84 -117 0z"/>
  <path class="fil2" d="M2381 2130l0 864 -173 0 0 -566c-28,29 -55,53 -81,71 -26,18 -59,36 -99,52l0 -194c58,-26 104,-57 136,-93 32,-36 57,-81 76,-134l142 0zm186 436c0,-161 21,-275 63,-339 42,-64 106,-97 193,-97 41,0 76,7 102,21 27,14 48,32 65,55 17,23 30,46 40,71 10,25 18,54 23,87 11,63 17,130 17,198 0,154 -19,267 -57,338 -38,72 -103,107 -195,107 -52,0 -94,-11 -126,-34 -32,-23 -58,-56 -79,-100 -15,-31 -26,-74 -35,-128 -8,-54 -12,-114 -12,-180zm170 1c0,108 7,182 21,222 14,40 34,60 60,60 17,0 32,-9 45,-25 13,-17 22,-43 28,-80 6,-36 9,-93 9,-170 0,-113 -7,-189 -21,-227 -14,-39 -35,-58 -62,-58 -28,0 -49,20 -61,59 -13,40 -19,113 -19,220zm473 -422l406 0 0 188 -275 0 -15 128c19,-12 38,-22 57,-28 19,-6 37,-9 55,-9 62,0 112,26 150,77 38,51 58,116 58,194 0,55 -10,108 -30,158 -20,51 -48,89 -84,116 -36,27 -83,40 -139,40 -41,0 -75,-5 -104,-16 -29,-11 -54,-27 -74,-48 -20,-21 -37,-45 -49,-71 -13,-27 -23,-60 -32,-100l173 -26c4,38 14,67 29,87 15,20 34,30 55,30 24,0 43,-12 59,-37 15,-25 23,-62 23,-112 0,-51 -8,-88 -24,-111 -16,-24 -37,-35 -63,-35 -16,0 -33,6 -48,17 -11,8 -24,23 -38,44l-146 -29 54 -457z"/>
 </g>
</svg>
