<?xml version="1.0" encoding="UTF-8"?>
<!DOCTYPE svg PUBLIC "-//W3C//DTD SVG 1.1//EN" "http://www.w3.org/Graphics/SVG/1.1/DTD/svg11.dtd">
<!-- Creator: CorelDRAW X5 -->
<svg xmlns="http://www.w3.org/2000/svg" xml:space="preserve" width="50mm" height="50mm" style="shape-rendering:geometricPrecision; text-rendering:geometricPrecision; image-rendering:optimizeQuality; fill-rule:evenodd; clip-rule:evenodd"
viewBox="0 0 5000 5000"
 xmlns:xlink="http://www.w3.org/1999/xlink">
 <defs>
  <style type="text/css">
   <![CDATA[
    .str0 {stroke:#2B378E;stroke-width:7.6}
    .fil1 {fill:#E62129}
    .fil2 {fill:#FEFEFE}
    .fil0 {fill:#2B378E}
    .fil3 {fill:#FEFEFE;fill-rule:nonzero}
   ]]>
  </style>
 </defs>
 <g id="图层_x0020_1">
  <metadata id="CorelCorpID_0Corel-Layer"/>
  <polygon class="fil0 str0" points="1270,1199 3423,1199 3423,4172 1270,4172 "/>
  <rect class="fil1" x="1557" y="1654" width="1579" height="429"/>
  <rect class="fil2" x="2120" y="2084" width="464" height="1834"/>
  <g>
   <path class="fil3" d="M3096 1349l-1428 0 0 -82 1428 0 2 82 -2 0zm2 0l-1 0 -1 0 2 0zm253 262l-81 0 0 2 -1 -30 -1 -28 -1 -26 -1 -24 -1 -22 -1 -21 -1 -19 -1 -17 -1 -15 -1 -14 -2 -12 -2 -10 -2 -8 -2 -6 -2 -5 -2 -3 -1 -2 -1 -1 -1 -1 -2 -1 -3 -1 -5 -1 -6 -1 -8 -1 -10 0 -12 0 -13 0 -15 1 -16 1 -18 1 -19 1 -21 1 -5 -82 21 -1 19 -1 18 -1 17 -1 16 -1 15 0 14 0 14 1 13 1 13 2 13 3 12 5 12 6 11 8 10 10 8 11 6 12 5 12 4 13 3 13 2 14 2 15 2 16 1 17 1 18 1 20 1 21 1 23 1 24 1 26 1 28 1 30 0 2zm0 -2l0 1 0 1 0 -2zm-81 2192l0 -2190 81 0 0 2190 0 1 -81 -1zm81 0l0 1 0 1 0 -1zm-266 309l0 -82 0 0 20 0 19 0 17 0 16 -1 15 -1 13 -1 12 -2 10 -2 9 -2 7 -3 6 -3 5 -3 4 -3 3 -3 3 -3 3 -4 3 -4 2 -5 2 -6 2 -7 2 -8 2 -10 2 -11 1 -12 1 -13 1 -14 1 -15 1 -16 1 -17 1 -19 1 -20 1 -21 81 3 -1 21 -1 20 -1 19 -1 18 -1 17 -1 16 -1 16 -1 15 -2 14 -2 14 -2 13 -3 13 -4 12 -5 12 -6 12 -7 11 -8 11 -9 10 -10 9 -11 8 -12 6 -12 5 -13 4 -14 4 -14 3 -15 2 -16 2 -17 1 -18 1 -19 1 -20 0 -22 0 0 0zm0 -82l0 0 -1 0 0 0zm-1523 0l1523 0 0 82 -1523 0 -1 -82 1 0zm-1 0l0 0 1 0 -1 0zm-218 -175l81 0 0 -2 1 17 1 16 0 16 0 15 0 14 0 13 0 12 0 11 0 10 1 9 1 8 1 7 1 5 1 4 1 3 1 2 1 2 1 1 1 1 2 1 3 1 4 2 5 2 6 2 8 1 9 1 11 1 12 1 14 0 15 0 16 0 18 0 2 82 -19 0 -18 0 -17 0 -16 -1 -15 -1 -14 -1 -13 -2 -12 -2 -12 -3 -11 -4 -11 -5 -10 -6 -10 -7 -9 -8 -8 -9 -6 -10 -5 -10 -4 -10 -3 -10 -2 -10 -2 -11 -1 -11 -1 -11 -1 -11 0 -12 0 -12 0 -13 0 -14 0 -14 0 -15 -1 -16 -1 -16 0 -2zm0 2l0 -1 0 -1 0 2zm81 -2340l0 2338 -81 0 0 -2338 81 -2 0 2zm0 -2l0 1 0 1 0 -2zm243 -246l0 82 -4 0 -24 -2 -23 -2 -21 -1 -20 -1 -18 0 -17 1 -15 1 -14 2 -12 2 -11 2 -10 3 -8 3 -7 3 -6 3 -5 3 -4 4 -4 4 -3 4 -3 5 -3 5 -2 6 -2 7 -2 8 -2 8 -1 9 -1 10 -1 11 0 12 0 13 0 13 0 14 1 15 -81 4 -1 -16 0 -15 0 -15 0 -14 0 -14 1 -14 1 -13 2 -13 2 -13 3 -13 4 -12 5 -12 6 -12 7 -11 8 -11 10 -10 11 -9 12 -8 12 -7 13 -6 14 -5 15 -4 16 -3 16 -3 17 -2 18 -1 19 -1 21 0 22 1 23 1 24 2 26 2 -4 0zm0 82l-2 0 -2 0 4 0z"/>
  </g>
 </g>
</svg>
