<?xml version="1.0" encoding="UTF-8"?>
<!DOCTYPE svg PUBLIC "-//W3C//DTD SVG 1.1//EN" "http://www.w3.org/Graphics/SVG/1.1/DTD/svg11.dtd">
<!-- Creator: CorelDRAW X5 -->
<svg xmlns="http://www.w3.org/2000/svg" xml:space="preserve" width="50mm" height="50mm" style="shape-rendering:geometricPrecision; text-rendering:geometricPrecision; image-rendering:optimizeQuality; fill-rule:evenodd; clip-rule:evenodd"
viewBox="0 0 5000 5000"
 xmlns:xlink="http://www.w3.org/1999/xlink">
 <defs>
  <style type="text/css">
   <![CDATA[
    .str0 {stroke:#2B378E;stroke-width:10}
    .str1 {stroke:#FEFEFE;stroke-width:40.88}
    .fil1 {fill:none}
    .fil2 {fill:#FEFEFE}
    .fil0 {fill:#2B378E}
   ]]>
  </style>
 </defs>
 <g id="图层_x0020_1">
  <metadata id="CorelCorpID_0Corel-Layer"/>
  <polygon class="fil0 str0" points="368,1139 4491,1139 4491,3539 368,3539 "/>
  <path class="fil1 str1" d="M507 1230l3846 0c33,0 61,50 61,111l0 1996c0,61 -27,111 -61,111l-3846 0c-33,0 -61,-50 -61,-111l0 -1996c0,-61 27,-111 61,-111z"/>
  <path class="fil2" d="M1259 2881l-75 -78 75 -78 768 0c60,-27 103,-75 130,-144 44,-33 90,-67 150,-100l40 -82 -4 -327 80 -81 77 82 7 338 34 53c12,36 46,55 91,66 39,33 73,82 103,147l63 37 788 4 72 78 -70 75 -775 -5c-72,28 -119,82 -142,167 -91,25 -143,73 -167,139l-2 98 -169 3 1 -100 -21 -32 14 -26 72 -153c218,-13 239,-270 46,-330 -174,-15 -252,192 -115,300l-105 123c-66,-73 -133,-163 -199,-174l-768 0z"/>
  <path class="fil2" d="M613 2518c14,17 26,35 34,56 89,-41 146,-87 170,-138 4,-9 8,-19 11,-31 27,67 78,121 154,163l15 9c7,-15 19,-34 37,-59 -63,-14 -111,-51 -144,-111 -33,-57 -47,-145 -42,-265 0,-2 0,-3 0,-5 -31,0 -51,0 -61,-1 8,160 -6,261 -41,305 -5,6 -10,12 -17,18 -36,30 -75,49 -117,58zm35 -156c19,4 38,11 57,21 17,-41 28,-92 34,-152 -19,-2 -39,-6 -58,-13 -4,62 -15,110 -33,144zm327 -42c8,-22 16,-46 24,-72 -24,-6 -43,-14 -57,-22 -10,55 -25,100 -45,137 19,6 36,15 52,26l26 -69zm95 116l0 57 183 -1c0,24 0,49 -1,74l58 0c-1,-17 -2,-41 -2,-74l171 1 0 -57 -171 2 0 -60 132 1 0 -55 -132 2c0,-25 1,-46 2,-64l-58 0c1,26 1,47 1,64l-55 0 52 -80 216 1 0 -55 -191 2 22 -47c-20,-5 -40,-10 -57,-18 -6,21 -15,43 -25,64l-133 -2 0 55 106 -1c-24,45 -51,76 -82,92 3,10 6,23 9,40l138 0 0 60 -183 -2zm538 23l-24 7c-14,4 -26,7 -36,10 -8,2 -17,4 -27,5 8,18 15,37 21,57l77 -30 87 -29 4 -55c-14,6 -27,11 -42,16 3,-10 5,-21 8,-34 4,-15 8,-37 14,-66l8 -42c-13,-1 -25,-3 -36,-6l-18 -3c0,11 0,21 -1,30 -1,10 -2,22 -5,35 -4,23 -7,43 -11,58 -3,10 -6,22 -11,34 4,2 10,4 15,6l-22 7zm-82 -179c11,0 22,-1 33,-1l118 0c10,0 20,0 30,1l0 -50c-10,0 -20,0 -30,1l-50 0c9,-4 17,-6 26,-8 0,-2 0,-4 -1,-5 -10,-36 -16,-60 -19,-72 -12,6 -30,11 -53,15 9,25 16,48 19,70l-72 -1 0 50zm14 25c10,44 17,92 21,144 4,-2 7,-3 11,-5 4,-1 7,-2 10,-4l29 -9 -19 -130c0,-2 -1,-4 -1,-6 -17,5 -34,8 -51,10zm174 41l1 40 0 134 -1 43 53 0 0 -7 104 0 0 9 51 0 -1 -45 0 -134 1 -40c-11,0 -22,0 -33,1l-58 0 0 -71 101 1 0 -52c-12,0 -24,0 -35,1l-65 0 0 -46 2 -42 -55 0 2 46 0 164 -34 0c-11,0 -22,-1 -32,-1zm53 161l0 -112 104 0 0 112 -104 0z"/>
  <path class="fil2" d="M2942 2184l0 55 172 -1c0,10 0,19 0,30l-151 -2c2,94 2,192 0,293l56 0 -1 -243 62 0c-7,6 -14,10 -21,14 11,11 19,22 27,34l-49 -1 0 48 80 -1 0 24 -80 -1 0 48 80 -1 -1 75 56 0 -1 -75 73 1 0 -48 -73 1 0 -24 72 1 0 -48 -41 1c2,-3 8,-12 17,-29 2,-4 4,-7 4,-9 -7,-3 -14,-6 -20,-10l56 0 -1 184c-1,4 -3,6 -7,8 -11,2 -24,1 -39,-1 8,21 14,42 17,63 39,0 65,-7 76,-21 4,-6 7,-20 7,-41 0,-144 1,-224 2,-242l-144 2c0,-10 0,-20 0,-30l164 1 0 -55 -163 2c0,-13 1,-28 2,-45 -17,0 -37,-1 -61,-4 1,13 1,29 0,49l-172 -2zm231 132c-4,12 -11,26 -21,42 4,1 9,3 13,6l-48 0c4,-5 9,-10 17,-14l-28 -34 67 0zm289 -58l-1 129 56 0c-1,-69 -1,-124 0,-163l-18 0c25,-24 43,-44 56,-59 -19,-11 -37,-23 -52,-34 -32,54 -71,90 -118,107 15,16 26,33 33,53l45 -33zm-69 153l0 58 171 -1 -2 103 61 0 -1 -103 169 1 0 -58 -169 2c0,-11 0,-22 1,-33l-60 0c0,10 0,21 1,33l-171 -2zm208 -269c1,23 1,57 1,102 -25,10 -48,15 -70,15 8,11 16,30 25,56 4,-1 19,-5 45,-12 0,34 2,54 6,61 9,13 49,20 120,20 16,0 28,-2 35,-7 16,-11 28,-36 37,-74 -22,-6 -40,-14 -54,-22 -3,20 -8,33 -15,40 -6,5 -16,7 -32,7 -16,0 -26,-1 -31,-2 -7,-3 -11,-8 -12,-17l0 -26c18,-6 52,-24 103,-52 5,-3 11,-6 17,-10 -16,-15 -31,-31 -43,-49 -22,22 -48,39 -77,52l1 -81 -57 0zm249 367c-4,0 -9,1 -13,2 12,24 20,42 25,56 26,-13 76,-30 149,-53 1,-16 3,-34 7,-56 -21,8 -41,15 -61,22l0 -63c20,0 36,0 49,1l0 -41c6,8 12,17 16,25 4,-3 7,-5 11,-8l-1 170 51 0 0 -7 89 0 0 7 52 0c-3,-71 -3,-130 -1,-176 6,2 13,4 19,7l21 -55c-42,-9 -78,-24 -109,-46 29,-37 51,-70 65,-98l-19 -29 -89 0c4,-7 7,-15 11,-22 -19,-4 -34,-7 -42,-10 -5,-1 -9,-2 -14,-4 -9,42 -29,78 -62,107 0,-33 0,-61 1,-82l-152 0c2,52 2,106 0,159l57 -1 0 181c-4,2 -9,3 -14,5 0,-83 1,-134 2,-155l-50 0 1 166zm107 -243l-54 0 0 -65 54 0 0 65zm43 101l-43 1 0 -56 49 1c-1,-21 -1,-41 -1,-61 7,9 15,22 22,37 3,-4 7,-9 13,-15 5,-6 10,-12 13,-16 1,-2 3,-4 5,-7 6,15 15,29 27,43 -32,28 -64,48 -97,61l11 12zm68 4c18,-13 35,-27 52,-42 23,17 45,31 66,42l-118 0zm16 136l0 -87 89 0 0 87 -89 0zm67 -294c-10,18 -20,33 -30,45 -13,-15 -23,-30 -31,-45l61 0z"/>
  <path class="fil2" d="M2321 1753c-5,9 -15,21 -28,35 33,23 61,44 85,63l14 -25 12 -17c-3,-3 -24,-18 -62,-44 -6,-4 -11,-7 -17,-11l91 1 0 -47 -34 1 0 -168c0,-10 0,-21 1,-32 -11,0 -21,0 -31,1l-53 0 1 -14 108 1 0 -49 -34 1 -70 0c0,-11 1,-22 2,-32 -10,0 -19,0 -27,-1 -7,-1 -15,-2 -23,-5 -1,12 -1,25 -2,38l-69 0 -27 -1 0 49c10,0 20,-1 30,-1l63 0c0,5 -1,9 -1,14l-72 -1 1 35 0 165 -27 -1 0 47c7,0 14,-1 22,-1l48 0c-13,14 -26,26 -39,36 -15,10 -31,18 -48,25 8,7 15,14 20,19 5,6 11,12 17,20 24,-16 43,-30 57,-41 11,-8 22,-18 35,-30 -10,-5 -17,-9 -20,-13 -2,-1 -9,-6 -19,-16l95 0zm-95 -189l0 -15 110 0 0 15 -110 0zm0 47l0 -14 110 0 0 14 -110 0zm0 48l0 -14 110 0 0 14 -110 0zm0 48l0 -15 110 0 0 15 -110 0zm-210 -107c12,-1 25,-1 38,-1l0 47 -57 -1 0 47 57 -1 0 82c0,5 -4,11 -11,17 6,17 12,35 17,56 4,-4 8,-7 12,-11 3,-2 5,-4 6,-5l25 -21 19 -17c13,-11 22,-18 26,-21 -2,-20 -3,-33 -3,-39l0 -12c-11,9 -20,16 -27,22 -6,4 -12,9 -20,14l0 -65 61 1 0 -47 -61 1 0 -47c15,0 32,0 51,1l0 -45c-9,0 -18,0 -27,1l-78 0c5,-8 10,-15 13,-21 3,-6 6,-13 10,-22l55 0c10,0 19,0 29,1l0 -48 -69 1c5,-15 9,-31 14,-48 -19,-4 -36,-8 -52,-13 -2,18 -4,35 -8,52 -12,43 -25,71 -42,85 -2,2 -4,4 -6,6 2,9 4,18 5,26l5 32c5,-5 11,-9 16,-13l0 7zm442 56l175 -2 0 127c0,3 -2,5 -4,6 -3,1 -17,2 -41,1 6,19 11,38 14,58 36,0 61,-4 75,-11 9,-5 13,-14 13,-29l0 -154 172 2 0 -57 -64 2 -278 0 -60 -2 0 57zm5 -81l57 0 -1 -57 278 0 -1 55 57 0c-1,-38 -1,-74 0,-110l-168 2 9 -5c1,0 2,-1 3,-1 -11,-18 -22,-37 -34,-55 -18,8 -36,14 -53,20 13,21 20,35 23,41l-170 -2 0 112z"/>
 </g>
</svg>
