<?xml version="1.0" encoding="UTF-8"?>
<!DOCTYPE svg PUBLIC "-//W3C//DTD SVG 1.1//EN" "http://www.w3.org/Graphics/SVG/1.1/DTD/svg11.dtd">
<!-- Creator: CorelDRAW X5 -->
<svg xmlns="http://www.w3.org/2000/svg" xml:space="preserve" width="50mm" height="50mm" style="shape-rendering:geometricPrecision; text-rendering:geometricPrecision; image-rendering:optimizeQuality; fill-rule:evenodd; clip-rule:evenodd"
viewBox="0 0 5000 5000"
 xmlns:xlink="http://www.w3.org/1999/xlink">
 <defs>
  <style type="text/css">
   <![CDATA[
    .str0 {stroke:#006DB8;stroke-width:7.6}
    .str1 {stroke:#FEFEFE;stroke-width:73.32}
    .fil1 {fill:none}
    .fil2 {fill:#FEFEFE}
    .fil0 {fill:#2B378E}
   ]]>
  </style>
 </defs>
 <g id="图层_x0020_1">
  <metadata id="CorelCorpID_0Corel-Layer"/>
  <polygon class="fil0 str0" points="457,1844 4443,1844 4443,3393 457,3393 "/>
  <path class="fil1 str1" d="M761 1944l3386 0c94,0 171,91 171,203l0 948c0,112 -77,203 -171,203l-3386 0c-94,0 -171,-91 -171,-203l0 -948c0,-112 77,-203 171,-203z"/>
  <path class="fil2" d="M1021 2215c-28,0 -58,-1 -91,-3l2 39c6,285 9,445 7,480 -8,54 -16,89 -24,105 -5,6 -10,14 -16,22 28,30 49,59 64,85 30,-44 48,-98 55,-162 2,-33 2,-222 2,-566zm23 50c5,181 5,371 0,570l84 0 -3 -506c0,-22 1,-43 3,-64l-84 0zm194 -61l-89 0 1 718c-1,5 -1,10 -1,16l89 0c-1,-44 -3,-266 -3,-666 0,-23 1,-45 3,-67zm252 340c2,-35 3,-55 3,-61l-91 0c5,148 -2,243 -21,284 -9,21 -32,42 -68,63 -19,11 -42,21 -70,28 23,25 43,53 60,83 64,-40 113,-79 145,-118 34,19 87,57 157,114 16,-30 31,-55 48,-75 -36,-22 -88,-59 -156,-112 -6,10 -17,24 -32,41 10,-33 16,-66 19,-98l6 -150zm-236 -233c40,-2 87,-2 141,-2 0,21 -1,41 -3,61 -34,0 -73,-1 -117,-2 4,120 4,252 0,398l90 0 -2 -316 163 0 -1 304 89 0c-4,-137 -4,-265 0,-385 -34,2 -78,2 -132,2l5 -61 146 2 0 -87c-135,4 -262,4 -378,0l0 87zm1109 625c6,2 12,3 18,6 8,-37 23,-75 45,-116 -41,-1 -82,-7 -125,-19 -47,-13 -96,-37 -150,-72 36,-42 67,-100 93,-171 23,-68 48,-154 73,-260 -8,-2 -17,-4 -25,-6 -20,-5 -36,-10 -48,-14 -10,-3 -22,-8 -36,-13 -3,30 -8,63 -15,99 -17,80 -36,146 -58,196 -19,44 -38,79 -59,105 -22,-26 -39,-49 -52,-70 -26,-41 -49,-93 -67,-155 -9,-35 -16,-80 -19,-135 -30,2 -54,3 -72,4 -9,0 -21,-1 -36,-2 5,30 10,57 15,80l13 59c9,33 20,66 33,98 23,58 60,119 111,183 -42,28 -88,51 -139,69 -51,16 -102,26 -152,28 22,32 39,66 53,104 66,-13 131,-34 195,-64 20,-9 38,-19 54,-28 17,-10 38,-23 62,-39 30,24 62,44 94,62 49,27 96,46 142,58 16,4 32,8 49,13zm-407 -688c22,30 41,58 56,83 8,13 14,24 20,35 5,11 12,26 20,43 20,-14 37,-26 50,-36l41 -22c-33,-56 -67,-107 -103,-153 -30,21 -58,37 -84,50zm550 313c36,-1 66,-2 92,-2l0 225c-26,12 -56,25 -88,37l30 113c42,-50 78,-77 109,-81l2 0c5,0 23,16 54,47 30,27 93,40 188,40 131,2 236,2 317,1 3,-35 11,-67 24,-98 -270,16 -428,12 -473,-13 -16,-8 -41,-28 -73,-59l2 -304 -182 0 0 93zm131 -164c11,-13 24,-25 37,-36 4,-5 8,-9 13,-14 2,-2 5,-4 8,-7l-97 -124c-35,28 -62,49 -80,61 30,35 64,79 104,134 5,-5 10,-9 15,-14zm63 -96l0 90 204 -2c-2,12 -4,23 -6,35l-151 -4 2 399c159,-5 300,-5 423,0 -5,-142 -5,-274 -1,-397 -42,2 -102,2 -180,2l9 -35c112,0 186,1 220,2l0 -90 -145 2c12,-16 27,-37 43,-62 -18,-7 -45,-21 -83,-42 -19,35 -38,64 -56,89l29 15 -131 0c9,-8 20,-15 32,-21 -12,-16 -35,-44 -69,-83 -19,12 -45,26 -77,42l54 62 -116 -2zm378 401l0 34 -238 0 0 -34 238 0zm-238 -66l0 -35 238 0 0 35 -238 0zm0 -103c-1,-12 -1,-23 -1,-35l239 0 0 35 -238 0zm805 -334c9,183 9,345 -1,486 -4,46 -18,83 -42,113 -9,10 -20,21 -32,32 -16,13 -40,27 -74,44 27,23 51,46 73,72 101,-74 155,-149 162,-226 2,-21 3,-57 4,-109l6 -405c-22,0 -54,-2 -96,-7zm-23 168c-25,0 -49,-3 -72,-9 9,136 4,236 -15,300 16,2 44,10 86,25 6,-41 11,-112 13,-211l1 -105 -13 0zm96 537c114,-4 216,-4 307,0l0 -90 -105 2 0 -221c37,0 70,1 97,2l0 -91c-28,2 -60,2 -97,2l0 -178c28,0 62,1 103,2l0 -91 -269 0 0 91c28,-2 55,-2 80,-2l0 178c-30,0 -57,-1 -82,-2l0 91c23,-2 51,-2 82,-2l0 221 -116 -2 0 90zm-330 -146c-32,12 -62,21 -93,29 2,2 14,35 39,100 73,-41 150,-76 231,-103 -1,-19 -1,-38 -2,-57 1,-9 1,-23 2,-42 -45,22 -75,36 -90,41l0 -152c26,0 47,1 66,1l0 -88 -66 2 0 -154c32,0 63,1 93,2l0 -91c-100,3 -187,3 -262,0l0 91c31,-2 58,-2 82,-2l0 154 -83 -2 0 88c17,0 45,-1 83,-1l0 184z"/>
 </g>
</svg>
