<?xml version="1.0" encoding="UTF-8"?>
<!DOCTYPE svg PUBLIC "-//W3C//DTD SVG 1.1//EN" "http://www.w3.org/Graphics/SVG/1.1/DTD/svg11.dtd">
<!-- Creator: CorelDRAW X5 -->
<svg xmlns="http://www.w3.org/2000/svg" xml:space="preserve" width="30mm" height="30mm" style="shape-rendering:geometricPrecision; text-rendering:geometricPrecision; image-rendering:optimizeQuality; fill-rule:evenodd; clip-rule:evenodd"
viewBox="0 0 3000 3000"
 xmlns:xlink="http://www.w3.org/1999/xlink">
 <defs>
  <style type="text/css">
   <![CDATA[
    .str0 {stroke:#E62129;stroke-width:7.62}
    .fil1 {fill:#332C2B}
    .fil0 {fill:#E62129}
   ]]>
  </style>
 </defs>
 <g id="图层_x0020_1">
  <metadata id="CorelCorpID_0Corel-Layer"/>
  <path class="fil0 str0" d="M433 487l2093 0c115,7 115,113 0,319l-915 1797c-81,106 -154,106 -221,0l-958 -1803c-145,-200 -126,-284 0,-314zm280 391l1540 0 -747 1426 -793 -1426z"/>
  <path class="fil1" d="M1338 1570l319 -2c17,0 35,1 54,2l0 -69 -162 2 0 -247 143 1 0 -68 -143 1 2 -147 -73 0 2 459 -132 -2 73 -59c-6,-37 -10,-63 -11,-78 -21,22 -49,45 -85,69l2 -236 -162 0 0 67c27,-1 57,-2 91,-2 0,126 -1,195 -4,205 -2,7 -7,15 -14,23 13,26 25,53 37,81 33,-33 52,-52 56,-55 2,-1 5,-4 8,-7l0 62zm-16 -394c0,0 11,-12 33,-35 5,-5 9,-10 13,-16l-69 -66c-6,-5 -11,-10 -17,-16 -14,15 -32,31 -53,48 41,35 71,64 90,88 0,-1 1,-2 3,-4z"/>
 </g>
</svg>
