<?xml version="1.0" encoding="UTF-8"?>
<!DOCTYPE svg PUBLIC "-//W3C//DTD SVG 1.1//EN" "http://www.w3.org/Graphics/SVG/1.1/DTD/svg11.dtd">
<!-- Creator: CorelDRAW X5 -->
<svg xmlns="http://www.w3.org/2000/svg" xml:space="preserve" width="30mm" height="30mm" style="shape-rendering:geometricPrecision; text-rendering:geometricPrecision; image-rendering:optimizeQuality; fill-rule:evenodd; clip-rule:evenodd"
viewBox="0 0 3000 3000"
 xmlns:xlink="http://www.w3.org/1999/xlink">
 <defs>
  <style type="text/css">
   <![CDATA[
    .str1 {stroke:#332C2B;stroke-width:0.13}
    .str0 {stroke:#E62129;stroke-width:7.62}
    .fil1 {fill:#332C2B}
    .fil0 {fill:#E62129}
   ]]>
  </style>
 </defs>
 <g id="图层_x0020_1">
  <metadata id="CorelCorpID_0Corel-Layer"/>
  <path class="fil0 str0" d="M1596 388c601,0 1092,485 1092,1079 0,594 -490,1079 -1092,1079 -601,0 -1092,-485 -1092,-1079 0,-594 490,-1079 1092,-1079zm0 222c478,0 867,385 867,857 0,472 -390,857 -867,857 -478,0 -867,-385 -867,-857 0,-472 390,-857 867,-857z"/>
  <polygon class="fil0 str0" points="875,813 1029,834 2317,2010 2317,2121 2205,2121 917,938 "/>
  <polygon class="fil1 str1" points="1712,1480 1513,1676 1513,1852 1649,1738 1649,2059 1770,2059 1770,1738 1895,1857 1895,1676 "/>
  <path class="fil1 str1" d="M1711 702l-203 211 -5 183 156 -178 0 159 -471 269c-78,32 -119,91 -123,178l-2 352c14,73 97,97 145,145l401 211 -1 -156 -316 -156c-48,-31 -91,-66 -96,-128l3 -231c-10,-57 22,-88 74,-108l487 -283 0 -253 136 187 0 -193 -185 -211z"/>
 </g>
</svg>
