<?xml version="1.0" encoding="UTF-8"?>
<!DOCTYPE svg PUBLIC "-//W3C//DTD SVG 1.1//EN" "http://www.w3.org/Graphics/SVG/1.1/DTD/svg11.dtd">
<!-- Creator: CorelDRAW X5 -->
<svg xmlns="http://www.w3.org/2000/svg" xml:space="preserve" width="30mm" height="30mm" style="shape-rendering:geometricPrecision; text-rendering:geometricPrecision; image-rendering:optimizeQuality; fill-rule:evenodd; clip-rule:evenodd"
viewBox="0 0 3000 3000"
 xmlns:xlink="http://www.w3.org/1999/xlink">
 <defs>
  <style type="text/css">
   <![CDATA[
    .str2 {stroke:#332C2B;stroke-width:0.13}
    .str3 {stroke:#332C2B;stroke-width:7.62}
    .str1 {stroke:#E62129;stroke-width:7.62}
    .str0 {stroke:#E62129;stroke-width:100}
    .fil2 {fill:#332C2B}
    .fil1 {fill:#E62129}
    .fil0 {fill:#FEFEFE}
   ]]>
  </style>
 </defs>
 <g id="图层_x0020_1">
  <metadata id="CorelCorpID_0Corel-Layer"/>
  <ellipse class="fil0 str0" cx="1490" cy="1394" rx="1178" ry="1164"/>
  <path class="fil1 str1" d="M1490 316c601,0 1092,485 1092,1079 0,594 -490,1079 -1092,1079 -601,0 -1092,-485 -1092,-1079 0,-594 490,-1079 1092,-1079zm0 222c478,0 867,385 867,857 0,472 -390,857 -867,857 -478,0 -867,-385 -867,-857 0,-472 390,-857 867,-857z"/>
  <polygon class="fil1 str1" points="769,740 923,761 2212,1937 2212,2048 2100,2048 811,865 "/>
  <polygon class="fil2 str2" points="853,1405 1667,1094 1707,1138 875,1460 "/>
  <polygon class="fil2 str2" points="888,1725 1145,1627 1184,1671 933,1769 "/>
  <polygon class="fil2 str2" points="1600,1432 2297,1167 2293,1228 1622,1488 "/>
  <path class="fil2 str3" d="M1403 1299c130,0 236,105 236,233 0,128 -106,233 -236,233 -130,0 -236,-105 -236,-233 0,-128 106,-233 236,-233zm0 44c105,0 191,85 191,189 0,104 -86,189 -191,189 -105,0 -191,-85 -191,-189 0,-104 86,-189 191,-189z"/>
  <path class="fil2 str3" d="M1392 1471c37,0 67,30 67,67 0,37 -30,67 -67,67 -37,0 -67,-30 -67,-67 0,-37 30,-67 67,-67z"/>
  <polygon class="fil2 str2" points="1654,1148 1766,1383 1712,1417 1606,1172 "/>
  <polygon class="fil2 str2" points="1002,1404 1105,1639 1049,1672 954,1427 "/>
  <polygon class="fil2 str2" points="1206,1316 1241,1396 1203,1456 1157,1340 "/>
 </g>
</svg>
