<?xml version="1.0" encoding="UTF-8"?>
<!DOCTYPE svg PUBLIC "-//W3C//DTD SVG 1.1//EN" "http://www.w3.org/Graphics/SVG/1.1/DTD/svg11.dtd">
<!-- Creator: CorelDRAW X5 -->
<svg xmlns="http://www.w3.org/2000/svg" xml:space="preserve" width="30mm" height="30mm" style="shape-rendering:geometricPrecision; text-rendering:geometricPrecision; image-rendering:optimizeQuality; fill-rule:evenodd; clip-rule:evenodd"
viewBox="0 0 3000 3000"
 xmlns:xlink="http://www.w3.org/1999/xlink">
 <defs>
  <style type="text/css">
   <![CDATA[
    .str2 {stroke:#332C2B;stroke-width:0.13}
    .str1 {stroke:#332C2B;stroke-width:7.62}
    .str0 {stroke:#E62129;stroke-width:7.62}
    .fil1 {fill:#332C2B}
    .fil0 {fill:#E62129}
   ]]>
  </style>
 </defs>
 <g id="图层_x0020_1">
  <metadata id="CorelCorpID_0Corel-Layer"/>
  <path class="fil0 str0" d="M1565 371c601,0 1092,485 1092,1079 0,594 -490,1079 -1092,1079 -601,0 -1092,-485 -1092,-1079 0,-594 490,-1079 1092,-1079zm0 222c478,0 867,385 867,857 0,472 -390,857 -867,857 -478,0 -867,-385 -867,-857 0,-472 390,-857 867,-857z"/>
  <polygon class="fil0 str0" points="844,796 998,817 2286,1993 2286,2104 2174,2104 886,921 "/>
  <path class="fil1 str1" d="M1638 1226l636 0 0 260 -172 0c-49,-65 -175,-74 -234,0l-230 0 0 -260z"/>
  <path class="fil1" d="M1989 1460c74,0 133,59 133,132 0,73 -60,132 -133,132 -74,0 -133,-59 -133,-132 0,-73 60,-132 133,-132zm0 64c38,0 69,30 69,68 0,37 -31,68 -69,68 -38,0 -69,-30 -69,-68 0,-37 31,-68 69,-68z"/>
  <path class="fil1 str2" d="M903 1114l12 -27 27 27c59,12 117,73 176,169 60,41 131,21 204,-9 93,-38 153,-34 181,13 72,-18 109,17 129,77l-1 135 -73 -2c11,-56 -89,-35 -66,21l42 38 -5 156 -70 -3c-1,-53 47,-106 -3,-160l-51 -57 4 112 -53 121 -68 1 56 -105c10,-34 8,-62 -8,-84l-20 -75c-72,37 -140,41 -206,20l-3 30c39,39 43,92 30,151l-4 68 -59 0 20 -116c7,-26 -5,-49 -37,-69 -19,-18 -28,-40 -41,-60 -32,2 -78,31 -64,77l17 128 -48 12 -35 -121c-15,-31 -11,-55 13,-73l71 -77c-29,-40 -38,-83 -3,-130 -22,-60 -53,-88 -105,-46 -45,25 -61,-2 -51,-22l42 -42c-4,-27 11,-53 46,-80zm626 215c30,-7 44,24 41,95l-41 0 0 -95z"/>
 </g>
</svg>
