<?xml version="1.0" encoding="UTF-8"?>
<!DOCTYPE svg PUBLIC "-//W3C//DTD SVG 1.1//EN" "http://www.w3.org/Graphics/SVG/1.1/DTD/svg11.dtd">
<!-- Creator: CorelDRAW X5 -->
<svg xmlns="http://www.w3.org/2000/svg" xml:space="preserve" width="30mm" height="40mm" style="shape-rendering:geometricPrecision; text-rendering:geometricPrecision; image-rendering:optimizeQuality; fill-rule:evenodd; clip-rule:evenodd"
viewBox="0 0 3000 4000"
 xmlns:xlink="http://www.w3.org/1999/xlink">
 <defs>
  <style type="text/css">
   <![CDATA[
    .str0 {stroke:#2B378E;stroke-width:100}
    .fil0 {fill:#FEFEFE}
    .fil1 {fill:#2B378E}
   ]]>
  </style>
 </defs>
 <g id="图层_x0020_1">
  <metadata id="CorelCorpID_0Corel-Layer"/>
  <ellipse class="fil0 str0" cx="1626" cy="1757" rx="1157" ry="1143"/>
  <ellipse class="fil1" cx="1626" cy="1757" rx="1063" ry="1051"/>
  <ellipse class="fil0" cx="1361" cy="1099" rx="112" ry="111"/>
  <ellipse class="fil0" cx="1990" cy="1705" rx="100" ry="99"/>
  <path class="fil0" d="M1303 1246c43,-10 91,-8 148,0 110,115 177,299 251,493 -11,28 -41,43 -89,44l-117 -266 3 981c-41,29 -81,34 -122,17l-2 -720 -31 1 3 642c-47,61 -84,52 -112,-5l-12 -983 -79 82 -65 204c-26,38 -53,29 -79,-25l56 -244c82,-123 165,-219 247,-221z"/>
  <path class="fil0" d="M1933 1828c25,-10 79,-8 121,0 70,76 146,137 200,227 -15,23 -38,50 -57,50l-130 -137 2 537c-27,16 -54,27 -82,18l-1 -358 -32 0 2 352c-93,1 -87,-21 -86,-39l3 -499 -87 25 -109 -143c-37,-33 0,-81 37,-79l103 116c41,-43 62,-49 116,-70z"/>
 </g>
</svg>
