<?xml version="1.0" encoding="UTF-8"?>
<!DOCTYPE svg PUBLIC "-//W3C//DTD SVG 1.1//EN" "http://www.w3.org/Graphics/SVG/1.1/DTD/svg11.dtd">
<!-- Creator: CorelDRAW X5 -->
<svg xmlns="http://www.w3.org/2000/svg" xml:space="preserve" width="30mm" height="30mm" style="shape-rendering:geometricPrecision; text-rendering:geometricPrecision; image-rendering:optimizeQuality; fill-rule:evenodd; clip-rule:evenodd"
viewBox="0 0 3000 3000"
 xmlns:xlink="http://www.w3.org/1999/xlink">
 <defs>
  <style type="text/css">
   <![CDATA[
    .str0 {stroke:#332C2B;stroke-width:7.62}
    .fil1 {fill:#332C2B}
    .fil0 {fill:#F6AD02}
   ]]>
  </style>
 </defs>
 <g id="图层_x0020_1">
  <metadata id="CorelCorpID_0Corel-Layer"/>
  <path class="fil0" d="M2560 2350l-2034 0c-87,-16 -83,-102 -23,-207l959 -1677c36,-56 127,-93 180,0l941 1641c64,101 123,245 -24,243z"/>
  <path class="fil1 str0" d="M2560 2350l-2034 0c-87,-16 -83,-102 -23,-207l959 -1677c36,-56 127,-93 180,0l941 1641c64,101 123,245 -24,243zm-1007 -1730l905 1570 -1810 0 905 -1570z"/>
  <path class="fil1 str0" d="M2409 2169l-1725 0 1282 -773 443 773zm-590 -516l-385 250 90 30 -67 50 -149 -29 30 -157 75 -34 -15 81 394 -244 27 54z"/>
 </g>
</svg>
