<?xml version="1.0" encoding="UTF-8"?>
<!DOCTYPE svg PUBLIC "-//W3C//DTD SVG 1.1//EN" "http://www.w3.org/Graphics/SVG/1.1/DTD/svg11.dtd">
<!-- Creator: CorelDRAW X5 -->
<svg xmlns="http://www.w3.org/2000/svg" xml:space="preserve" width="30mm" height="30mm" style="shape-rendering:geometricPrecision; text-rendering:geometricPrecision; image-rendering:optimizeQuality; fill-rule:evenodd; clip-rule:evenodd"
viewBox="0 0 3000 3000"
 xmlns:xlink="http://www.w3.org/1999/xlink">
 <defs>
  <style type="text/css">
   <![CDATA[
    .str0 {stroke:#332C2B;stroke-width:7.62}
    .str1 {stroke:#332C2B;stroke-width:154}
    .fil2 {fill:none}
    .fil1 {fill:#332C2B}
    .fil0 {fill:#F6AD02}
   ]]>
  </style>
 </defs>
 <g id="图层_x0020_1">
  <metadata id="CorelCorpID_0Corel-Layer"/>
  <path class="fil0" d="M2452 2482l-2034 0c-87,-16 -83,-102 -23,-207l959 -1677c36,-56 127,-93 180,0l941 1641c64,101 123,245 -24,243z"/>
  <path class="fil1 str0" d="M2452 2482l-2034 0c-87,-16 -83,-102 -23,-207l959 -1677c36,-56 127,-93 180,0l941 1641c64,101 123,245 -24,243zm-1007 -1730l905 1570 -1810 0 905 -1570z"/>
  <path class="fil1 str0" d="M1351 1402c35,-28 81,-32 139,-14l225 84c40,10 49,34 51,65 -16,55 -18,108 12,155l-52 75 -485 -178 -10 -85c-1,-12 -3,-9 9,-10 51,-7 88,-37 112,-91zm89 53l236 88c42,26 27,80 -22,71l-268 -99c-18,-40 5,-63 54,-60z"/>
  <path class="fil1 str0" d="M1238 1606l479 177 -6 46 -27 -10c-41,73 -110,34 -77,-30l-270 -105c-44,89 -119,46 -80,-29l-19 -7 0 -41z"/>
  <polygon class="fil1 str0" points="1419,1819 895,1819 626,2287 1419,2287 "/>
  <path class="fil2 str1" d="M1404 2086c76,73 147,77 253,15 56,-10 104,6 145,48 35,20 74,18 117,-7 89,-67 158,21 235,31"/>
  <path class="fil2 str1" d="M1410 2196c76,73 147,77 253,15 56,-10 104,6 145,48 35,20 74,18 117,-7 85,-64 144,13 223,29 4,1 56,-29 60,-29"/>
 </g>
</svg>
