<?xml version="1.0" encoding="UTF-8"?>
<!DOCTYPE svg PUBLIC "-//W3C//DTD SVG 1.1//EN" "http://www.w3.org/Graphics/SVG/1.1/DTD/svg11.dtd">
<!-- Creator: CorelDRAW X5 -->
<svg xmlns="http://www.w3.org/2000/svg" xml:space="preserve" width="30mm" height="30mm" style="shape-rendering:geometricPrecision; text-rendering:geometricPrecision; image-rendering:optimizeQuality; fill-rule:evenodd; clip-rule:evenodd"
viewBox="0 0 3000 3000"
 xmlns:xlink="http://www.w3.org/1999/xlink">
 <defs>
  <style type="text/css">
   <![CDATA[
    .str0 {stroke:#332C2B;stroke-width:7.62}
    .fil1 {fill:#332C2B}
    .fil0 {fill:#F6AD02}
   ]]>
  </style>
 </defs>
 <g id="图层_x0020_1">
  <metadata id="CorelCorpID_0Corel-Layer"/>
  <path class="fil0" d="M2355 2364l-2034 0c-87,-16 -83,-102 -23,-207l959 -1677c36,-56 127,-93 180,0l941 1641c64,101 123,245 -24,243z"/>
  <path class="fil1 str0" d="M2355 2364l-2034 0c-87,-16 -83,-102 -23,-207l959 -1677c36,-56 127,-93 180,0l941 1641c64,101 123,245 -24,243zm-1007 -1730l905 1570 -1810 0 905 -1570z"/>
  <path class="fil1 str0" d="M2179 2164l-1667 0 510 -875 291 240 -86 -3 6 527 197 1 1 -213 -158 0 55 -115 -45 -1 56 -85 -44 2 174 -388 190 384 -35 -1 55 91 -53 0 62 109 -171 -1 1 218 617 3 45 106zm-1332 -342l59 0 0 61 -59 0 0 -61zm110 0l59 0 0 61 -59 0 0 -61zm-110 106l59 0 0 135 -59 0 0 -135zm110 0l59 0 0 135 -59 0 0 -135z"/>
 </g>
</svg>
