<?xml version="1.0" encoding="UTF-8"?>
<!DOCTYPE svg PUBLIC "-//W3C//DTD SVG 1.1//EN" "http://www.w3.org/Graphics/SVG/1.1/DTD/svg11.dtd">
<!-- Creator: CorelDRAW X5 -->
<svg xmlns="http://www.w3.org/2000/svg" xml:space="preserve" width="21.994mm" height="19.481mm" style="shape-rendering:geometricPrecision; text-rendering:geometricPrecision; image-rendering:optimizeQuality; fill-rule:evenodd; clip-rule:evenodd"
viewBox="0 0 2205 1953"
 xmlns:xlink="http://www.w3.org/1999/xlink">
 <defs>
  <style type="text/css">
   <![CDATA[
    .str0 {stroke:#332C2B;stroke-width:7.63806}
    .fil1 {fill:#332C2B}
    .fil0 {fill:#F6AD02}
   ]]>
  </style>
 </defs>
 <g id="图层_x0020_1">
  <metadata id="CorelCorpID_0Corel-Layer"/>
  <path class="fil0" d="M2109 1949l-2039 0c-87,-16 -83,-102 -23,-208l961 -1681c36,-56 127,-93 180,0l943 1645c64,101 123,245 -24,243z"/>
  <path class="fil1 str0" d="M2109 1949l-2039 0c-87,-16 -83,-102 -23,-208l961 -1681c36,-56 127,-93 180,0l943 1645c64,101 123,245 -24,243zm-1010 -1734l907 1574 -1815 0 907 -1574z"/>
  <path class="fil1 str0" d="M1255 1169l37 0 67 74 -104 0 0 -74zm-129 0l85 0 0 74 -85 0 0 -74zm-35 0l-69 0 -73 74 142 0 0 -74zm-352 58l164 0 115 -98 282 2 163 115 47 1 0 114 -109 0c-17,-98 -150,-105 -161,0l-259 0c-1,-101 -137,-125 -147,0l-95 0 0 -134z"/>
  <path class="fil1 str0" d="M626 1489l-44 -122 152 0 32 39 861 0c-34,76 -28,173 -252,150 -42,-31 -87,-35 -135,-14 46,23 87,6 107,19 78,52 201,37 317,16 -77,38 -151,59 -218,44 -39,-18 -84,-30 -134,-37 -125,12 -218,-14 -289,-66l-36 1 42 49c-41,-11 -82,-20 -134,-10 -81,41 -171,44 -274,-9 -25,-20 -59,-30 -106,-24 24,-28 61,-39 112,-36z"/>
  <path class="fil1 str0" d="M619 1579c87,35 172,45 251,0 107,-9 108,24 121,63 -53,-55 -135,-26 -221,15 -67,-2 -117,-28 -151,-78z"/>
  <path class="fil1 str0" d="M1197 1636c74,-12 142,-9 198,28 83,18 88,-3 104,-26 -50,29 -110,1 -172,-34 -53,-6 -96,5 -130,32z"/>
  <path class="fil1 str0" d="M908 1298c32,0 59,26 59,58 0,32 -26,58 -59,58 -32,0 -59,-26 -59,-58 0,-32 26,-58 59,-58zm0 36c12,0 23,10 23,22 0,12 -10,22 -23,22 -12,0 -23,-10 -23,-22 0,-12 10,-22 23,-22z"/>
  <path class="fil1 str0" d="M1319 1298c32,0 59,26 59,58 0,32 -26,58 -59,58 -32,0 -59,-26 -59,-58 0,-32 26,-58 59,-58zm0 36c12,0 23,10 23,22 0,12 -10,22 -23,22 -12,0 -23,-10 -23,-22 0,-12 10,-22 23,-22z"/>
 </g>
</svg>
