<?xml version="1.0" encoding="UTF-8"?>
<!DOCTYPE svg PUBLIC "-//W3C//DTD SVG 1.1//EN" "http://www.w3.org/Graphics/SVG/1.1/DTD/svg11.dtd">
<!-- Creator: CorelDRAW X5 -->
<svg xmlns="http://www.w3.org/2000/svg" xml:space="preserve" width="30mm" height="30mm" style="shape-rendering:geometricPrecision; text-rendering:geometricPrecision; image-rendering:optimizeQuality; fill-rule:evenodd; clip-rule:evenodd"
viewBox="0 0 3000 3000"
 xmlns:xlink="http://www.w3.org/1999/xlink">
 <defs>
  <style type="text/css">
   <![CDATA[
    .str0 {stroke:#332C2B;stroke-width:7.62}
    .fil1 {fill:#332C2B}
    .fil0 {fill:#F6AD02}
   ]]>
  </style>
 </defs>
 <g id="图层_x0020_1">
  <metadata id="CorelCorpID_0Corel-Layer"/>
  <path class="fil0" d="M2392 2525l-2034 0c-87,-16 -83,-102 -23,-207l959 -1677c36,-56 127,-93 180,0l941 1641c64,101 123,245 -24,243z"/>
  <path class="fil1 str0" d="M2392 2525l-2034 0c-87,-16 -83,-102 -23,-207l959 -1677c36,-56 127,-93 180,0l941 1641c64,101 123,245 -24,243zm-1007 -1730l905 1570 -1810 0 905 -1570z"/>
  <path class="fil0" d="M2396 2525l-2034 0c-87,-16 -83,-102 -23,-207l959 -1677c36,-56 127,-93 180,0l941 1641c64,101 123,245 -24,243z"/>
  <path class="fil1 str0" d="M2396 2525l-2034 0c-87,-16 -83,-102 -23,-207l959 -1677c36,-56 127,-93 180,0l941 1641c64,101 123,245 -24,243zm-1007 -1730l905 1570 -1810 0 905 -1570z"/>
  <path class="fil1 str0" d="M1156 1476l94 -36 -30 97c214,-80 393,-1 456,121l-67 41c-79,-96 -228,-144 -328,-74l91 28 -113 59 -182 -64 79 -171z"/>
  <path class="fil1 str0" d="M1854 1875l-13 99 -71 -72c-32,224 -195,318 -333,314l-4 -77c123,-22 245,-105 230,-226l-69 65 3 -127 144 -127 114 150z"/>
  <path class="fil1 str0" d="M1128 2239l-73 -69c34,-5 67,-9 101,-14 -161,-130 -199,-271 -114,-424 22,14 44,29 65,43 -55,164 -1,245 103,290l-12 -93 101 77 17 190 -190 1z"/>
 </g>
</svg>
