<?xml version="1.0" encoding="UTF-8"?>
<!DOCTYPE svg PUBLIC "-//W3C//DTD SVG 1.1//EN" "http://www.w3.org/Graphics/SVG/1.1/DTD/svg11.dtd">
<!-- Creator: CorelDRAW X5 -->
<svg xmlns="http://www.w3.org/2000/svg" xml:space="preserve" width="50mm" height="50mm" style="shape-rendering:geometricPrecision; text-rendering:geometricPrecision; image-rendering:optimizeQuality; fill-rule:evenodd; clip-rule:evenodd"
viewBox="0 0 5000 5000"
 xmlns:xlink="http://www.w3.org/1999/xlink">
 <defs>
  <style type="text/css">
   <![CDATA[
    .str0 {stroke:#332C2B;stroke-width:7.62}
    .fil0 {fill:#2F318B}
    .fil3 {fill:#FEFEFE}
    .fil4 {fill:black}
    .fil2 {fill:#F6AD02}
    .fil1 {fill:#FEFEFE;fill-rule:nonzero}
   ]]>
  </style>
 </defs>
 <g id="图层_x0020_1">
  <metadata id="CorelCorpID_0Corel-Layer"/>
  <rect class="fil0 str0" x="487" y="2040" width="3941" height="1194"/>
  <g>
   <path class="fil1" d="M4216 2126l-3518 0 0 -37 3518 0 0 0 0 37zm137 90l-37 0 0 0 0 -5 0 -4 -1 -4 -1 -4 -1 -4 -1 -4 -2 -4 -2 -4 -2 -4 -2 -4 -2 -4 -3 -4 -3 -4 -3 -3 -3 -3 -3 -3 -3 -3 -4 -3 -4 -3 -4 -3 -4 -2 -4 -2 -4 -2 -4 -2 -5 -2 -5 -1 -5 -1 -5 -1 -5 -1 -5 -1 -5 0 -5 0 0 -37 7 0 7 0 7 1 7 1 7 1 6 2 6 2 6 2 6 3 6 3 6 3 6 3 5 3 5 4 5 4 5 4 5 4 4 5 4 5 4 5 4 5 3 5 3 5 3 6 3 6 2 6 2 6 2 6 1 6 1 6 1 6 0 7 0 0zm-37 843l0 -843 37 0 0 843 0 0 -37 0zm-100 126l0 -37 0 0 5 0 5 0 5 -1 5 -1 5 -1 5 -1 5 -1 5 -2 4 -2 4 -2 4 -2 4 -2 4 -3 4 -3 4 -3 3 -3 3 -3 3 -3 3 -3 3 -4 3 -4 2 -4 2 -4 2 -4 2 -4 2 -4 1 -4 1 -4 1 -4 1 -4 0 -4 0 -5 37 0 0 7 -1 6 -1 6 -1 6 -2 6 -2 6 -2 6 -3 6 -3 6 -3 5 -3 5 -4 5 -4 5 -4 5 -4 5 -5 4 -5 4 -5 4 -5 4 -5 3 -6 3 -6 3 -6 3 -6 3 -6 2 -6 2 -6 2 -7 1 -7 1 -7 1 -7 0 -7 0 0 0zm-3518 -37l3518 0 0 37 -3518 0 0 0 0 -37zm-137 -90l37 0 0 0 0 5 0 4 1 4 1 4 1 4 1 4 2 4 2 4 2 4 2 4 2 4 3 4 3 4 3 3 3 3 3 3 3 3 4 3 4 3 4 3 4 2 4 2 4 2 4 2 5 2 5 1 5 1 5 1 5 1 5 1 5 0 5 0 0 37 -7 0 -7 0 -7 -1 -7 -1 -7 -1 -6 -2 -6 -2 -6 -2 -6 -3 -6 -3 -6 -3 -6 -3 -5 -3 -5 -4 -5 -4 -5 -4 -5 -4 -4 -5 -4 -5 -4 -5 -4 -5 -3 -5 -3 -5 -3 -6 -3 -6 -2 -6 -2 -6 -2 -6 -1 -6 -1 -6 -1 -6 0 -7 0 0zm37 -843l0 843 -37 0 0 -843 0 0 37 0zm100 -126l0 37 0 0 -5 0 -5 0 -5 1 -5 1 -5 1 -5 1 -5 1 -5 2 -4 2 -4 2 -4 2 -4 2 -4 3 -4 3 -4 3 -3 3 -3 3 -3 3 -3 3 -3 4 -3 4 -2 4 -2 4 -2 4 -2 4 -2 4 -1 4 -1 4 -1 4 -1 4 0 4 0 5 -37 0 0 -7 1 -6 1 -6 1 -6 2 -6 2 -6 2 -6 3 -6 3 -6 3 -5 3 -5 4 -5 4 -5 4 -5 4 -5 5 -4 5 -4 5 -4 5 -4 5 -3 6 -3 6 -3 6 -3 6 -3 6 -2 6 -2 6 -2 7 -1 7 -1 7 -1 7 0 7 0 0 0z"/>
  </g>
  <rect class="fil2" transform="matrix(0.270562 -0.267379 0.270562 0.267379 778.8 2636.58)" width="1742" height="1742"/>
  <path class="fil3" d="M1955 2322l-57 -3 0 64c126,-4 290,-4 493,0l0 -64 -89 3 -58 0c12,-20 23,-41 34,-64 -20,-8 -39,-17 -58,-28 -10,23 -24,48 -43,76l29 16 -130 0c10,-8 21,-15 35,-23 -20,-31 -35,-54 -46,-70 -16,11 -34,20 -55,29 10,14 22,35 37,64l-92 0zm-19 84l-1 338 67 0c-1,-25 -2,-63 -2,-116l104 0c0,31 -1,47 -3,50 -4,4 -20,4 -47,2 7,24 12,47 16,70 37,-3 63,-8 79,-15 10,-4 16,-11 17,-20 1,-5 2,-91 2,-258l1 -52 -234 0zm64 88l0 -32 104 0 0 32 -104 0zm0 83l0 -32 104 0 0 32 -104 0zm262 71c-1,-78 -1,-149 0,-214l-66 0c1,74 1,145 0,214l66 0zm33 -240c2,169 2,257 -1,264 -1,1 -2,3 -4,5 -4,4 -24,6 -59,4 10,24 17,48 21,71 34,-3 62,-9 84,-17 10,-4 17,-10 20,-20 1,-6 2,-79 3,-221l3 -86 -67 0zm526 97l-2 77c-2,44 -8,70 -18,78 -14,10 -44,15 -90,15 12,20 21,45 26,73 27,-1 55,-6 82,-15 37,-13 59,-38 66,-76 3,-31 5,-83 6,-156l2 -57 -191 1 3 -63c134,0 217,1 248,2l0 -68 -215 2c7,-5 14,-9 22,-14 -15,-28 -33,-54 -54,-79 -19,14 -38,25 -58,34 19,18 33,38 43,59l-225 -2 0 68c26,-1 83,-2 170,-2 -1,47 -4,86 -9,114 -11,66 -44,116 -98,151 -20,13 -44,24 -72,32 16,16 32,38 48,64 93,-48 151,-107 175,-177 5,-16 10,-37 15,-61l126 0zm336 -15c0,104 -3,162 -8,176 -4,9 -14,13 -32,13 -5,0 -9,-1 -14,-1 8,18 14,40 19,65 41,-3 68,-15 79,-37 9,-23 13,-88 14,-197l11 44 21 -8c0,102 1,156 2,159 3,11 11,19 25,24 39,13 103,18 191,13l10 -2c17,-4 31,-22 44,-53 2,-9 6,-21 11,-36 -11,-2 -26,-8 -44,-15 -4,-2 -10,-5 -18,-8 -4,25 -11,41 -21,49 -9,5 -44,6 -106,3 -19,-1 -29,-5 -32,-12 0,-3 -1,-50 -1,-140 9,-3 18,-6 27,-9l-2 128 64 0 -1 -73c9,16 17,35 23,55 26,-5 44,-13 55,-24 15,-17 23,-72 24,-165l-23 -21 -79 23c0,-17 1,-37 2,-63l-65 0 2 81c-9,2 -18,6 -27,9l1 -51 -46 0c14,-18 27,-36 40,-53l216 1 0 -61 -187 1 28 -57c-19,-4 -41,-12 -67,-22 -13,52 -36,98 -69,140 -1,-1 -2,-2 -2,-3l0 -55 -88 1c8,-4 17,-7 26,-11 -11,-28 -23,-52 -35,-73 -24,11 -44,18 -61,22 11,15 22,36 32,62l-84 -2 0 60 54 -1c0,129 -6,214 -17,255 -9,28 -24,51 -46,67 19,19 34,36 46,52 37,-43 59,-89 66,-138l10 -116 32 0zm-31 -56l2 -64 94 1c-12,13 -23,22 -32,28 21,13 38,27 53,42 1,-1 3,-2 4,-3l0 50c-11,3 -22,6 -33,9l1 -64c-26,1 -56,2 -89,2zm308 56c0,36 -3,59 -9,68 -5,6 -15,10 -31,13l0 -69c13,-4 26,-8 39,-12zm181 -137c22,-1 82,-2 180,-2l0 288 -215 -2 0 68 431 -2c20,0 41,1 62,2l0 -68 -211 2 0 -288c93,0 152,1 177,2l0 -68c-141,4 -282,4 -423,0l0 68z"/>
  <path class="fil3" d="M2697 2797l0 246 -56 0 0 -161c-9,8 -18,15 -26,20 -8,5 -19,10 -32,15l0 -55c19,-7 34,-16 44,-27 10,-10 19,-23 25,-38l46 0zm66 4l57 0 0 125 41 -58 68 0 -52 61 55 114 -63 0 -29 -70 -21 25 0 46 -57 0 0 -242zm187 67l52 0 0 26c7,-11 15,-18 23,-23 8,-5 17,-7 27,-7 12,0 21,2 27,7 7,5 12,12 17,22 9,-11 17,-19 24,-23 7,-4 16,-6 27,-6 16,0 28,6 36,17 9,11 13,29 13,52l0 110 -56 0 0 -100c0,-8 -1,-14 -4,-18 -4,-6 -8,-9 -14,-9 -7,0 -12,3 -16,9 -4,6 -6,15 -6,28l0 90 -56 0 0 -97c0,-8 0,-13 -1,-16 -1,-4 -3,-8 -6,-11 -3,-3 -6,-4 -10,-4 -6,0 -12,3 -16,9 -4,6 -6,15 -6,29l0 89 -56 0 0 -175z"/>
  <path class="fil4" d="M919 2737c6,-13 13,-26 19,-39 42,-1 83,-1 125,-2 6,-55 16,-97 39,-146 10,-17 20,-34 30,-50 -23,-27 -39,-40 -11,-65 31,-14 61,-30 98,-17 22,19 28,47 35,77 4,13 11,25 24,39 0,8 0,15 0,23 12,6 24,13 37,19 14,0 13,-14 35,-2 -13,-41 -9,-50 35,-62 3,-27 6,-28 26,-46 54,90 109,180 163,271 -219,0 -438,1 -656,1zm178 -42c10,-36 23,-68 40,-100 19,-27 19,-27 21,-28 8,8 16,17 25,25 0,34 1,69 1,103 -29,0 -58,0 -88,0zm134 -1c0,-39 -1,-79 -1,-118 -6,-9 -13,-19 -19,-28 33,15 66,30 99,46 3,19 15,20 36,30 0,3 0,5 0,8 -29,0 -62,-7 -76,20 0,5 1,11 2,17 -17,7 -21,8 -26,26 -6,0 -11,0 -16,0zm1 -157c-8,-4 -16,-9 -24,-13 13,-21 13,-21 15,-22 4,11 8,23 12,35 -1,0 -2,0 -3,0zm-78 -67c-2,-5 -4,-10 -6,-15 6,0 11,0 17,1 -4,4 -7,9 -10,14zm86 -54c-29,-14 -31,-37 -11,-57 26,-9 48,-5 50,29 -6,23 -18,26 -39,28z"/>
 </g>
</svg>
