<?xml version="1.0" encoding="UTF-8"?>
<!DOCTYPE svg PUBLIC "-//W3C//DTD SVG 1.1//EN" "http://www.w3.org/Graphics/SVG/1.1/DTD/svg11.dtd">
<!-- Creator: CorelDRAW X5 -->
<svg xmlns="http://www.w3.org/2000/svg" xml:space="preserve" width="50mm" height="50mm" style="shape-rendering:geometricPrecision; text-rendering:geometricPrecision; image-rendering:optimizeQuality; fill-rule:evenodd; clip-rule:evenodd"
viewBox="0 0 5000 5000"
 xmlns:xlink="http://www.w3.org/1999/xlink">
 <defs>
  <style type="text/css">
   <![CDATA[
    .str0 {stroke:#332C2B;stroke-width:7.62}
    .fil0 {fill:#2F318B}
    .fil4 {fill:#332C2B}
    .fil3 {fill:#FEFEFE}
    .fil2 {fill:#F6AD02}
    .fil1 {fill:#FEFEFE;fill-rule:nonzero}
   ]]>
  </style>
 </defs>
 <g id="图层_x0020_1">
  <metadata id="CorelCorpID_0Corel-Layer"/>
  <rect class="fil0 str0" x="626" y="2012" width="3941" height="1194"/>
  <g>
   <path class="fil1" d="M4355 2098l-3518 0 0 -37 3518 0 0 0 0 37zm137 90l-37 0 0 0 0 -5 0 -4 -1 -4 -1 -4 -1 -4 -1 -4 -2 -4 -2 -4 -2 -4 -2 -4 -2 -4 -3 -4 -3 -4 -3 -3 -3 -3 -3 -3 -3 -3 -4 -3 -4 -3 -4 -3 -4 -2 -4 -2 -4 -2 -4 -2 -5 -2 -5 -1 -5 -1 -5 -1 -5 -1 -5 -1 -5 0 -5 0 0 -37 7 0 7 0 7 1 7 1 7 1 6 2 6 2 6 2 6 3 6 3 6 3 6 3 5 3 5 4 5 4 5 4 5 4 4 5 4 5 4 5 4 5 3 5 3 5 3 6 3 6 2 6 2 6 2 6 1 6 1 6 1 6 0 7 0 0zm-37 843l0 -843 37 0 0 843 0 0 -37 0zm-100 126l0 -37 0 0 5 0 5 0 5 -1 5 -1 5 -1 5 -1 5 -1 5 -2 4 -2 4 -2 4 -2 4 -2 4 -3 4 -3 4 -3 3 -3 3 -3 3 -3 3 -3 3 -4 3 -4 2 -4 2 -4 2 -4 2 -4 2 -4 1 -4 1 -4 1 -4 1 -4 0 -4 0 -5 37 0 0 7 -1 6 -1 6 -1 6 -2 6 -2 6 -2 6 -3 6 -3 6 -3 5 -3 5 -4 5 -4 5 -4 5 -4 5 -5 4 -5 4 -5 4 -5 4 -5 3 -6 3 -6 3 -6 3 -6 3 -6 2 -6 2 -6 2 -7 1 -7 1 -7 1 -7 0 -7 0 0 0zm-3518 -37l3518 0 0 37 -3518 0 0 0 0 -37zm-137 -90l37 0 0 0 0 5 0 4 1 4 1 4 1 4 1 4 2 4 2 4 2 4 2 4 2 4 3 4 3 4 3 3 3 3 3 3 3 3 4 3 4 3 4 3 4 2 4 2 4 2 4 2 5 2 5 1 5 1 5 1 5 1 5 1 5 0 5 0 0 37 -7 0 -7 0 -7 -1 -7 -1 -7 -1 -6 -2 -6 -2 -6 -2 -6 -3 -6 -3 -6 -3 -6 -3 -5 -3 -5 -4 -5 -4 -5 -4 -5 -4 -4 -5 -4 -5 -4 -5 -4 -5 -3 -5 -3 -5 -3 -6 -3 -6 -2 -6 -2 -6 -2 -6 -1 -6 -1 -6 -1 -6 0 -7 0 0zm37 -843l0 843 -37 0 0 -843 0 0 37 0zm100 -126l0 37 0 0 -5 0 -5 0 -5 1 -5 1 -5 1 -5 1 -5 1 -5 2 -4 2 -4 2 -4 2 -4 2 -4 3 -4 3 -4 3 -3 3 -3 3 -3 3 -3 3 -3 4 -3 4 -2 4 -2 4 -2 4 -2 4 -2 4 -1 4 -1 4 -1 4 -1 4 0 4 0 5 -37 0 0 -7 1 -6 1 -6 1 -6 2 -6 2 -6 2 -6 3 -6 3 -6 3 -5 3 -5 4 -5 4 -5 4 -5 4 -5 5 -4 5 -4 5 -4 5 -4 5 -3 6 -3 6 -3 6 -3 6 -3 6 -2 6 -2 6 -2 7 -1 7 -1 7 -1 7 0 7 0 0 0z"/>
  </g>
  <rect class="fil2" transform="matrix(0.270562 -0.267379 0.270562 0.267379 918.194 2608.81)" width="1742" height="1742"/>
  <path class="fil3" d="M2119 2421l-57 -2 2 56 -1 300 -3 78 73 0 -2 -78 0 -294 314 0 0 281c0,5 0,11 -1,18 0,6 -3,9 -7,11 -6,1 -12,2 -18,2 -11,0 -27,-1 -46,-3 9,26 15,50 19,72 20,-1 38,-2 55,-4 34,-4 55,-14 62,-28 2,-5 3,-14 4,-29l0 -324 2 -56 -64 2 -158 0c6,-17 11,-33 15,-51 -22,-1 -46,-6 -73,-13 -1,11 -3,20 -4,28 -1,10 -4,22 -9,36l-102 0zm60 321l55 -2 108 0 55 2 -2 -52 0 -102 2 -49 -109 2 -108 -2 2 49 0 102 -2 52zm63 -60l0 -87 90 0 0 87 -90 0zm478 118l-2 64 69 0 0 -13 197 0 0 13 69 0 -2 -64 0 -141 2 -57 -63 2 -198 0c8,-15 14,-31 20,-46 5,-15 11,-33 16,-53l183 0 78 2 0 -67 -78 2 -171 0c3,-23 7,-50 10,-81l-25 1c-13,0 -29,-1 -48,-3l-2 46 -4 37 -110 0 -62 -2 0 68 62 -2 98 0c-8,33 -19,63 -34,87 -12,20 -30,42 -54,64 -22,21 -44,36 -64,46 -6,2 -14,6 -25,10 16,18 29,39 39,61 18,-11 35,-22 50,-33 15,-11 31,-24 49,-40l0 100zm67 -10l0 -125 197 0 0 125 -197 0zm424 -274c-15,0 -31,-1 -46,-1 0,143 0,217 -1,220 -1,1 -4,4 -10,8l25 71c68,-32 135,-63 201,-91l3 -38 4 -31c-59,27 -111,48 -156,63l0 -141 141 0c-9,9 -18,16 -27,23 25,22 42,38 51,50 5,-5 10,-11 15,-18 12,44 28,82 47,114 -36,36 -89,54 -158,54 14,23 24,45 30,69 67,-13 125,-38 175,-74 44,36 83,61 119,75 13,-27 25,-48 37,-62 -40,-14 -78,-34 -113,-60 31,-65 49,-138 54,-221 24,0 44,0 60,1l0 -62 -167 1c9,-27 18,-58 27,-94 -21,-3 -45,-9 -73,-19 -6,79 -28,150 -69,215l1 -180 -224 0 0 59 158 -1 0 72 -104 0zm324 8c-3,39 -7,72 -11,99 -4,24 -12,47 -22,69 -19,-34 -31,-77 -37,-130 -4,0 -7,1 -11,3 3,-7 7,-14 10,-21 1,-5 4,-12 9,-20l62 0zm176 80c25,-1 47,-2 64,-2l0 154c-19,9 -39,17 -62,25l21 78c30,-35 55,-53 76,-56l2 0c3,0 16,11 38,32 21,18 65,28 132,28 92,1 166,2 222,1 2,-24 8,-46 17,-67 -189,11 -300,8 -332,-9 -11,-6 -28,-19 -51,-40l1 -208 -128 0 0 64zm92 -112c8,-9 17,-17 26,-25 3,-3 6,-6 9,-10 2,-1 3,-3 6,-5l-68 -85c-24,19 -43,33 -56,42 21,24 45,54 73,92 3,-3 7,-6 10,-10zm44 -66l0 62 143 -2c-1,8 -3,16 -4,24l-106 -3 1 273c111,-3 210,-3 296,0 -3,-97 -4,-188 -1,-272 -30,1 -72,2 -126,2l7 -24c79,0 130,1 154,2l0 -62 -102 1c9,-11 19,-25 30,-43 -12,-5 -32,-14 -58,-29 -13,24 -27,44 -39,61l20 10 -92 0c7,-5 14,-10 22,-15 -9,-11 -25,-30 -48,-57 -13,8 -31,18 -54,29l38 43 -81 -1zm265 275l0 23 -167 0 0 -23 167 0zm-167 -45l0 -24 167 0 0 24 -167 0zm0 -71c0,-8 -1,-16 -1,-24l168 0 0 24 -167 0z"/>
  <rect class="fil4 str0" x="1209" y="2388" width="85" height="99"/>
  <rect class="fil4 str0" x="1209" y="2527" width="85" height="99"/>
  <path class="fil4 str0" d="M1568 2730l-85 0 54 -72 -172 2c-38,3 -65,24 -77,73l-2 94 -72 2c-11,-122 17,-216 151,-232l175 -2 -63 -60 94 0 115 91 -120 104z"/>
 </g>
</svg>
