<?xml version="1.0" encoding="UTF-8"?>
<!DOCTYPE svg PUBLIC "-//W3C//DTD SVG 1.1//EN" "http://www.w3.org/Graphics/SVG/1.1/DTD/svg11.dtd">
<!-- Creator: CorelDRAW X5 -->
<svg xmlns="http://www.w3.org/2000/svg" xml:space="preserve" width="50mm" height="50mm" style="shape-rendering:geometricPrecision; text-rendering:geometricPrecision; image-rendering:optimizeQuality; fill-rule:evenodd; clip-rule:evenodd"
viewBox="0 0 5000 5000"
 xmlns:xlink="http://www.w3.org/1999/xlink">
 <defs>
  <style type="text/css">
   <![CDATA[
    .str0 {stroke:#332C2B;stroke-width:7.62}
    .fil0 {fill:#2F318B}
    .fil4 {fill:#332C2B}
    .fil3 {fill:#FEFEFE}
    .fil2 {fill:#F6AD02}
    .fil1 {fill:#FEFEFE;fill-rule:nonzero}
   ]]>
  </style>
 </defs>
 <g id="图层_x0020_1">
  <metadata id="CorelCorpID_0Corel-Layer"/>
  <rect class="fil0 str0" x="461" y="1566" width="3941" height="1194"/>
  <g>
   <path class="fil1" d="M4190 1652l-3518 0 0 -37 3518 0 0 0 0 37zm137 90l-37 0 0 0 0 -5 0 -4 -1 -4 -1 -4 -1 -4 -1 -4 -2 -4 -2 -4 -2 -4 -2 -4 -2 -4 -3 -4 -3 -4 -3 -3 -3 -3 -3 -3 -3 -3 -4 -3 -4 -3 -4 -3 -4 -2 -4 -2 -4 -2 -4 -2 -5 -2 -5 -1 -5 -1 -5 -1 -5 -1 -5 -1 -5 0 -5 0 0 -37 7 0 7 0 7 1 7 1 7 1 6 2 6 2 6 2 6 3 6 3 6 3 6 3 5 3 5 4 5 4 5 4 5 4 4 5 4 5 4 5 4 5 3 5 3 5 3 6 3 6 2 6 2 6 2 6 1 6 1 6 1 6 0 7 0 0zm-37 843l0 -843 37 0 0 843 0 0 -37 0zm-100 126l0 -37 0 0 5 0 5 0 5 -1 5 -1 5 -1 5 -1 5 -1 5 -2 4 -2 4 -2 4 -2 4 -2 4 -3 4 -3 4 -3 3 -3 3 -3 3 -3 3 -3 3 -4 3 -4 2 -4 2 -4 2 -4 2 -4 2 -4 1 -4 1 -4 1 -4 1 -4 0 -4 0 -5 37 0 0 7 -1 6 -1 6 -1 6 -2 6 -2 6 -2 6 -3 6 -3 6 -3 5 -3 5 -4 5 -4 5 -4 5 -4 5 -5 4 -5 4 -5 4 -5 4 -5 3 -6 3 -6 3 -6 3 -6 3 -6 2 -6 2 -6 2 -7 1 -7 1 -7 1 -7 0 -7 0 0 0zm-3518 -37l3518 0 0 37 -3518 0 0 0 0 -37zm-137 -90l37 0 0 0 0 5 0 4 1 4 1 4 1 4 1 4 2 4 2 4 2 4 2 4 2 4 3 4 3 4 3 3 3 3 3 3 3 3 4 3 4 3 4 3 4 2 4 2 4 2 4 2 5 2 5 1 5 1 5 1 5 1 5 1 5 0 5 0 0 37 -7 0 -7 0 -7 -1 -7 -1 -7 -1 -6 -2 -6 -2 -6 -2 -6 -3 -6 -3 -6 -3 -6 -3 -5 -3 -5 -4 -5 -4 -5 -4 -5 -4 -4 -5 -4 -5 -4 -5 -4 -5 -3 -5 -3 -5 -3 -6 -3 -6 -2 -6 -2 -6 -2 -6 -1 -6 -1 -6 -1 -6 0 -7 0 0zm37 -843l0 843 -37 0 0 -843 0 0 37 0zm100 -126l0 37 0 0 -5 0 -5 0 -5 1 -5 1 -5 1 -5 1 -5 1 -5 2 -4 2 -4 2 -4 2 -4 2 -4 3 -4 3 -4 3 -3 3 -3 3 -3 3 -3 3 -3 4 -3 4 -2 4 -2 4 -2 4 -2 4 -2 4 -1 4 -1 4 -1 4 -1 4 0 4 0 5 -37 0 0 -7 1 -6 1 -6 1 -6 2 -6 2 -6 2 -6 3 -6 3 -6 3 -5 3 -5 4 -5 4 -5 4 -5 4 -5 5 -4 5 -4 5 -4 5 -4 5 -3 6 -3 6 -3 6 -3 6 -3 6 -2 6 -2 6 -2 7 -1 7 -1 7 -1 7 0 7 0 0 0z"/>
  </g>
  <rect class="fil2" transform="matrix(0.270562 -0.267379 0.270562 0.267379 752.988 2163.25)" width="1742" height="1742"/>
  <path class="fil3" d="M1870 2260l0 67 227 -2c0,28 -1,57 -2,87l72 0c-1,-19 -2,-48 -2,-87l211 2 0 -67 -211 3 0 -70 163 2 0 -64 -163 2c0,-29 1,-55 2,-75l-72 0c1,30 2,55 2,75l-68 0 64 -94 268 2 0 -64 -236 2 27 -55c-25,-5 -49,-12 -71,-21 -8,25 -18,50 -31,76l-164 -2 0 64 131 -2c-30,53 -63,89 -102,108 4,12 7,27 11,46l171 0 0 70 -227 -3zm557 -67l87 0 0 71c-39,12 -70,20 -92,24 9,27 15,48 19,64 10,-4 20,-8 29,-11 11,-4 26,-9 44,-16l-3 92 63 0 -2 -112c15,-5 28,-9 39,-11 0,-11 1,-31 3,-62 -13,5 -27,10 -42,15l0 -52c13,0 26,0 40,1l0 -58c-14,0 -27,0 -40,1 0,-19 1,-44 2,-72l-60 0c4,-11 8,-21 12,-31 46,0 76,0 90,1l0 -39 87 0 0 56c-28,0 -55,-1 -81,-2 4,122 4,244 0,366l62 0c-1,-23 -2,-71 -2,-145 10,17 16,29 19,37 16,-30 27,-57 34,-81 5,13 10,28 14,43 6,-5 13,-11 22,-18 -7,19 -14,35 -21,47 12,11 26,26 41,44 15,-35 26,-66 33,-94 7,16 13,34 19,53 8,-8 16,-15 25,-21l0 64c0,8 -7,12 -21,12 -8,0 -18,-1 -31,-2 11,38 17,60 18,66 28,-3 51,-7 67,-12 11,-4 18,-8 21,-14 3,-5 5,-15 5,-29 0,-191 1,-297 2,-318 -25,1 -53,2 -83,2 1,-19 2,-38 2,-56 38,0 67,1 88,2l0 -61c-120,2 -227,2 -322,0l0 40 -68 0 17 -51c-27,-6 -49,-13 -65,-19l-15 71 -61 -1 0 59c13,0 28,-1 43,-1 -15,45 -30,78 -45,99l7 61zm58 -56l29 -70 0 70 -29 0zm197 -31l19 0c0,39 -6,78 -19,118l0 -118zm67 60c2,-19 4,-40 5,-60l36 0c-2,45 -6,79 -10,104 -6,-14 -14,-30 -23,-49 -3,1 -5,3 -8,5zm8 -115l0 -56 37 0c0,20 -1,39 -2,56l-36 0zm86 55l26 0 -1 121c-7,-16 -14,-33 -22,-49 -4,2 -7,5 -10,8l7 -79zm205 -101c-22,1 -42,0 -59,-3 0,85 -3,138 -8,162 15,-1 36,-2 61,-2 3,-38 5,-82 6,-133 0,-9 0,-17 1,-25zm9 -99l1 499c0,3 -1,7 -1,11l64 0 -2 -375c9,16 18,36 27,59 9,-8 22,-16 39,-26 0,3 -1,5 -1,8l257 -1c7,0 14,0 22,1 -2,-65 -2,-122 0,-170l-281 0c1,41 2,89 3,144 -7,-20 -17,-40 -31,-62 -13,9 -25,15 -36,19l2 -107 -64 0zm190 131l0 -15 158 0 0 15 -158 0zm0 -59c0,-6 -1,-13 -1,-18l158 0c0,6 0,12 1,18l-158 0zm-105 385c12,20 21,40 27,62 17,-4 36,-8 58,-12 16,-1 49,-12 99,-32 51,22 102,36 151,42 1,-11 8,-32 22,-63 -48,-2 -84,-8 -108,-17 33,-24 62,-50 85,-80l-18 -28 -285 -2 0 54c19,-1 42,-2 69,-2 -5,4 -12,8 -19,11 11,13 25,28 43,46 -40,13 -81,20 -125,21zm231 -78c-16,13 -30,24 -44,31 -16,-10 -29,-20 -39,-31l83 0zm-211 -67c24,-1 121,-2 291,-2 12,0 26,1 39,2 -2,-45 -2,-86 0,-123 -128,3 -238,3 -330,0 2,36 2,77 0,123zm60 -47l0 -28 34 0 0 28 -34 0zm125 0l-35 0 0 -28 35 0 0 28zm55 0l0 -28 32 0 0 28 -32 0zm225 203l-2 47 66 0 -2 -46 0 -232 68 -83c-10,-5 -18,-11 -25,-15 -9,-7 -20,-15 -35,-27 -15,32 -38,64 -68,98 -32,33 -61,56 -86,71 8,13 14,25 19,35 3,8 7,18 12,32l53 -48 0 167zm67 -468c-18,21 -40,41 -68,61 -26,18 -51,31 -74,41 7,10 13,18 18,26l20 33c20,-12 41,-26 63,-42l40 -29 51 -41c-10,-8 -19,-16 -27,-23 -6,-6 -14,-14 -23,-26zm58 175l0 64 50 -2 96 0 0 191c0,9 -2,15 -7,18 -4,1 -9,2 -15,3 -7,0 -17,-1 -31,-3 10,26 16,49 17,70 15,0 26,0 33,-1 22,-2 39,-6 52,-12 8,-4 12,-12 13,-23l0 -242 96 2 0 -64c-16,0 -31,1 -46,2l-211 0 -47 -2zm24 -85c14,-1 29,-2 43,-2l167 0 46 2 0 -64c-15,0 -31,1 -46,2l-167 0c-15,-1 -29,-2 -44,-2l0 64z"/>
  <path class="fil4" d="M1057 2023c-19,1 -37,0 -52,-2 0,74 -2,121 -7,142 13,-1 31,-1 53,-1 3,-33 4,-72 5,-116 0,-8 0,-15 0,-22zm8 -86l0 436c0,3 0,6 0,9l56 0 -1 -328c8,14 16,31 23,51 8,-7 19,-14 34,-23 0,2 0,5 0,7l225 -1c6,0 13,0 20,1 -2,-57 -2,-106 0,-148l-246 0c1,36 2,78 2,126 -6,-17 -15,-35 -27,-54 -11,8 -22,13 -32,17l1 -93 -56 0zm166 114l0 -13 138 0 0 13 -138 0zm0 -51c0,-6 0,-11 0,-16l138 0c0,5 0,10 0,16l-138 0zm-92 336c11,17 18,35 24,54 15,-3 32,-7 51,-10 14,-1 43,-11 87,-28 45,19 89,31 132,37 1,-10 7,-28 19,-55 -42,-2 -73,-7 -94,-15 29,-21 54,-44 74,-70l-16 -25 -250 -2 0 47c16,-1 36,-2 61,-2 -5,4 -10,7 -17,10 10,11 22,25 38,40 -35,12 -71,18 -109,18zm202 -68c-14,12 -27,21 -39,27 -14,-9 -25,-18 -34,-27l73 0zm-184 -58c21,-1 106,-2 254,-2 11,0 22,1 34,2 -2,-40 -2,-75 0,-108 -112,3 -208,3 -289,0 2,31 2,67 0,108zm52 -41l0 -24 30 0 0 24 -30 0zm109 0l-31 0 0 -24 31 0 0 24zm48 0l0 -24 28 0 0 24 -28 0z"/>
 </g>
</svg>
