<?xml version="1.0" encoding="UTF-8"?>
<!DOCTYPE svg PUBLIC "-//W3C//DTD SVG 1.1//EN" "http://www.w3.org/Graphics/SVG/1.1/DTD/svg11.dtd">
<!-- Creator: CorelDRAW X5 -->
<svg xmlns="http://www.w3.org/2000/svg" xml:space="preserve" width="50mm" height="50mm" style="shape-rendering:geometricPrecision; text-rendering:geometricPrecision; image-rendering:optimizeQuality; fill-rule:evenodd; clip-rule:evenodd"
viewBox="0 0 5000 5000"
 xmlns:xlink="http://www.w3.org/1999/xlink">
 <defs>
  <style type="text/css">
   <![CDATA[
    .fil0 {fill:#E62129}
    .fil1 {fill:#FEFEFE}
    .fil2 {fill:#332C2B;fill-rule:nonzero}
   ]]>
  </style>
 </defs>
 <g id="图层_x0020_1">
  <metadata id="CorelCorpID_0Corel-Layer"/>
  <rect class="fil0" x="2084" y="1076" width="226" height="551"/>
  <rect class="fil1" x="2084" y="1628" width="226" height="551"/>
  <rect class="fil0" x="2084" y="2179" width="226" height="551"/>
  <rect class="fil1" x="2084" y="2731" width="226" height="924"/>
  <g>
   <path class="fil2" d="M2093 1080l0 2583 -22 0 0 -2583 11 -11 11 11zm-22 0l0 -11 11 0 -11 11zm244 11l-233 0 0 -22 233 0 11 11 -11 11zm0 -22l11 0 0 11 -11 -11zm-11 2599l0 -2588 22 0 0 2588 -22 0z"/>
  </g>
  <g>
   <polygon class="fil2" points="2409,3497 1980,3497 1980,3479 2409,3479 "/>
  </g>
  <g>
   <path class="fil2" d="M2198 3476l-23 37 -16 -10 23 -37 16 1 0 9zm-16 -10l9 -14 7 15 -16 -1zm8 26l-9 -18 17 -8 9 18 -17 8z"/>
  </g>
  <g>
   <polygon class="fil2" points="2409,3548 1980,3548 1980,3530 2409,3530 "/>
  </g>
  <g>
   <path class="fil2" d="M2198 3526l-23 37 -16 -10 23 -37 16 1 0 9zm-16 -10l9 -14 7 15 -16 -1zm8 26l-9 -18 17 -8 9 18 -17 8z"/>
  </g>
  <g>
   <polygon class="fil2" points="2851,3361 1518,3361 1518,3343 2851,3343 "/>
  </g>
  <g>
   <polygon class="fil2" points="1544,3404 1597,3350 1610,3363 1557,3417 "/>
  </g>
  <g>
   <polygon class="fil2" points="1646,3404 1700,3350 1713,3363 1659,3417 "/>
  </g>
  <g>
   <polygon class="fil2" points="1752,3404 1805,3350 1819,3363 1765,3417 "/>
  </g>
  <g>
   <polygon class="fil2" points="1857,3404 1911,3350 1924,3363 1870,3417 "/>
  </g>
  <g>
   <polygon class="fil2" points="1949,3404 2003,3350 2016,3363 1962,3417 "/>
  </g>
  <g>
   <polygon class="fil2" points="2065,3404 2119,3350 2132,3363 2078,3417 "/>
  </g>
  <g>
   <polygon class="fil2" points="2176,3404 2230,3350 2243,3363 2189,3417 "/>
  </g>
  <g>
   <polygon class="fil2" points="2257,3404 2311,3350 2324,3363 2270,3417 "/>
  </g>
  <g>
   <polygon class="fil2" points="2362,3404 2416,3350 2429,3363 2376,3417 "/>
  </g>
  <g>
   <polygon class="fil2" points="2473,3404 2527,3350 2540,3363 2486,3417 "/>
  </g>
  <g>
   <polygon class="fil2" points="2557,3404 2611,3350 2624,3363 2570,3417 "/>
  </g>
  <g>
   <polygon class="fil2" points="2671,3404 2724,3350 2737,3363 2684,3417 "/>
  </g>
  <g>
   <polygon class="fil2" points="2760,3404 2813,3350 2827,3363 2773,3417 "/>
  </g>
 </g>
</svg>
