<?xml version="1.0" encoding="UTF-8"?>
<!DOCTYPE svg PUBLIC "-//W3C//DTD SVG 1.1//EN" "http://www.w3.org/Graphics/SVG/1.1/DTD/svg11.dtd">
<!-- Creator: CorelDRAW X5 -->
<svg xmlns="http://www.w3.org/2000/svg" xml:space="preserve" width="50mm" height="50mm" style="shape-rendering:geometricPrecision; text-rendering:geometricPrecision; image-rendering:optimizeQuality; fill-rule:evenodd; clip-rule:evenodd"
viewBox="0 0 5000 5000"
 xmlns:xlink="http://www.w3.org/1999/xlink">
 <defs>
  <style type="text/css">
   <![CDATA[
    .str0 {stroke:#332C2B;stroke-width:7.62}
    .fil0 {fill:#2F318B}
    .fil4 {fill:#332C2B}
    .fil3 {fill:#FEFEFE}
    .fil2 {fill:#F6AD02}
    .fil1 {fill:#FEFEFE;fill-rule:nonzero}
   ]]>
  </style>
 </defs>
 <g id="图层_x0020_1">
  <metadata id="CorelCorpID_0Corel-Layer"/>
  <rect class="fil0 str0" x="568" y="1525" width="3941" height="1194"/>
  <g>
   <path class="fil1" d="M4297 1611l-3518 0 0 -37 3518 0 0 0 0 37zm137 90l-37 0 0 0 0 -5 0 -4 -1 -4 -1 -4 -1 -4 -1 -4 -2 -4 -2 -4 -2 -4 -2 -4 -2 -4 -3 -4 -3 -4 -3 -3 -3 -3 -3 -3 -3 -3 -4 -3 -4 -3 -4 -3 -4 -2 -4 -2 -4 -2 -4 -2 -5 -2 -5 -1 -5 -1 -5 -1 -5 -1 -5 -1 -5 0 -5 0 0 -37 7 0 7 0 7 1 7 1 7 1 6 2 6 2 6 2 6 3 6 3 6 3 6 3 5 3 5 4 5 4 5 4 5 4 4 5 4 5 4 5 4 5 3 5 3 5 3 6 3 6 2 6 2 6 2 6 1 6 1 6 1 6 0 7 0 0zm-37 843l0 -843 37 0 0 843 0 0 -37 0zm-100 126l0 -37 0 0 5 0 5 0 5 -1 5 -1 5 -1 5 -1 5 -1 5 -2 4 -2 4 -2 4 -2 4 -2 4 -3 4 -3 4 -3 3 -3 3 -3 3 -3 3 -3 3 -4 3 -4 2 -4 2 -4 2 -4 2 -4 2 -4 1 -4 1 -4 1 -4 1 -4 0 -4 0 -5 37 0 0 7 -1 6 -1 6 -1 6 -2 6 -2 6 -2 6 -3 6 -3 6 -3 5 -3 5 -4 5 -4 5 -4 5 -4 5 -5 4 -5 4 -5 4 -5 4 -5 3 -6 3 -6 3 -6 3 -6 3 -6 2 -6 2 -6 2 -7 1 -7 1 -7 1 -7 0 -7 0 0 0zm-3518 -37l3518 0 0 37 -3518 0 0 0 0 -37zm-137 -90l37 0 0 0 0 5 0 4 1 4 1 4 1 4 1 4 2 4 2 4 2 4 2 4 2 4 3 4 3 4 3 3 3 3 3 3 3 3 4 3 4 3 4 3 4 2 4 2 4 2 4 2 5 2 5 1 5 1 5 1 5 1 5 1 5 0 5 0 0 37 -7 0 -7 0 -7 -1 -7 -1 -7 -1 -6 -2 -6 -2 -6 -2 -6 -3 -6 -3 -6 -3 -6 -3 -5 -3 -5 -4 -5 -4 -5 -4 -5 -4 -4 -5 -4 -5 -4 -5 -4 -5 -3 -5 -3 -5 -3 -6 -3 -6 -2 -6 -2 -6 -2 -6 -1 -6 -1 -6 -1 -6 0 -7 0 0zm37 -843l0 843 -37 0 0 -843 0 0 37 0zm100 -126l0 37 0 0 -5 0 -5 0 -5 1 -5 1 -5 1 -5 1 -5 1 -5 2 -4 2 -4 2 -4 2 -4 2 -4 3 -4 3 -4 3 -3 3 -3 3 -3 3 -3 3 -3 4 -3 4 -2 4 -2 4 -2 4 -2 4 -2 4 -1 4 -1 4 -1 4 -1 4 0 4 0 5 -37 0 0 -7 1 -6 1 -6 1 -6 2 -6 2 -6 2 -6 3 -6 3 -6 3 -5 3 -5 4 -5 4 -5 4 -5 4 -5 5 -4 5 -4 5 -4 5 -4 5 -3 6 -3 6 -3 6 -3 6 -3 6 -2 6 -2 6 -2 7 -1 7 -1 7 -1 7 0 7 0 0 0z"/>
  </g>
  <rect class="fil2" transform="matrix(0.270562 -0.267379 0.270562 0.267379 860.275 2122)" width="1742" height="1742"/>
  <path class="fil3" d="M1975 1968c25,-1 47,-2 64,-2l0 154c-19,9 -39,17 -62,25l21 78c30,-35 55,-53 77,-56l2 0c3,0 16,11 38,32 21,18 65,28 132,28 92,1 166,2 222,1 2,-24 8,-46 17,-67 -189,11 -300,8 -332,-9 -11,-6 -28,-19 -51,-40l1 -208 -128 0 0 64zm92 -112c8,-9 17,-17 26,-25 3,-3 6,-6 9,-10 1,-1 3,-3 5,-5l-68 -85c-24,19 -43,33 -56,42 21,24 45,54 73,92 3,-3 7,-6 10,-10zm44 -66l0 62 143 -2c-1,8 -3,16 -4,24l-106 -3 1 273c111,-3 210,-3 296,0 -3,-97 -4,-188 -1,-272 -30,1 -72,2 -126,2l7 -24c79,0 130,1 154,2l0 -62 -102 1c9,-11 19,-25 30,-43 -12,-5 -32,-14 -58,-29 -13,24 -27,44 -39,61l20 10 -92 0c7,-5 14,-10 22,-15 -9,-11 -25,-30 -48,-57 -13,8 -32,17 -54,29l38 43 -81 -1zm265 275l0 23 -167 0 0 -23 167 0zm-167 -45l0 -24 167 0 0 24 -167 0zm0 -71c0,-8 -1,-16 -1,-24l168 0 0 24 -167 0zm335 208c-5,0 -11,1 -16,3 15,28 25,50 31,65 33,-15 94,-36 184,-62 1,-18 4,-40 9,-66 -25,10 -51,18 -75,25l0 -74c24,0 44,0 60,1l0 -49c8,10 14,20 20,30 4,-3 9,-6 14,-9l-1 200 63 0 0 -9 110 0 0 9 64 0c-4,-83 -4,-152 -2,-207 8,3 15,5 23,8l26 -65c-52,-10 -97,-28 -135,-55 36,-43 63,-82 80,-115l-23 -33 -110 0c4,-9 9,-17 13,-26 -24,-4 -41,-8 -52,-12 -6,-1 -11,-3 -17,-4 -11,50 -36,92 -76,126 0,-39 0,-71 2,-97l-188 0c2,62 2,124 0,187l70 -1 0 212c-5,2 -11,4 -18,5 0,-97 1,-158 2,-182l-61 0 2 194zm133 -284l-67 0 0 -76 67 0 0 76zm53 119l-53 1 0 -65 60 1c-1,-25 -2,-49 -2,-71 9,11 18,25 28,44 3,-4 9,-10 16,-18 7,-8 12,-14 16,-19 1,-2 3,-5 7,-9 8,17 19,34 33,51 -39,32 -79,56 -120,71l14 14zm83 4c22,-15 44,-31 64,-49 28,19 56,36 82,49l-146 0zm20 160l0 -101 110 0 0 101 -110 0zm82 -344c-12,21 -25,38 -37,53 -16,-18 -28,-35 -38,-53l75 0zm282 337c-53,4 -88,7 -106,7 11,26 19,49 25,70 36,-8 114,-21 233,-41 1,-19 3,-34 6,-44 0,0 0,-1 1,-5 0,-1 1,-4 2,-6 0,-1 0,-3 1,-5 -23,5 -47,10 -73,14 -9,1 -18,2 -27,4l0 -49c29,0 59,1 88,2l0 -62 -88 1c0,-10 0,-28 2,-54l-64 0 1 54 -90 -1 0 62c29,-1 59,-2 90,-2l0 56zm-91 -296c28,-1 59,-2 91,-2l0 61 -104 -1 0 60c95,-3 183,-3 263,0l0 -60 -97 1 0 -61c33,0 62,1 88,2l0 -58 -88 1c0,-19 0,-42 2,-69l-64 0 1 69 -91 -1 0 58zm254 64l121 -1 0 242c-3,4 -12,7 -29,7 -7,0 -16,-1 -29,-2 10,22 17,44 20,68 23,0 47,-3 72,-9 15,-4 25,-10 29,-21l1 -285 57 1 0 -60 -57 1 2 -133 -67 0 2 133 -121 -1 0 60zm0 64c17,35 31,71 41,109l46 -23c0,0 5,-2 15,-6l-46 -100c-14,6 -29,12 -45,17 -6,1 -10,2 -12,4zm322 -152c3,131 3,262 0,394l67 0 -2 -337c0,-19 1,-38 2,-57l-67 0zm84 -106c-15,12 -33,24 -53,37 26,29 48,56 64,80 15,-14 32,-27 51,-40 -13,-17 -34,-43 -63,-77zm138 402c0,7 -2,11 -6,12 -11,2 -26,2 -45,1 10,28 16,50 19,66 37,0 64,-5 82,-16 10,-6 15,-14 15,-25l0 -216 83 1 0 -60 -83 1 1 -62 -67 0 1 62 -141 -1 0 60 112 -1c-32,60 -74,104 -126,133 19,23 32,41 40,56 39,-29 77,-69 114,-117l0 105zm-60 -376l0 62c20,-1 93,-2 220,-2l0 340c0,4 -1,7 -3,9 -4,4 -21,5 -52,3 8,21 14,44 19,69 41,-1 71,-7 87,-17 9,-5 14,-15 14,-28l2 -435 -287 0z"/>
  <path class="fil3" d="M2779 2282l0 246 -56 0 0 -161c-9,8 -18,15 -26,20 -8,5 -19,10 -32,15l0 -55c19,-7 34,-16 44,-27 10,-10 19,-23 25,-38l46 0zm66 4l57 0 0 125 41 -58 68 0 -52 61 55 114 -63 0 -29 -70 -21 25 0 46 -57 0 0 -242zm187 67l52 0 0 26c7,-11 15,-18 23,-23 8,-5 17,-7 27,-7 12,0 21,2 27,7 7,5 12,12 17,22 9,-11 17,-19 24,-23 7,-4 16,-6 27,-6 16,0 28,6 36,17 9,11 13,29 13,52l0 110 -56 0 0 -100c0,-8 -1,-14 -4,-18 -4,-6 -8,-9 -14,-9 -7,0 -12,3 -16,9 -4,6 -6,15 -6,28l0 90 -56 0 0 -97c0,-8 0,-13 -1,-16 -1,-4 -3,-8 -6,-11 -3,-3 -6,-4 -10,-4 -6,0 -12,3 -16,9 -4,6 -6,15 -6,29l0 89 -56 0 0 -175z"/>
  <path class="fil4 str0" d="M1063 1981l548 0 0 280 -21 0 0 -42 -504 0 0 42 -23 0 0 -280zm528 107l-35 0 35 -29 0 29zm-146 3l45 0 90 -90 -45 0 -90 90zm-112 0l45 0 90 -90 -45 0 -90 90zm-120 0l45 0 90 -90 -45 0 -90 90zm-116 0l45 0 90 -90 -45 0 -90 90zm-11 -92l35 0 -35 29 0 -29zm0 163l35 0 -35 29 0 -29zm65 35l45 0 36 -37 -45 0 -36 37zm118 0l45 0 36 -37 -45 0 -36 37zm115 0l45 0 36 -37 -45 0 -36 37zm116 0l45 0 36 -37 -45 0 -36 37zm-415 -89l504 0 0 34 -504 0 0 -34z"/>
 </g>
</svg>
